<?xml version="1.0" encoding="UTF-8" standalone="no"?>
<!DOCTYPE svg PUBLIC "-//W3C//DTD SVG 1.1//EN"
"http://www.w3.org/Graphics/SVG/1.1/DTD/svg11.dtd">
<svg viewBox="0 0 909 1286" version="1.1" xmlns="http://www.w3.org/2000/svg" xmlns:xlink="http://www.w3.org/1999/xlink">
<defs>
<clipPath id="c0_124"><path d="M426.2 1230v-33.3H479V1230Z"/></clipPath>
<style type="text/css"><![CDATA[
.g0_124{
fill: #4472C4;
}
.g1_124{
fill: none;
stroke: #001F5F;
stroke-width: 1.466;
stroke-miterlimit: 10;
}
.g2_124{
fill: #5B9BD4;
}
.g3_124{
fill: none;
stroke: #41709C;
stroke-width: 1.466;
stroke-linejoin: round;
}
]]></style>
</defs>
<path fill-rule="evenodd" d="M49.7 1181.5H855.4v-1.1H49.7v1.1Z" class="g0_124"/>
<image clip-path="url(#c0_124)" preserveAspectRatio="none" x="426" y="1197" width="53" height="33" xlink:href="img/1.png"/>
<path d="M732.6 1093h85.5V991.4H732.6V1093Z" class="g1_124"/>
<path fill-rule="evenodd" d="M773.8 1000.9l-6.2 .7l-5.5 1.7l-4.7 2.8l-3.7 3.4l-2.3 4.1l-.8 4.6l.8 4.6l2.3 4.1l3.7 3.5l4.7 2.7l5.5 1.8l6.2 .6l6.2 -.6l5.6 -1.8l4.7 -2.7l3.7 -3.5l2.3 -4.1l.8 -4.6l-.8 -4.6l-2.3 -4.1l-3.7 -3.4l-4.7 -2.8l-5.6 -1.7l-6.2 -.7Z" class="g2_124"/>
<path d="M750.6 1018.2l.8 -4.6l2.3 -4.1l3.7 -3.4l4.7 -2.8l5.5 -1.7l6.2 -.7l6.2 .7l5.6 1.7l4.7 2.8l3.7 3.4l2.3 4.1l.8 4.6l-.8 4.6l-2.3 4.1l-3.7 3.5l-4.7 2.7l-5.6 1.8l-6.2 .6l-6.2 -.6l-5.5 -1.8l-4.7 -2.7l-3.7 -3.5l-2.3 -4.1l-.8 -4.6Z" class="g3_124"/>
<path fill-rule="evenodd" d="M773.8 1045.7l-6.2 .6l-5.5 1.8l-4.7 2.6l-3.7 3.5l-2.3 4l-.8 4.5l.8 4.6l2.3 4.1l3.7 3.4l4.7 2.7l5.5 1.7l6.2 .6l6.2 -.6l5.6 -1.7l4.7 -2.7l3.7 -3.4l2.3 -4.1l.8 -4.6l-.8 -4.5l-2.3 -4l-3.7 -3.5l-4.7 -2.6l-5.6 -1.8l-6.2 -.6Z" class="g2_124"/>
<path d="M750.6 1062.7l.8 -4.5l2.3 -4l3.7 -3.5l4.7 -2.6l5.5 -1.8l6.2 -.6l6.2 .6l5.6 1.8l4.7 2.6l3.7 3.5l2.3 4l.8 4.5l-.8 4.6l-2.3 4.1l-3.7 3.4l-4.7 2.7l-5.6 1.7l-6.2 .6l-6.2 -.6l-5.5 -1.7l-4.7 -2.7l-3.7 -3.4l-2.3 -4.1l-.8 -4.6Z" class="g3_124"/>
<path fill-rule="evenodd" d="M748.5 1016.8l-.8 -.5l-7.5 -5.6l-.6 3.8l-39.8 -7l-.2 1.5l39.7 7l-.7 3.7l9.9 -2.9Zm1.3 53.4l-9.7 -3.3l.5 3.8l-47.3 6.4l.2 1.4l47.3 -6.3l.6 3.8l8 -5.5l.4 -.3Zm1.1 -14.2l-.7 -.5l-7.5 -5.5l-.7 3.7l-59.8 -9.9l-.3 1.4l59.8 10.1l-.6 3.7l9.8 -3Z" class="g2_124"/>
</svg>