<?xml version="1.0" encoding="UTF-8" standalone="no"?>
<!DOCTYPE svg PUBLIC "-//W3C//DTD SVG 1.1//EN"
"http://www.w3.org/Graphics/SVG/1.1/DTD/svg11.dtd">
<svg viewBox="0 0 909 1286" version="1.1" xmlns="http://www.w3.org/2000/svg" xmlns:xlink="http://www.w3.org/1999/xlink">
<defs>
<clipPath id="c0_51"><path d="M421.9 1209.8v-33.3h52.7v33.3Z"/></clipPath>
<style type="text/css"><![CDATA[
.g0_51{
fill: #4472C4;
}
.g1_51{
fill: #000;
}
]]></style>
</defs>
<path fill-rule="evenodd" d="M49.7 88.9H855.8v-.7H49.7v.7Z" class="g0_51"/>
<path fill-rule="evenodd" d="M49.7 1161.4H855.8v-1.1H49.7v1.1Z" class="g0_51"/>
<image clip-path="url(#c0_51)" preserveAspectRatio="none" x="422" y="1176" width="53" height="34" xlink:href="img/1.png"/>
<path fill-rule="evenodd" d="M116.6 178.8h.8V178h-.8v.8Z" class="g1_51"/>
<path fill-rule="evenodd" d="M116.6 178.8h.8V178h-.8v.8Z" class="g1_51"/>
<path fill-rule="evenodd" d="M117.4 178.8h324V178h-324v.8Z" class="g1_51"/>
<path fill-rule="evenodd" d="M441.4 178.8h.7V178h-.7v.8Z" class="g1_51"/>
<path fill-rule="evenodd" d="M442.1 178.8H766.3V178H442.1v.8Z" class="g1_51"/>
<path fill-rule="evenodd" d="M766.3 178.8h.7V178h-.7v.8Z" class="g1_51"/>
<path fill-rule="evenodd" d="M766.3 178.8h.7V178h-.7v.8Z" class="g1_51"/>
<path fill-rule="evenodd" d="M116.6 201.7h.8V178.8h-.8v22.9Z" class="g1_51"/>
<path fill-rule="evenodd" d="M441.4 201.7h.7V178.8h-.7v22.9Z" class="g1_51"/>
<path fill-rule="evenodd" d="M766.3 201.7h.7V178.8h-.7v22.9Z" class="g1_51"/>
<path fill-rule="evenodd" d="M116.6 202.4h.8v-.7h-.8v.7Z" class="g1_51"/>
<path fill-rule="evenodd" d="M117.4 202.4h324v-.7h-324v.7Z" class="g1_51"/>
<path fill-rule="evenodd" d="M441.4 202.4h.7v-.7h-.7v.7Z" class="g1_51"/>
<path fill-rule="evenodd" d="M442.1 202.4H766.3v-.7H442.1v.7Z" class="g1_51"/>
<path fill-rule="evenodd" d="M766.3 202.4h.7v-.7h-.7v.7Z" class="g1_51"/>
<path fill-rule="evenodd" d="M116.6 225.3h.8V202.4h-.8v22.9Z" class="g1_51"/>
<path fill-rule="evenodd" d="M441.4 225.3h.7V202.4h-.7v22.9Z" class="g1_51"/>
<path fill-rule="evenodd" d="M766.3 225.3h.7V202.4h-.7v22.9Z" class="g1_51"/>
<path fill-rule="evenodd" d="M116.6 226.1h.8v-.8h-.8v.8Z" class="g1_51"/>
<path fill-rule="evenodd" d="M117.4 226.1h324v-.8h-324v.8Z" class="g1_51"/>
<path fill-rule="evenodd" d="M441.4 226.1h.7v-.8h-.7v.8Z" class="g1_51"/>
<path fill-rule="evenodd" d="M442.1 226.1H766.3v-.8H442.1v.8Z" class="g1_51"/>
<path fill-rule="evenodd" d="M766.3 226.1h.7v-.8h-.7v.8Z" class="g1_51"/>
<path fill-rule="evenodd" d="M116.6 271.7h.8V226.1h-.8v45.6Z" class="g1_51"/>
<path fill-rule="evenodd" d="M441.4 271.7h.7V226.1h-.7v45.6Z" class="g1_51"/>
<path fill-rule="evenodd" d="M766.3 271.7h.7V226.1h-.7v45.6Z" class="g1_51"/>
<path fill-rule="evenodd" d="M116.6 272.5h.8v-.8h-.8v.8Z" class="g1_51"/>
<path fill-rule="evenodd" d="M117.4 272.5h324v-.8h-324v.8Z" class="g1_51"/>
<path fill-rule="evenodd" d="M441.4 272.5h.7v-.8h-.7v.8Z" class="g1_51"/>
<path fill-rule="evenodd" d="M442.1 272.5H766.3v-.8H442.1v.8Z" class="g1_51"/>
<path fill-rule="evenodd" d="M766.3 272.5h.7v-.8h-.7v.8Z" class="g1_51"/>
<path fill-rule="evenodd" d="M116.6 295.4h.8V272.5h-.8v22.9Z" class="g1_51"/>
<path fill-rule="evenodd" d="M116.6 296.1h.8v-.7h-.8v.7Z" class="g1_51"/>
<path fill-rule="evenodd" d="M116.6 296.1h.8v-.7h-.8v.7Z" class="g1_51"/>
<path fill-rule="evenodd" d="M117.4 296.1h324v-.7h-324v.7Z" class="g1_51"/>
<path fill-rule="evenodd" d="M441.4 295.4h.7V272.5h-.7v22.9Z" class="g1_51"/>
<path fill-rule="evenodd" d="M441.4 296.1h.7v-.7h-.7v.7Z" class="g1_51"/>
<path fill-rule="evenodd" d="M442.1 296.1H766.3v-.7H442.1v.7Z" class="g1_51"/>
<path fill-rule="evenodd" d="M766.3 295.4h.7V272.5h-.7v22.9Z" class="g1_51"/>
<path fill-rule="evenodd" d="M766.3 296.1h.7v-.7h-.7v.7Z" class="g1_51"/>
<path fill-rule="evenodd" d="M766.3 296.1h.7v-.7h-.7v.7Z" class="g1_51"/>
<path fill-rule="evenodd" d="M116.6 342.5h.8v-.7h-.8v.7Z" class="g1_51"/>
<path fill-rule="evenodd" d="M116.6 342.5h.8v-.7h-.8v.7Z" class="g1_51"/>
<path fill-rule="evenodd" d="M117.4 342.5h324v-.7h-324v.7Z" class="g1_51"/>
<path fill-rule="evenodd" d="M441.4 342.5h.7v-.7h-.7v.7Z" class="g1_51"/>
<path fill-rule="evenodd" d="M442.1 342.5H766.3v-.7H442.1v.7Z" class="g1_51"/>
<path fill-rule="evenodd" d="M766.3 342.5h.7v-.7h-.7v.7Z" class="g1_51"/>
<path fill-rule="evenodd" d="M766.3 342.5h.7v-.7h-.7v.7Z" class="g1_51"/>
<path fill-rule="evenodd" d="M116.6 365.4h.8V342.5h-.8v22.9Z" class="g1_51"/>
<path fill-rule="evenodd" d="M441.4 365.4h.7V342.5h-.7v22.9Z" class="g1_51"/>
<path fill-rule="evenodd" d="M766.3 365.4h.7V342.5h-.7v22.9Z" class="g1_51"/>
<path fill-rule="evenodd" d="M116.6 366.1h.8v-.7h-.8v.7Z" class="g1_51"/>
<path fill-rule="evenodd" d="M117.4 366.1h324v-.7h-324v.7Z" class="g1_51"/>
<path fill-rule="evenodd" d="M441.4 366.1h.7v-.7h-.7v.7Z" class="g1_51"/>
<path fill-rule="evenodd" d="M442.1 366.1H766.3v-.7H442.1v.7Z" class="g1_51"/>
<path fill-rule="evenodd" d="M766.3 366.1h.7v-.7h-.7v.7Z" class="g1_51"/>
<path fill-rule="evenodd" d="M116.6 411.8h.8V366.2h-.8v45.6Z" class="g1_51"/>
<path fill-rule="evenodd" d="M441.4 411.8h.7V366.2h-.7v45.6Z" class="g1_51"/>
<path fill-rule="evenodd" d="M766.3 411.8h.7V366.2h-.7v45.6Z" class="g1_51"/>
<path fill-rule="evenodd" d="M116.6 412.6h.8v-.8h-.8v.8Z" class="g1_51"/>
<path fill-rule="evenodd" d="M117.4 412.6h324v-.8h-324v.8Z" class="g1_51"/>
<path fill-rule="evenodd" d="M441.4 412.6h.7v-.8h-.7v.8Z" class="g1_51"/>
<path fill-rule="evenodd" d="M442.1 412.6H766.3v-.8H442.1v.8Z" class="g1_51"/>
<path fill-rule="evenodd" d="M766.3 412.6h.7v-.8h-.7v.8Z" class="g1_51"/>
<path fill-rule="evenodd" d="M116.6 458.4h.8V412.6h-.8v45.8Z" class="g1_51"/>
<path fill-rule="evenodd" d="M441.4 458.4h.7V412.6h-.7v45.8Z" class="g1_51"/>
<path fill-rule="evenodd" d="M766.3 458.4h.7V412.6h-.7v45.8Z" class="g1_51"/>
<path fill-rule="evenodd" d="M116.6 459.1h.8v-.7h-.8v.7Z" class="g1_51"/>
<path fill-rule="evenodd" d="M117.4 459.1h324v-.7h-324v.7Z" class="g1_51"/>
<path fill-rule="evenodd" d="M441.4 459.1h.7v-.7h-.7v.7Z" class="g1_51"/>
<path fill-rule="evenodd" d="M442.1 459.1H766.3v-.7H442.1v.7Z" class="g1_51"/>
<path fill-rule="evenodd" d="M766.3 459.1h.7v-.7h-.7v.7Z" class="g1_51"/>
<path fill-rule="evenodd" d="M116.6 527.7h.8V459.1h-.8v68.6Z" class="g1_51"/>
<path fill-rule="evenodd" d="M441.4 527.7h.7V459.1h-.7v68.6Z" class="g1_51"/>
<path fill-rule="evenodd" d="M766.3 527.7h.7V459.1h-.7v68.6Z" class="g1_51"/>
<path fill-rule="evenodd" d="M116.6 528.4h.8v-.7h-.8v.7Z" class="g1_51"/>
<path fill-rule="evenodd" d="M117.4 528.4h324v-.7h-324v.7Z" class="g1_51"/>
<path fill-rule="evenodd" d="M441.4 528.4h.7v-.7h-.7v.7Z" class="g1_51"/>
<path fill-rule="evenodd" d="M442.1 528.4H766.3v-.7H442.1v.7Z" class="g1_51"/>
<path fill-rule="evenodd" d="M766.3 528.4h.7v-.7h-.7v.7Z" class="g1_51"/>
<path fill-rule="evenodd" d="M116.6 551.2h.8V528.4h-.8v22.8Z" class="g1_51"/>
<path fill-rule="evenodd" d="M116.6 551.9h.8v-.7h-.8v.7Z" class="g1_51"/>
<path fill-rule="evenodd" d="M116.6 551.9h.8v-.7h-.8v.7Z" class="g1_51"/>
<path fill-rule="evenodd" d="M117.4 551.9h324v-.7h-324v.7Z" class="g1_51"/>
<path fill-rule="evenodd" d="M441.4 551.2h.7V528.4h-.7v22.8Z" class="g1_51"/>
<path fill-rule="evenodd" d="M441.4 551.9h.7v-.7h-.7v.7Z" class="g1_51"/>
<path fill-rule="evenodd" d="M442.1 551.9H766.3v-.7H442.1v.7Z" class="g1_51"/>
<path fill-rule="evenodd" d="M766.3 551.2h.7V528.4h-.7v22.8Z" class="g1_51"/>
<path fill-rule="evenodd" d="M766.3 551.9h.7v-.7h-.7v.7Z" class="g1_51"/>
<path fill-rule="evenodd" d="M766.3 551.9h.7v-.7h-.7v.7Z" class="g1_51"/>
<path fill-rule="evenodd" d="M116.6 599h.8v-.7h-.8v.7Z" class="g1_51"/>
<path fill-rule="evenodd" d="M116.6 599h.8v-.7h-.8v.7Z" class="g1_51"/>
<path fill-rule="evenodd" d="M117.4 599h324v-.7h-324v.7Z" class="g1_51"/>
<path fill-rule="evenodd" d="M441.4 599h.7v-.7h-.7v.7Z" class="g1_51"/>
<path fill-rule="evenodd" d="M442.1 599H766.3v-.7H442.1v.7Z" class="g1_51"/>
<path fill-rule="evenodd" d="M766.3 599h.7v-.7h-.7v.7Z" class="g1_51"/>
<path fill-rule="evenodd" d="M766.3 599h.7v-.7h-.7v.7Z" class="g1_51"/>
<path fill-rule="evenodd" d="M116.6 621.8h.8V599h-.8v22.8Z" class="g1_51"/>
<path fill-rule="evenodd" d="M441.4 621.8h.7V599h-.7v22.8Z" class="g1_51"/>
<path fill-rule="evenodd" d="M766.3 621.8h.7V599h-.7v22.8Z" class="g1_51"/>
<path fill-rule="evenodd" d="M116.6 622.5h.8v-.7h-.8v.7Z" class="g1_51"/>
<path fill-rule="evenodd" d="M117.4 622.5h324v-.7h-324v.7Z" class="g1_51"/>
<path fill-rule="evenodd" d="M441.4 622.5h.7v-.7h-.7v.7Z" class="g1_51"/>
<path fill-rule="evenodd" d="M442.1 622.5H766.3v-.7H442.1v.7Z" class="g1_51"/>
<path fill-rule="evenodd" d="M766.3 622.5h.7v-.7h-.7v.7Z" class="g1_51"/>
<path fill-rule="evenodd" d="M116.6 668.4h.8V622.5h-.8v45.9Z" class="g1_51"/>
<path fill-rule="evenodd" d="M441.4 668.4h.7V622.5h-.7v45.9Z" class="g1_51"/>
<path fill-rule="evenodd" d="M766.3 668.4h.7V622.5h-.7v45.9Z" class="g1_51"/>
<path fill-rule="evenodd" d="M116.6 669.1h.8v-.7h-.8v.7Z" class="g1_51"/>
<path fill-rule="evenodd" d="M117.4 669.1h324v-.7h-324v.7Z" class="g1_51"/>
<path fill-rule="evenodd" d="M441.4 669.1h.7v-.7h-.7v.7Z" class="g1_51"/>
<path fill-rule="evenodd" d="M442.1 669.1H766.3v-.7H442.1v.7Z" class="g1_51"/>
<path fill-rule="evenodd" d="M766.3 669.1h.7v-.7h-.7v.7Z" class="g1_51"/>
<path fill-rule="evenodd" d="M116.6 714.7h.8V669.1h-.8v45.6Z" class="g1_51"/>
<path fill-rule="evenodd" d="M441.4 714.7h.7V669.1h-.7v45.6Z" class="g1_51"/>
<path fill-rule="evenodd" d="M766.3 714.7h.7V669.1h-.7v45.6Z" class="g1_51"/>
<path fill-rule="evenodd" d="M116.6 715.5h.8v-.8h-.8v.8Z" class="g1_51"/>
<path fill-rule="evenodd" d="M117.4 715.5h324v-.8h-324v.8Z" class="g1_51"/>
<path fill-rule="evenodd" d="M441.4 715.5h.7v-.8h-.7v.8Z" class="g1_51"/>
<path fill-rule="evenodd" d="M442.1 715.5H766.3v-.8H442.1v.8Z" class="g1_51"/>
<path fill-rule="evenodd" d="M766.3 715.5h.7v-.8h-.7v.8Z" class="g1_51"/>
<path fill-rule="evenodd" d="M116.6 761.1h.8V715.5h-.8v45.6Z" class="g1_51"/>
<path fill-rule="evenodd" d="M441.4 761.1h.7V715.5h-.7v45.6Z" class="g1_51"/>
<path fill-rule="evenodd" d="M766.3 761.1h.7V715.5h-.7v45.6Z" class="g1_51"/>
<path fill-rule="evenodd" d="M116.6 761.9h.8v-.8h-.8v.8Z" class="g1_51"/>
<path fill-rule="evenodd" d="M117.4 761.9h324v-.8h-324v.8Z" class="g1_51"/>
<path fill-rule="evenodd" d="M441.4 761.9h.7v-.8h-.7v.8Z" class="g1_51"/>
<path fill-rule="evenodd" d="M442.1 761.9H766.3v-.8H442.1v.8Z" class="g1_51"/>
<path fill-rule="evenodd" d="M766.3 761.9h.7v-.8h-.7v.8Z" class="g1_51"/>
<path fill-rule="evenodd" d="M116.6 784.8h.8V761.9h-.8v22.9Z" class="g1_51"/>
<path fill-rule="evenodd" d="M441.4 784.8h.7V761.9h-.7v22.9Z" class="g1_51"/>
<path fill-rule="evenodd" d="M766.3 784.8h.7V761.9h-.7v22.9Z" class="g1_51"/>
<path fill-rule="evenodd" d="M116.6 785.5h.8v-.7h-.8v.7Z" class="g1_51"/>
<path fill-rule="evenodd" d="M117.4 785.5h324v-.7h-324v.7Z" class="g1_51"/>
<path fill-rule="evenodd" d="M441.4 785.5h.7v-.7h-.7v.7Z" class="g1_51"/>
<path fill-rule="evenodd" d="M442.1 785.5H766.3v-.7H442.1v.7Z" class="g1_51"/>
<path fill-rule="evenodd" d="M766.3 785.5h.7v-.7h-.7v.7Z" class="g1_51"/>
<path fill-rule="evenodd" d="M116.6 877h.8V785.5h-.8V877Z" class="g1_51"/>
<path fill-rule="evenodd" d="M116.6 877.7h.8V877h-.8v.7Z" class="g1_51"/>
<path fill-rule="evenodd" d="M116.6 877.7h.8V877h-.8v.7Z" class="g1_51"/>
<path fill-rule="evenodd" d="M117.4 877.7h324V877h-324v.7Z" class="g1_51"/>
<path fill-rule="evenodd" d="M441.4 877h.7V785.5h-.7V877Z" class="g1_51"/>
<path fill-rule="evenodd" d="M441.4 877.7h.7V877h-.7v.7Z" class="g1_51"/>
<path fill-rule="evenodd" d="M442.1 877.7H766.3V877H442.1v.7Z" class="g1_51"/>
<path fill-rule="evenodd" d="M766.3 877h.7V785.5h-.7V877Z" class="g1_51"/>
<path fill-rule="evenodd" d="M766.3 877.7h.7V877h-.7v.7Z" class="g1_51"/>
<path fill-rule="evenodd" d="M766.3 877.7h.7V877h-.7v.7Z" class="g1_51"/>
<path fill-rule="evenodd" d="M116.6 924.2h.8v-.8h-.8v.8Z" class="g1_51"/>
<path fill-rule="evenodd" d="M116.6 924.2h.8v-.8h-.8v.8Z" class="g1_51"/>
<path fill-rule="evenodd" d="M117.4 924.2H440.7v-.8H117.4v.8Z" class="g1_51"/>
<path fill-rule="evenodd" d="M440.7 924.2h.7v-.8h-.7v.8Z" class="g1_51"/>
<path fill-rule="evenodd" d="M441.4 924.2H764.8v-.8H441.4v.8Z" class="g1_51"/>
<path fill-rule="evenodd" d="M764.8 924.2h.8v-.8h-.8v.8Z" class="g1_51"/>
<path fill-rule="evenodd" d="M764.8 924.2h.8v-.8h-.8v.8Z" class="g1_51"/>
<path fill-rule="evenodd" d="M116.6 952.8h.8V924.2h-.8v28.6Z" class="g1_51"/>
<path fill-rule="evenodd" d="M440.7 952.8h.7V924.2h-.7v28.6Z" class="g1_51"/>
<path fill-rule="evenodd" d="M764.8 952.8h.8V924.2h-.8v28.6Z" class="g1_51"/>
<path fill-rule="evenodd" d="M116.6 953.5h.8v-.7h-.8v.7Z" class="g1_51"/>
<path fill-rule="evenodd" d="M117.4 953.5H440.7v-.7H117.4v.7Z" class="g1_51"/>
<path fill-rule="evenodd" d="M440.7 953.5h.7v-.7h-.7v.7Z" class="g1_51"/>
<path fill-rule="evenodd" d="M441.4 953.5H764.8v-.7H441.4v.7Z" class="g1_51"/>
<path fill-rule="evenodd" d="M764.8 953.5h.8v-.7h-.8v.7Z" class="g1_51"/>
<path fill-rule="evenodd" d="M116.6 983h.8V953.5h-.8V983Z" class="g1_51"/>
<path fill-rule="evenodd" d="M440.7 983h.7V953.5h-.7V983Z" class="g1_51"/>
<path fill-rule="evenodd" d="M764.8 983h.8V953.5h-.8V983Z" class="g1_51"/>
<path fill-rule="evenodd" d="M116.6 983.7h.8V983h-.8v.7Z" class="g1_51"/>
<path fill-rule="evenodd" d="M117.4 983.7H440.7V983H117.4v.7Z" class="g1_51"/>
<path fill-rule="evenodd" d="M440.7 983.7h.7V983h-.7v.7Z" class="g1_51"/>
<path fill-rule="evenodd" d="M441.4 983.7H764.8V983H441.4v.7Z" class="g1_51"/>
<path fill-rule="evenodd" d="M764.8 983.7h.8V983h-.8v.7Z" class="g1_51"/>
<path fill-rule="evenodd" d="M116.6 1012.3h.8V983.7h-.8v28.6Z" class="g1_51"/>
<path fill-rule="evenodd" d="M440.7 1012.3h.7V983.7h-.7v28.6Z" class="g1_51"/>
<path fill-rule="evenodd" d="M764.8 1012.3h.8V983.7h-.8v28.6Z" class="g1_51"/>
<path fill-rule="evenodd" d="M116.6 1013.1h.8v-.8h-.8v.8Z" class="g1_51"/>
<path fill-rule="evenodd" d="M117.4 1013.1H440.7v-.8H117.4v.8Z" class="g1_51"/>
<path fill-rule="evenodd" d="M440.7 1013.1h.7v-.8h-.7v.8Z" class="g1_51"/>
<path fill-rule="evenodd" d="M441.4 1013.1H764.8v-.8H441.4v.8Z" class="g1_51"/>
<path fill-rule="evenodd" d="M764.8 1013.1h.8v-.8h-.8v.8Z" class="g1_51"/>
<path fill-rule="evenodd" d="M116.6 1071.4h.8v-58.3h-.8v58.3Z" class="g1_51"/>
<path fill-rule="evenodd" d="M116.6 1072.1h.8v-.7h-.8v.7Z" class="g1_51"/>
<path fill-rule="evenodd" d="M116.6 1072.1h.8v-.7h-.8v.7Z" class="g1_51"/>
<path fill-rule="evenodd" d="M117.4 1072.1H440.7v-.7H117.4v.7Z" class="g1_51"/>
<path fill-rule="evenodd" d="M440.7 1071.4h.7v-58.3h-.7v58.3Z" class="g1_51"/>
<path fill-rule="evenodd" d="M440.7 1072.1h.7v-.7h-.7v.7Z" class="g1_51"/>
<path fill-rule="evenodd" d="M441.4 1072.1H764.8v-.7H441.4v.7Z" class="g1_51"/>
<path fill-rule="evenodd" d="M764.8 1071.4h.8v-58.3h-.8v58.3Z" class="g1_51"/>
<path fill-rule="evenodd" d="M764.8 1072.1h.8v-.7h-.8v.7Z" class="g1_51"/>
<path fill-rule="evenodd" d="M764.8 1072.1h.8v-.7h-.8v.7Z" class="g1_51"/>
</svg>