<?xml version="1.0" encoding="UTF-8" standalone="no"?>
<!DOCTYPE svg PUBLIC "-//W3C//DTD SVG 1.1//EN"
"http://www.w3.org/Graphics/SVG/1.1/DTD/svg11.dtd">
<svg viewBox="0 0 909 1286" version="1.1" xmlns="http://www.w3.org/2000/svg" xmlns:xlink="http://www.w3.org/1999/xlink">
<defs>
<clipPath id="c0_97"><path d="M426.2 1230v-33.3H479V1230Z"/></clipPath>
<style type="text/css"><![CDATA[
.g0_97{
fill: #4472C4;
}
.g1_97{
fill: #000;
}
.g2_97{
fill: #FF0;
}
]]></style>
</defs>
<path fill-rule="evenodd" d="M49.7 1181.5H855.4v-1.1H49.7v1.1Z" class="g0_97"/>
<image clip-path="url(#c0_97)" preserveAspectRatio="none" x="426" y="1197" width="53" height="33" xlink:href="img/1.png"/>
<path fill-rule="evenodd" d="M94.8 816.7h.8v-.8h-.8v.8Z" class="g1_97"/>
<path fill-rule="evenodd" d="M94.8 816.7h.8v-.8h-.8v.8Z" class="g1_97"/>
<path fill-rule="evenodd" d="M95.6 816.7h75.1v-.8H95.6v.8Z" class="g1_97"/>
<path fill-rule="evenodd" d="M170.7 816.7h.7v-.8h-.7v.8Z" class="g1_97"/>
<path fill-rule="evenodd" d="M171.4 816.7H333v-.8H171.4v.8Z" class="g1_97"/>
<path fill-rule="evenodd" d="M333 816.7h.7v-.8H333v.8Z" class="g1_97"/>
<path fill-rule="evenodd" d="M333.7 816.7H506.3v-.8H333.7v.8Z" class="g1_97"/>
<path fill-rule="evenodd" d="M506.3 816.7h.7v-.8h-.7v.8Z" class="g1_97"/>
<path fill-rule="evenodd" d="M507 816.7H658.1v-.8H507v.8Z" class="g1_97"/>
<path fill-rule="evenodd" d="M658.1 816.7h.7v-.8h-.7v.8Z" class="g1_97"/>
<path fill-rule="evenodd" d="M658.8 816.7H820.4v-.8H658.8v.8Z" class="g1_97"/>
<path fill-rule="evenodd" d="M820.4 816.7h.7v-.8h-.7v.8Z" class="g1_97"/>
<path fill-rule="evenodd" d="M820.4 816.7h.7v-.8h-.7v.8Z" class="g1_97"/>
<path fill-rule="evenodd" d="M94.8 885.2h.8V816.7h-.8v68.5Z" class="g1_97"/>
<path fill-rule="evenodd" d="M170.7 885.2h.7V816.7h-.7v68.5Z" class="g1_97"/>
<path fill-rule="evenodd" d="M333 885.2h.7V816.7H333v68.5Z" class="g1_97"/>
<path fill-rule="evenodd" d="M506.3 885.2h.7V816.7h-.7v68.5Z" class="g1_97"/>
<path fill-rule="evenodd" d="M658.1 885.2h.7V816.7h-.7v68.5Z" class="g1_97"/>
<path fill-rule="evenodd" d="M820.4 885.2h.7V816.7h-.7v68.5Z" class="g1_97"/>
<path fill-rule="evenodd" d="M723 908.9h33.2V886H723v22.9Z" class="g2_97"/>
<path fill-rule="evenodd" d="M94.8 886h.8v-.8h-.8v.8Z" class="g1_97"/>
<path fill-rule="evenodd" d="M95.6 886h75.1v-.8H95.6v.8Z" class="g1_97"/>
<path fill-rule="evenodd" d="M170.7 886h.7v-.8h-.7v.8Z" class="g1_97"/>
<path fill-rule="evenodd" d="M171.4 886H333v-.8H171.4v.8Z" class="g1_97"/>
<path fill-rule="evenodd" d="M333 886h.7v-.8H333v.8Z" class="g1_97"/>
<path fill-rule="evenodd" d="M333.7 886H506.3v-.8H333.7v.8Z" class="g1_97"/>
<path fill-rule="evenodd" d="M506.3 886h.7v-.8h-.7v.8Z" class="g1_97"/>
<path fill-rule="evenodd" d="M507 886H658.1v-.8H507v.8Z" class="g1_97"/>
<path fill-rule="evenodd" d="M658.1 886h.7v-.8h-.7v.8Z" class="g1_97"/>
<path fill-rule="evenodd" d="M658.8 886H820.4v-.8H658.8v.8Z" class="g1_97"/>
<path fill-rule="evenodd" d="M820.4 886h.7v-.8h-.7v.8Z" class="g1_97"/>
<path fill-rule="evenodd" d="M94.8 908.9h.8V886h-.8v22.9Z" class="g1_97"/>
<path fill-rule="evenodd" d="M170.7 908.9h.7V886h-.7v22.9Z" class="g1_97"/>
<path fill-rule="evenodd" d="M333 908.9h.7V886H333v22.9Z" class="g1_97"/>
<path fill-rule="evenodd" d="M506.3 908.9h.7V886h-.7v22.9Z" class="g1_97"/>
<path fill-rule="evenodd" d="M658.1 908.9h.7V886h-.7v22.9Z" class="g1_97"/>
<path fill-rule="evenodd" d="M820.4 908.9h.7V886h-.7v22.9Z" class="g1_97"/>
<path fill-rule="evenodd" d="M720.3 932.4H759V909.6H720.3v22.8Z" class="g2_97"/>
<path fill-rule="evenodd" d="M94.8 909.6h.8v-.7h-.8v.7Z" class="g1_97"/>
<path fill-rule="evenodd" d="M95.6 909.6h75.1v-.7H95.6v.7Z" class="g1_97"/>
<path fill-rule="evenodd" d="M170.7 909.6h.7v-.7h-.7v.7Z" class="g1_97"/>
<path fill-rule="evenodd" d="M171.4 909.6H333v-.7H171.4v.7Z" class="g1_97"/>
<path fill-rule="evenodd" d="M333 909.6h.7v-.7H333v.7Z" class="g1_97"/>
<path fill-rule="evenodd" d="M333.7 909.6H506.3v-.7H333.7v.7Z" class="g1_97"/>
<path fill-rule="evenodd" d="M506.3 909.6h.7v-.7h-.7v.7Z" class="g1_97"/>
<path fill-rule="evenodd" d="M507 909.6H658.1v-.7H507v.7Z" class="g1_97"/>
<path fill-rule="evenodd" d="M658.1 909.6h.7v-.7h-.7v.7Z" class="g1_97"/>
<path fill-rule="evenodd" d="M658.8 909.6H820.4v-.7H658.8v.7Z" class="g1_97"/>
<path fill-rule="evenodd" d="M820.4 909.6h.7v-.7h-.7v.7Z" class="g1_97"/>
<path fill-rule="evenodd" d="M94.8 932.4h.8V909.6h-.8v22.8Z" class="g1_97"/>
<path fill-rule="evenodd" d="M170.7 932.4h.7V909.6h-.7v22.8Z" class="g1_97"/>
<path fill-rule="evenodd" d="M333 932.4h.7V909.6H333v22.8Z" class="g1_97"/>
<path fill-rule="evenodd" d="M506.3 932.4h.7V909.6h-.7v22.8Z" class="g1_97"/>
<path fill-rule="evenodd" d="M658.1 932.4h.7V909.6h-.7v22.8Z" class="g1_97"/>
<path fill-rule="evenodd" d="M820.4 932.4h.7V909.6h-.7v22.8Z" class="g1_97"/>
<path fill-rule="evenodd" d="M723 956.1h33.2v-23H723v23Z" class="g2_97"/>
<path fill-rule="evenodd" d="M94.8 933.1h.8v-.7h-.8v.7Z" class="g1_97"/>
<path fill-rule="evenodd" d="M95.6 933.1h75.1v-.7H95.6v.7Z" class="g1_97"/>
<path fill-rule="evenodd" d="M170.7 933.1h.7v-.7h-.7v.7Z" class="g1_97"/>
<path fill-rule="evenodd" d="M171.4 933.1H333v-.7H171.4v.7Z" class="g1_97"/>
<path fill-rule="evenodd" d="M333 933.1h.7v-.7H333v.7Z" class="g1_97"/>
<path fill-rule="evenodd" d="M333.7 933.1H506.3v-.7H333.7v.7Z" class="g1_97"/>
<path fill-rule="evenodd" d="M506.3 933.1h.7v-.7h-.7v.7Z" class="g1_97"/>
<path fill-rule="evenodd" d="M507 933.1H658.1v-.7H507v.7Z" class="g1_97"/>
<path fill-rule="evenodd" d="M658.1 933.1h.7v-.7h-.7v.7Z" class="g1_97"/>
<path fill-rule="evenodd" d="M658.8 933.1H820.4v-.7H658.8v.7Z" class="g1_97"/>
<path fill-rule="evenodd" d="M820.4 933.1h.7v-.7h-.7v.7Z" class="g1_97"/>
<path fill-rule="evenodd" d="M94.8 956.1h.8v-23h-.8v23Z" class="g1_97"/>
<path fill-rule="evenodd" d="M170.7 956.1h.7v-23h-.7v23Z" class="g1_97"/>
<path fill-rule="evenodd" d="M333 956.1h.7v-23H333v23Z" class="g1_97"/>
<path fill-rule="evenodd" d="M506.3 956.1h.7v-23h-.7v23Z" class="g1_97"/>
<path fill-rule="evenodd" d="M658.1 956.1h.7v-23h-.7v23Z" class="g1_97"/>
<path fill-rule="evenodd" d="M820.4 956.1h.7v-23h-.7v23Z" class="g1_97"/>
<path fill-rule="evenodd" d="M720.3 979.7H759V956.8H720.3v22.9Z" class="g2_97"/>
<path fill-rule="evenodd" d="M94.8 956.8h.8v-.7h-.8v.7Z" class="g1_97"/>
<path fill-rule="evenodd" d="M95.6 956.8h75.1v-.7H95.6v.7Z" class="g1_97"/>
<path fill-rule="evenodd" d="M170.7 956.8h.7v-.7h-.7v.7Z" class="g1_97"/>
<path fill-rule="evenodd" d="M171.4 956.8H333v-.7H171.4v.7Z" class="g1_97"/>
<path fill-rule="evenodd" d="M333 956.8h.7v-.7H333v.7Z" class="g1_97"/>
<path fill-rule="evenodd" d="M333.7 956.8H506.3v-.7H333.7v.7Z" class="g1_97"/>
<path fill-rule="evenodd" d="M506.3 956.8h.7v-.7h-.7v.7Z" class="g1_97"/>
<path fill-rule="evenodd" d="M507 956.8H658.1v-.7H507v.7Z" class="g1_97"/>
<path fill-rule="evenodd" d="M658.1 956.8h.7v-.7h-.7v.7Z" class="g1_97"/>
<path fill-rule="evenodd" d="M658.8 956.8H820.4v-.7H658.8v.7Z" class="g1_97"/>
<path fill-rule="evenodd" d="M820.4 956.8h.7v-.7h-.7v.7Z" class="g1_97"/>
<path fill-rule="evenodd" d="M94.8 979.7h.8V956.8h-.8v22.9Z" class="g1_97"/>
<path fill-rule="evenodd" d="M170.7 979.7h.7V956.8h-.7v22.9Z" class="g1_97"/>
<path fill-rule="evenodd" d="M333 979.7h.7V956.8H333v22.9Z" class="g1_97"/>
<path fill-rule="evenodd" d="M506.3 979.7h.7V956.8h-.7v22.9Z" class="g1_97"/>
<path fill-rule="evenodd" d="M658.1 979.7h.7V956.8h-.7v22.9Z" class="g1_97"/>
<path fill-rule="evenodd" d="M820.4 979.7h.7V956.8h-.7v22.9Z" class="g1_97"/>
<path fill-rule="evenodd" d="M723 1003.4h33.2v-23H723v23Z" class="g2_97"/>
<path fill-rule="evenodd" d="M94.8 980.4h.8v-.7h-.8v.7Z" class="g1_97"/>
<path fill-rule="evenodd" d="M95.6 980.4h75.1v-.7H95.6v.7Z" class="g1_97"/>
<path fill-rule="evenodd" d="M170.7 980.4h.7v-.7h-.7v.7Z" class="g1_97"/>
<path fill-rule="evenodd" d="M171.4 980.4H333v-.7H171.4v.7Z" class="g1_97"/>
<path fill-rule="evenodd" d="M333 980.4h.7v-.7H333v.7Z" class="g1_97"/>
<path fill-rule="evenodd" d="M333.7 980.4H506.3v-.7H333.7v.7Z" class="g1_97"/>
<path fill-rule="evenodd" d="M506.3 980.4h.7v-.7h-.7v.7Z" class="g1_97"/>
<path fill-rule="evenodd" d="M507 980.4H658.1v-.7H507v.7Z" class="g1_97"/>
<path fill-rule="evenodd" d="M658.1 980.4h.7v-.7h-.7v.7Z" class="g1_97"/>
<path fill-rule="evenodd" d="M658.8 980.4H820.4v-.7H658.8v.7Z" class="g1_97"/>
<path fill-rule="evenodd" d="M820.4 980.4h.7v-.7h-.7v.7Z" class="g1_97"/>
<path fill-rule="evenodd" d="M94.8 1003.4h.8v-23h-.8v23Z" class="g1_97"/>
<path fill-rule="evenodd" d="M170.7 1003.4h.7v-23h-.7v23Z" class="g1_97"/>
<path fill-rule="evenodd" d="M333 1003.4h.7v-23H333v23Z" class="g1_97"/>
<path fill-rule="evenodd" d="M506.3 1003.4h.7v-23h-.7v23Z" class="g1_97"/>
<path fill-rule="evenodd" d="M658.1 1003.4h.7v-23h-.7v23Z" class="g1_97"/>
<path fill-rule="evenodd" d="M820.4 1003.4h.7v-23h-.7v23Z" class="g1_97"/>
<path fill-rule="evenodd" d="M720.3 1026.8H759v-22.7H720.3v22.7Z" class="g2_97"/>
<path fill-rule="evenodd" d="M94.8 1004.1h.8v-.7h-.8v.7Z" class="g1_97"/>
<path fill-rule="evenodd" d="M95.6 1004.1h75.1v-.7H95.6v.7Z" class="g1_97"/>
<path fill-rule="evenodd" d="M170.7 1004.1h.7v-.7h-.7v.7Z" class="g1_97"/>
<path fill-rule="evenodd" d="M171.4 1004.1H333v-.7H171.4v.7Z" class="g1_97"/>
<path fill-rule="evenodd" d="M333 1004.1h.7v-.7H333v.7Z" class="g1_97"/>
<path fill-rule="evenodd" d="M333.7 1004.1H506.3v-.7H333.7v.7Z" class="g1_97"/>
<path fill-rule="evenodd" d="M506.3 1004.1h.7v-.7h-.7v.7Z" class="g1_97"/>
<path fill-rule="evenodd" d="M507 1004.1H658.1v-.7H507v.7Z" class="g1_97"/>
<path fill-rule="evenodd" d="M658.1 1004.1h.7v-.7h-.7v.7Z" class="g1_97"/>
<path fill-rule="evenodd" d="M658.8 1004.1H820.4v-.7H658.8v.7Z" class="g1_97"/>
<path fill-rule="evenodd" d="M820.4 1004.1h.7v-.7h-.7v.7Z" class="g1_97"/>
<path fill-rule="evenodd" d="M94.8 1026.8h.8v-22.7h-.8v22.7Z" class="g1_97"/>
<path fill-rule="evenodd" d="M94.8 1027.6h.8v-.8h-.8v.8Z" class="g1_97"/>
<path fill-rule="evenodd" d="M94.8 1027.6h.8v-.8h-.8v.8Z" class="g1_97"/>
<path fill-rule="evenodd" d="M95.6 1027.6h75.1v-.8H95.6v.8Z" class="g1_97"/>
<path fill-rule="evenodd" d="M170.7 1026.8h.7v-22.7h-.7v22.7Z" class="g1_97"/>
<path fill-rule="evenodd" d="M170.7 1027.6h.7v-.8h-.7v.8Z" class="g1_97"/>
<path fill-rule="evenodd" d="M171.4 1027.6H333v-.8H171.4v.8Z" class="g1_97"/>
<path fill-rule="evenodd" d="M333 1026.8h.7v-22.7H333v22.7Z" class="g1_97"/>
<path fill-rule="evenodd" d="M333 1027.6h.7v-.8H333v.8Z" class="g1_97"/>
<path fill-rule="evenodd" d="M333.7 1027.6H506.3v-.8H333.7v.8Z" class="g1_97"/>
<path fill-rule="evenodd" d="M506.3 1026.8h.7v-22.7h-.7v22.7Z" class="g1_97"/>
<path fill-rule="evenodd" d="M506.3 1027.6h.7v-.8h-.7v.8Z" class="g1_97"/>
<path fill-rule="evenodd" d="M507 1027.6H658.1v-.8H507v.8Z" class="g1_97"/>
<path fill-rule="evenodd" d="M658.1 1026.8h.7v-22.7h-.7v22.7Z" class="g1_97"/>
<path fill-rule="evenodd" d="M658.1 1027.6h.7v-.8h-.7v.8Z" class="g1_97"/>
<path fill-rule="evenodd" d="M658.8 1027.6H820.4v-.8H658.8v.8Z" class="g1_97"/>
<path fill-rule="evenodd" d="M820.4 1026.8h.7v-22.7h-.7v22.7Z" class="g1_97"/>
<path fill-rule="evenodd" d="M820.4 1027.6h.7v-.8h-.7v.8Z" class="g1_97"/>
<path fill-rule="evenodd" d="M820.4 1027.6h.7v-.8h-.7v.8Z" class="g1_97"/>
</svg>