<?xml version="1.0" encoding="UTF-8" standalone="no"?>
<!DOCTYPE svg PUBLIC "-//W3C//DTD SVG 1.1//EN"
"http://www.w3.org/Graphics/SVG/1.1/DTD/svg11.dtd">
<svg viewBox="0 0 909 1286" version="1.1" xmlns="http://www.w3.org/2000/svg" xmlns:xlink="http://www.w3.org/1999/xlink">
<defs>
<clipPath id="c0_118"><path d="M426.2 1230v-33.3H479V1230Z"/></clipPath>
<style type="text/css"><![CDATA[
.g0_118{
fill: #4472C4;
}
.g1_118{
fill: #000;
}
]]></style>
</defs>
<path fill-rule="evenodd" d="M49.7 1181.5H855.4v-1.1H49.7v1.1Z" class="g0_118"/>
<image clip-path="url(#c0_118)" preserveAspectRatio="none" x="426" y="1197" width="53" height="33" xlink:href="img/1.png"/>
<path fill-rule="evenodd" d="M142.9 76.4h.7v-.7h-.7v.7Z" class="g1_118"/>
<path fill-rule="evenodd" d="M142.9 76.4h.7v-.7h-.7v.7Z" class="g1_118"/>
<path fill-rule="evenodd" d="M143.6 76.4H447.2v-.7H143.6v.7Z" class="g1_118"/>
<path fill-rule="evenodd" d="M447.2 76.4h.8v-.7h-.8v.7Z" class="g1_118"/>
<path fill-rule="evenodd" d="M448 76.4H749.3v-.7H448v.7Z" class="g1_118"/>
<path fill-rule="evenodd" d="M749.3 76.4h.7v-.7h-.7v.7Z" class="g1_118"/>
<path fill-rule="evenodd" d="M749.3 76.4h.7v-.7h-.7v.7Z" class="g1_118"/>
<path fill-rule="evenodd" d="M142.9 138.1h.7V76.4h-.7v61.7Z" class="g1_118"/>
<path fill-rule="evenodd" d="M142.9 138.8h.7v-.7h-.7v.7Z" class="g1_118"/>
<path fill-rule="evenodd" d="M142.9 138.8h.7v-.7h-.7v.7Z" class="g1_118"/>
<path fill-rule="evenodd" d="M143.6 138.8H447.2v-.7H143.6v.7Z" class="g1_118"/>
<path fill-rule="evenodd" d="M447.2 138.1h.8V76.4h-.8v61.7Z" class="g1_118"/>
<path fill-rule="evenodd" d="M447.2 138.8h.8v-.7h-.8v.7Z" class="g1_118"/>
<path fill-rule="evenodd" d="M448 138.8H749.3v-.7H448v.7Z" class="g1_118"/>
<path fill-rule="evenodd" d="M749.3 138.1h.7V76.4h-.7v61.7Z" class="g1_118"/>
<path fill-rule="evenodd" d="M749.3 138.8h.7v-.7h-.7v.7Z" class="g1_118"/>
<path fill-rule="evenodd" d="M749.3 138.8h.7v-.7h-.7v.7Z" class="g1_118"/>
</svg>