<?xml version="1.0" encoding="UTF-8" standalone="no"?>
<!DOCTYPE svg PUBLIC "-//W3C//DTD SVG 1.1//EN"
"http://www.w3.org/Graphics/SVG/1.1/DTD/svg11.dtd">
<svg viewBox="0 0 909 1286" version="1.1" xmlns="http://www.w3.org/2000/svg" xmlns:xlink="http://www.w3.org/1999/xlink">
<defs>
<clipPath id="c0_78"><path d="M421.9 1209.8v-33.3h52.7v33.3Z"/></clipPath>
<clipPath id="c1_78"><path d="M142.1 563V436.2H700.5V563Z"/></clipPath>
<style type="text/css"><![CDATA[
.g0_78{
fill: #4472C4;
}
.g1_78{
fill: #000;
}
]]></style>
</defs>
<path fill-rule="evenodd" d="M49.7 88.9H836.2v-.7H49.7v.7Z" class="g0_78"/>
<path fill-rule="evenodd" d="M49.7 1161.4H836.2v-1.1H49.7v1.1Z" class="g0_78"/>
<image clip-path="url(#c0_78)" preserveAspectRatio="none" x="422" y="1176" width="53" height="34" xlink:href="img/1.png"/>
<path fill-rule="evenodd" d="M161.9 110.4h.7v-.8h-.7v.8Z" class="g1_78"/>
<path fill-rule="evenodd" d="M161.9 110.4h.7v-.8h-.7v.8Z" class="g1_78"/>
<path fill-rule="evenodd" d="M162.6 110.4H742.3v-.8H162.6v.8Z" class="g1_78"/>
<path fill-rule="evenodd" d="M742.3 110.4h.7v-.8h-.7v.8Z" class="g1_78"/>
<path fill-rule="evenodd" d="M742.3 110.4h.7v-.8h-.7v.8Z" class="g1_78"/>
<path fill-rule="evenodd" d="M161.9 133.3h.7V110.4h-.7v22.9Z" class="g1_78"/>
<path fill-rule="evenodd" d="M742.3 133.3h.7V110.4h-.7v22.9Z" class="g1_78"/>
<path fill-rule="evenodd" d="M161.9 134h.7v-.7h-.7v.7Z" class="g1_78"/>
<path fill-rule="evenodd" d="M161.9 134h.7v-.7h-.7v.7Z" class="g1_78"/>
<path fill-rule="evenodd" d="M162.6 134H742.3v-.7H162.6v.7Z" class="g1_78"/>
<path fill-rule="evenodd" d="M742.3 134h.7v-.7h-.7v.7Z" class="g1_78"/>
<path fill-rule="evenodd" d="M742.3 134h.7v-.7h-.7v.7Z" class="g1_78"/>
<path fill-rule="evenodd" d="M216.9 157.5h.7v-.7h-.7v.7Z" class="g1_78"/>
<path fill-rule="evenodd" d="M216.9 157.5h.7v-.7h-.7v.7Z" class="g1_78"/>
<path fill-rule="evenodd" d="M217.6 157.5H700.8v-.7H217.6v.7Z" class="g1_78"/>
<path fill-rule="evenodd" d="M700.9 157.5h.7v-.7h-.7v.7Z" class="g1_78"/>
<path fill-rule="evenodd" d="M700.9 157.5h.7v-.7h-.7v.7Z" class="g1_78"/>
<path fill-rule="evenodd" d="M216.9 180.8h.7V157.5h-.7v23.3Z" class="g1_78"/>
<path fill-rule="evenodd" d="M700.9 180.8h.7V157.5h-.7v23.3Z" class="g1_78"/>
<path fill-rule="evenodd" d="M216.9 181.5h.7v-.7h-.7v.7Z" class="g1_78"/>
<path fill-rule="evenodd" d="M216.9 181.5h.7v-.7h-.7v.7Z" class="g1_78"/>
<path fill-rule="evenodd" d="M217.6 181.5H700.8v-.7H217.6v.7Z" class="g1_78"/>
<path fill-rule="evenodd" d="M700.9 181.5h.7v-.7h-.7v.7Z" class="g1_78"/>
<path fill-rule="evenodd" d="M700.9 181.5h.7v-.7h-.7v.7Z" class="g1_78"/>
<path fill-rule="evenodd" d="M127.8 182.3h.8v-.8h-.8v.8Z" class="g1_78"/>
<path fill-rule="evenodd" d="M127.8 182.3h.8v-.8h-.8v.8Z" class="g1_78"/>
<path fill-rule="evenodd" d="M128.6 182.3H664.2v-.8H128.6v.8Z" class="g1_78"/>
<path fill-rule="evenodd" d="M664.2 182.3h.7v-.8h-.7v.8Z" class="g1_78"/>
<path fill-rule="evenodd" d="M664.2 182.3h.7v-.8h-.7v.8Z" class="g1_78"/>
<path fill-rule="evenodd" d="M127.8 205.2h.8V182.3h-.8v22.9Z" class="g1_78"/>
<path fill-rule="evenodd" d="M664.2 205.2h.7V182.3h-.7v22.9Z" class="g1_78"/>
<path fill-rule="evenodd" d="M127.8 205.9h.8v-.7h-.8v.7Z" class="g1_78"/>
<path fill-rule="evenodd" d="M127.8 205.9h.8v-.7h-.8v.7Z" class="g1_78"/>
<path fill-rule="evenodd" d="M128.6 205.9H664.2v-.7H128.6v.7Z" class="g1_78"/>
<path fill-rule="evenodd" d="M664.2 205.9h.7v-.7h-.7v.7Z" class="g1_78"/>
<path fill-rule="evenodd" d="M664.2 205.9h.7v-.7h-.7v.7Z" class="g1_78"/>
<path fill-rule="evenodd" d="M169.6 746.8h.7v-.7h-.7v.7Z" class="g1_78"/>
<path fill-rule="evenodd" d="M169.6 746.8h.7v-.7h-.7v.7Z" class="g1_78"/>
<path fill-rule="evenodd" d="M170.3 746.8h552v-.7h-552v.7Z" class="g1_78"/>
<path fill-rule="evenodd" d="M722.3 746.8h.7v-.7h-.7v.7Z" class="g1_78"/>
<path fill-rule="evenodd" d="M722.3 746.8h.7v-.7h-.7v.7Z" class="g1_78"/>
<path fill-rule="evenodd" d="M169.6 769.6h.7V746.8h-.7v22.8Z" class="g1_78"/>
<path fill-rule="evenodd" d="M722.3 769.6h.7V746.8h-.7v22.8Z" class="g1_78"/>
<path fill-rule="evenodd" d="M169.6 770.3h.7v-.7h-.7v.7Z" class="g1_78"/>
<path fill-rule="evenodd" d="M169.6 770.3h.7v-.7h-.7v.7Z" class="g1_78"/>
<path fill-rule="evenodd" d="M170.3 770.3h552v-.7h-552v.7Z" class="g1_78"/>
<path fill-rule="evenodd" d="M722.3 770.3h.7v-.7h-.7v.7Z" class="g1_78"/>
<path fill-rule="evenodd" d="M722.3 770.3h.7v-.7h-.7v.7Z" class="g1_78"/>
<path fill-rule="evenodd" d="M216.9 816.9h.7v-.8h-.7v.8Z" class="g1_78"/>
<path fill-rule="evenodd" d="M216.9 816.9h.7v-.8h-.7v.8Z" class="g1_78"/>
<path fill-rule="evenodd" d="M217.6 816.9H683.4v-.8H217.6v.8Z" class="g1_78"/>
<path fill-rule="evenodd" d="M683.4 816.9h.8v-.8h-.8v.8Z" class="g1_78"/>
<path fill-rule="evenodd" d="M683.4 816.9h.8v-.8h-.8v.8Z" class="g1_78"/>
<path fill-rule="evenodd" d="M216.9 839.6h.7V816.9h-.7v22.7Z" class="g1_78"/>
<path fill-rule="evenodd" d="M683.4 839.6h.8V816.9h-.8v22.7Z" class="g1_78"/>
<path fill-rule="evenodd" d="M216.9 840.3h.7v-.7h-.7v.7Z" class="g1_78"/>
<path fill-rule="evenodd" d="M216.9 840.3h.7v-.7h-.7v.7Z" class="g1_78"/>
<path fill-rule="evenodd" d="M217.6 840.3H683.4v-.7H217.6v.7Z" class="g1_78"/>
<path fill-rule="evenodd" d="M683.4 840.3h.8v-.7h-.8v.7Z" class="g1_78"/>
<path fill-rule="evenodd" d="M683.4 840.3h.8v-.7h-.8v.7Z" class="g1_78"/>
<path fill-rule="evenodd" d="M197.1 841.2h.7v-.7h-.7v.7Z" class="g1_78"/>
<path fill-rule="evenodd" d="M197.1 841.2h.7v-.7h-.7v.7Z" class="g1_78"/>
<path fill-rule="evenodd" d="M197.8 841.2h499v-.7h-499v.7Z" class="g1_78"/>
<path fill-rule="evenodd" d="M696.8 841.2h.8v-.7h-.8v.7Z" class="g1_78"/>
<path fill-rule="evenodd" d="M696.8 841.2h.8v-.7h-.8v.7Z" class="g1_78"/>
<path fill-rule="evenodd" d="M197.1 864h.7V841.2h-.7V864Z" class="g1_78"/>
<path fill-rule="evenodd" d="M696.8 864h.8V841.2h-.8V864Z" class="g1_78"/>
<path fill-rule="evenodd" d="M197.1 864.7h.7V864h-.7v.7Z" class="g1_78"/>
<path fill-rule="evenodd" d="M197.1 864.7h.7V864h-.7v.7Z" class="g1_78"/>
<path fill-rule="evenodd" d="M197.8 864.7h499V864h-499v.7Z" class="g1_78"/>
<path fill-rule="evenodd" d="M696.8 864.7h.8V864h-.8v.7Z" class="g1_78"/>
<path fill-rule="evenodd" d="M696.8 864.7h.8V864h-.8v.7Z" class="g1_78"/>
<image clip-path="url(#c1_78)" preserveAspectRatio="none" x="142" y="436" width="558" height="127" xlink:href="img/2.jpg"/>
</svg>