<?xml version="1.0" encoding="UTF-8" standalone="no"?>
<!DOCTYPE svg PUBLIC "-//W3C//DTD SVG 1.1//EN"
"http://www.w3.org/Graphics/SVG/1.1/DTD/svg11.dtd">
<svg viewBox="0 0 909 1286" version="1.1" xmlns="http://www.w3.org/2000/svg" xmlns:xlink="http://www.w3.org/1999/xlink">
<defs>
<clipPath id="c0_43"><path d="M421.9 1209.8v-33.3h52.7v33.3Z"/></clipPath>
<clipPath id="c1_43"><path d="M19.8 393V353.5H140.7V393Z"/></clipPath>
<clipPath id="c2_43"><path d="M141.4 393V353.5h85.8V393Z"/></clipPath>
<clipPath id="c3_43"><path d="M227.9 393V353.5H346.4V393Z"/></clipPath>
<clipPath id="c4_43"><path d="M347.1 393V353.5h96.7V393Z"/></clipPath>
<clipPath id="c5_43"><path d="M444.7 393V353.5h96.6V393Z"/></clipPath>
<clipPath id="c6_43"><path d="M542 393V353.5H649.5V393Z"/></clipPath>
<clipPath id="c7_43"><path d="M650.4 393V353.5H779.5V393Z"/></clipPath>
<clipPath id="c8_43"><path d="M780.3 393V353.5H887.9V393Z"/></clipPath>
<style type="text/css"><![CDATA[
.g0_43{
fill: #4472C4;
}
.g1_43{
fill: #000;
}
.g2_43{
fill: #C5E0B3;
}
.g3_43{
fill: #FBE4D5;
}
.g4_43{
fill: #D9E2F3;
}
.g5_43{
fill: #FFD966;
}
.g6_43{
fill: #D9D9D9;
}
]]></style>
</defs>
<path fill-rule="evenodd" d="M49.7 88.9H855.8v-.7H49.7v.7Z" class="g0_43"/>
<path fill-rule="evenodd" d="M49.7 1161.4H855.8v-1.1H49.7v1.1Z" class="g0_43"/>
<image clip-path="url(#c0_43)" preserveAspectRatio="none" x="422" y="1176" width="53" height="34" xlink:href="img/1.png"/>
<path fill-rule="evenodd" d="M18.9 133.3h.7v-.7h-.7v.7Z" class="g1_43"/>
<path fill-rule="evenodd" d="M18.9 133.3h.7v-.7h-.7v.7Z" class="g1_43"/>
<path fill-rule="evenodd" d="M19.6 133.3H140.5v-.7H19.6v.7Z" class="g1_43"/>
<path fill-rule="evenodd" d="M140.5 133.3h.7v-.7h-.7v.7Z" class="g1_43"/>
<path fill-rule="evenodd" d="M141.2 133.3h86v-.7h-86v.7Z" class="g1_43"/>
<path fill-rule="evenodd" d="M227.2 133.3h.7v-.7h-.7v.7Z" class="g1_43"/>
<path fill-rule="evenodd" d="M227.9 133.3H346.4v-.7H227.9v.7Z" class="g1_43"/>
<path fill-rule="evenodd" d="M346.4 133.3h.7v-.7h-.7v.7Z" class="g1_43"/>
<path fill-rule="evenodd" d="M347.1 133.3h96.7v-.7H347.1v.7Z" class="g1_43"/>
<path fill-rule="evenodd" d="M443.8 133.3h.7v-.7h-.7v.7Z" class="g1_43"/>
<path fill-rule="evenodd" d="M444.5 133.3h96.6v-.7H444.5v.7Z" class="g1_43"/>
<path fill-rule="evenodd" d="M541.1 133.3h.8v-.7h-.8v.7Z" class="g1_43"/>
<path fill-rule="evenodd" d="M541.9 133.3H649.5v-.7H541.9v.7Z" class="g1_43"/>
<path fill-rule="evenodd" d="M649.5 133.3h.8v-.7h-.8v.7Z" class="g1_43"/>
<path fill-rule="evenodd" d="M650.3 133.3H779.5v-.7H650.3v.7Z" class="g1_43"/>
<path fill-rule="evenodd" d="M779.5 133.3h.8v-.7h-.8v.7Z" class="g1_43"/>
<path fill-rule="evenodd" d="M780.3 133.3H887.7v-.7H780.3v.7Z" class="g1_43"/>
<path fill-rule="evenodd" d="M887.7 133.3h.7v-.7h-.7v.7Z" class="g1_43"/>
<path fill-rule="evenodd" d="M887.7 133.3h.7v-.7h-.7v.7Z" class="g1_43"/>
<path fill-rule="evenodd" d="M18.9 201.9h.7V133.3h-.7v68.6Z" class="g1_43"/>
<path fill-rule="evenodd" d="M140.5 201.9h.7V133.3h-.7v68.6Z" class="g1_43"/>
<path fill-rule="evenodd" d="M227.2 201.9h.7V133.3h-.7v68.6Z" class="g1_43"/>
<path fill-rule="evenodd" d="M346.4 201.9h.7V133.3h-.7v68.6Z" class="g1_43"/>
<path fill-rule="evenodd" d="M443.8 201.9h.7V133.3h-.7v68.6Z" class="g1_43"/>
<path fill-rule="evenodd" d="M541.1 201.9h.8V133.3h-.8v68.6Z" class="g1_43"/>
<path fill-rule="evenodd" d="M649.5 201.9h.8V133.3h-.8v68.6Z" class="g1_43"/>
<path fill-rule="evenodd" d="M779.5 201.9h.8V133.3h-.8v68.6Z" class="g1_43"/>
<path fill-rule="evenodd" d="M887.7 201.9h.7V133.3h-.7v68.6Z" class="g1_43"/>
<path fill-rule="evenodd" d="M19.8 271H140.7V202.6H19.8V271Z" class="g2_43"/>
<path fill-rule="evenodd" d="M27.7 225.3H132.8V202.6H27.7v22.7Z" class="g2_43"/>
<path fill-rule="evenodd" d="M141.4 271h85.8V202.6H141.4V271Z" class="g2_43"/>
<path fill-rule="evenodd" d="M149.3 225.3h70V202.6h-70v22.7Z" class="g2_43"/>
<path fill-rule="evenodd" d="M227.9 271H346.4V202.6H227.9V271Z" class="g2_43"/>
<path fill-rule="evenodd" d="M235.8 225.3H338.5V202.6H235.8v22.7Z" class="g2_43"/>
<path fill-rule="evenodd" d="M347.1 271h96.7V202.6H347.1V271Z" class="g2_43"/>
<path fill-rule="evenodd" d="M355 225.3h80.9V202.6H355v22.7Z" class="g2_43"/>
<path fill-rule="evenodd" d="M444.7 271h96.6V202.6H444.7V271Z" class="g2_43"/>
<path fill-rule="evenodd" d="M452.4 225.3h81V202.6h-81v22.7Z" class="g2_43"/>
<path fill-rule="evenodd" d="M542 271H649.5V202.6H542V271Z" class="g2_43"/>
<path fill-rule="evenodd" d="M549.9 225.3h91.9V202.6H549.9v22.7Z" class="g2_43"/>
<path fill-rule="evenodd" d="M549.9 248.3h91.9v-23H549.9v23Z" class="g2_43"/>
<path fill-rule="evenodd" d="M549.9 271h91.9V248.3H549.9V271Z" class="g2_43"/>
<path fill-rule="evenodd" d="M650.4 271H779.5V202.6H650.4V271Z" class="g2_43"/>
<path fill-rule="evenodd" d="M658.3 225.3H771.7V202.6H658.3v22.7Z" class="g2_43"/>
<path fill-rule="evenodd" d="M780.3 271H887.9V202.6H780.3V271Z" class="g2_43"/>
<path fill-rule="evenodd" d="M788.2 225.3H880V202.6H788.2v22.7Z" class="g2_43"/>
<path fill-rule="evenodd" d="M18.9 202.6h.7v-.7h-.7v.7Z" class="g1_43"/>
<path fill-rule="evenodd" d="M19.6 202.6H140.5v-.7H19.6v.7Z" class="g1_43"/>
<path fill-rule="evenodd" d="M140.5 202.6h.7v-.7h-.7v.7Z" class="g1_43"/>
<path fill-rule="evenodd" d="M141.2 202.6h86v-.7h-86v.7Z" class="g1_43"/>
<path fill-rule="evenodd" d="M227.2 202.6h.7v-.7h-.7v.7Z" class="g1_43"/>
<path fill-rule="evenodd" d="M227.9 202.6H346.4v-.7H227.9v.7Z" class="g1_43"/>
<path fill-rule="evenodd" d="M346.4 202.6h.7v-.7h-.7v.7Z" class="g1_43"/>
<path fill-rule="evenodd" d="M347.1 202.6h96.7v-.7H347.1v.7Z" class="g1_43"/>
<path fill-rule="evenodd" d="M443.8 202.6h.7v-.7h-.7v.7Z" class="g1_43"/>
<path fill-rule="evenodd" d="M444.5 202.6h96.6v-.7H444.5v.7Z" class="g1_43"/>
<path fill-rule="evenodd" d="M541.1 202.6h.8v-.7h-.8v.7Z" class="g1_43"/>
<path fill-rule="evenodd" d="M541.9 202.6H649.5v-.7H541.9v.7Z" class="g1_43"/>
<path fill-rule="evenodd" d="M649.5 202.6h.8v-.7h-.8v.7Z" class="g1_43"/>
<path fill-rule="evenodd" d="M650.3 202.6H779.5v-.7H650.3v.7Z" class="g1_43"/>
<path fill-rule="evenodd" d="M779.5 202.6h.8v-.7h-.8v.7Z" class="g1_43"/>
<path fill-rule="evenodd" d="M780.3 202.6H887.7v-.7H780.3v.7Z" class="g1_43"/>
<path fill-rule="evenodd" d="M887.7 202.6h.7v-.7h-.7v.7Z" class="g1_43"/>
<path fill-rule="evenodd" d="M18.9 271h.7V202.6h-.7V271Z" class="g1_43"/>
<path fill-rule="evenodd" d="M140.5 271h.7V202.6h-.7V271Z" class="g1_43"/>
<path fill-rule="evenodd" d="M227.2 271h.7V202.6h-.7V271Z" class="g1_43"/>
<path fill-rule="evenodd" d="M346.4 271h.7V202.6h-.7V271Z" class="g1_43"/>
<path fill-rule="evenodd" d="M443.8 271h.7V202.6h-.7V271Z" class="g1_43"/>
<path fill-rule="evenodd" d="M541.1 271h.8V202.6h-.8V271Z" class="g1_43"/>
<path fill-rule="evenodd" d="M649.5 271h.8V202.6h-.8V271Z" class="g1_43"/>
<path fill-rule="evenodd" d="M779.5 271h.8V202.6h-.8V271Z" class="g1_43"/>
<path fill-rule="evenodd" d="M887.7 271h.7V202.6h-.7V271Z" class="g1_43"/>
<path fill-rule="evenodd" d="M19.8 311.1H140.7V271.9H19.8v39.2Z" class="g2_43"/>
<path fill-rule="evenodd" d="M27.7 294.6H132.8V271.9H27.7v22.7Z" class="g2_43"/>
<path fill-rule="evenodd" d="M141.4 311.1h85.8V271.9H141.4v39.2Z" class="g2_43"/>
<path fill-rule="evenodd" d="M149.3 294.6h70V271.9h-70v22.7Z" class="g2_43"/>
<path fill-rule="evenodd" d="M227.9 311.1H346.4V271.9H227.9v39.2Z" class="g2_43"/>
<path fill-rule="evenodd" d="M235.8 294.6H338.5V271.9H235.8v22.7Z" class="g2_43"/>
<path fill-rule="evenodd" d="M347.1 311.1h96.7V271.9H347.1v39.2Z" class="g2_43"/>
<path fill-rule="evenodd" d="M355 294.6h80.9V271.9H355v22.7Z" class="g2_43"/>
<path fill-rule="evenodd" d="M444.7 311.1h96.6V271.9H444.7v39.2Z" class="g2_43"/>
<path fill-rule="evenodd" d="M452.4 294.6h81V271.9h-81v22.7Z" class="g2_43"/>
<path fill-rule="evenodd" d="M542 311.1H649.5V271.9H542v39.2Z" class="g2_43"/>
<path fill-rule="evenodd" d="M549.9 294.6h91.9V271.9H549.9v22.7Z" class="g2_43"/>
<path fill-rule="evenodd" d="M650.4 311.1H779.5V271.9H650.4v39.2Z" class="g2_43"/>
<path fill-rule="evenodd" d="M658.3 294.6H771.7V271.9H658.3v22.7Z" class="g2_43"/>
<path fill-rule="evenodd" d="M780.3 311.1H887.9V271.9H780.3v39.2Z" class="g2_43"/>
<path fill-rule="evenodd" d="M788.2 294.6H880V271.9H788.2v22.7Z" class="g2_43"/>
<path fill-rule="evenodd" d="M18.9 271.7h.7V271h-.7v.7Z" class="g1_43"/>
<path fill-rule="evenodd" d="M19.6 271.7H140.5V271H19.6v.7Z" class="g1_43"/>
<path fill-rule="evenodd" d="M140.5 271.7h.7V271h-.7v.7Z" class="g1_43"/>
<path fill-rule="evenodd" d="M141.2 271.7h86V271h-86v.7Z" class="g1_43"/>
<path fill-rule="evenodd" d="M227.2 271.7h.7V271h-.7v.7Z" class="g1_43"/>
<path fill-rule="evenodd" d="M227.9 271.7H346.4V271H227.9v.7Z" class="g1_43"/>
<path fill-rule="evenodd" d="M346.4 271.7h.7V271h-.7v.7Z" class="g1_43"/>
<path fill-rule="evenodd" d="M347.1 271.7h96.7V271H347.1v.7Z" class="g1_43"/>
<path fill-rule="evenodd" d="M443.8 271.7h.7V271h-.7v.7Z" class="g1_43"/>
<path fill-rule="evenodd" d="M444.5 271.7h96.6V271H444.5v.7Z" class="g1_43"/>
<path fill-rule="evenodd" d="M541.1 271.7h.8V271h-.8v.7Z" class="g1_43"/>
<path fill-rule="evenodd" d="M541.9 271.7H649.5V271H541.9v.7Z" class="g1_43"/>
<path fill-rule="evenodd" d="M649.5 271.7h.8V271h-.8v.7Z" class="g1_43"/>
<path fill-rule="evenodd" d="M650.3 271.7H779.5V271H650.3v.7Z" class="g1_43"/>
<path fill-rule="evenodd" d="M779.5 271.7h.8V271h-.8v.7Z" class="g1_43"/>
<path fill-rule="evenodd" d="M780.3 271.7H887.7V271H780.3v.7Z" class="g1_43"/>
<path fill-rule="evenodd" d="M887.7 271.7h.7V271h-.7v.7Z" class="g1_43"/>
<path fill-rule="evenodd" d="M18.9 311.1h.7V271.7h-.7v39.4Z" class="g1_43"/>
<path fill-rule="evenodd" d="M140.5 311.1h.7V271.7h-.7v39.4Z" class="g1_43"/>
<path fill-rule="evenodd" d="M227.2 311.1h.7V271.7h-.7v39.4Z" class="g1_43"/>
<path fill-rule="evenodd" d="M346.4 311.1h.7V271.7h-.7v39.4Z" class="g1_43"/>
<path fill-rule="evenodd" d="M443.8 311.1h.7V271.7h-.7v39.4Z" class="g1_43"/>
<path fill-rule="evenodd" d="M541.1 311.1h.8V271.7h-.8v39.4Z" class="g1_43"/>
<path fill-rule="evenodd" d="M649.5 311.1h.8V271.7h-.8v39.4Z" class="g1_43"/>
<path fill-rule="evenodd" d="M779.5 311.1h.8V271.7h-.8v39.4Z" class="g1_43"/>
<path fill-rule="evenodd" d="M887.7 311.1h.7V271.7h-.7v39.4Z" class="g1_43"/>
<path fill-rule="evenodd" d="M19.8 352.8H140.7V311.9H19.8v40.9Z" class="g2_43"/>
<path fill-rule="evenodd" d="M27.7 334.8H132.8V311.9H27.7v22.9Z" class="g2_43"/>
<path fill-rule="evenodd" d="M141.4 352.8h85.8V311.9H141.4v40.9Z" class="g2_43"/>
<path fill-rule="evenodd" d="M149.3 334.8h70V311.9h-70v22.9Z" class="g2_43"/>
<path fill-rule="evenodd" d="M227.9 352.8H346.4V311.9H227.9v40.9Z" class="g2_43"/>
<path fill-rule="evenodd" d="M235.8 334.8H338.5V311.9H235.8v22.9Z" class="g2_43"/>
<path fill-rule="evenodd" d="M347.1 352.8h96.7V311.9H347.1v40.9Z" class="g2_43"/>
<path fill-rule="evenodd" d="M355 334.8h80.9V311.9H355v22.9Z" class="g2_43"/>
<path fill-rule="evenodd" d="M444.7 352.8h96.6V311.9H444.7v40.9Z" class="g2_43"/>
<path fill-rule="evenodd" d="M452.4 334.8h81V311.9h-81v22.9Z" class="g2_43"/>
<path fill-rule="evenodd" d="M542 352.8H649.5V311.9H542v40.9Z" class="g2_43"/>
<path fill-rule="evenodd" d="M549.9 334.8h91.9V311.9H549.9v22.9Z" class="g2_43"/>
<path fill-rule="evenodd" d="M650.4 352.8H779.5V311.9H650.4v40.9Z" class="g2_43"/>
<path fill-rule="evenodd" d="M658.3 334.8H771.7V311.9H658.3v22.9Z" class="g2_43"/>
<path fill-rule="evenodd" d="M780.3 352.8H887.9V311.9H780.3v40.9Z" class="g2_43"/>
<path fill-rule="evenodd" d="M788.2 334.8H880V311.9H788.2v22.9Z" class="g2_43"/>
<path fill-rule="evenodd" d="M18.9 311.9h.7v-.8h-.7v.8Z" class="g1_43"/>
<path fill-rule="evenodd" d="M19.6 311.9H140.5v-.8H19.6v.8Z" class="g1_43"/>
<path fill-rule="evenodd" d="M140.5 311.9h.7v-.8h-.7v.8Z" class="g1_43"/>
<path fill-rule="evenodd" d="M141.2 311.9h86v-.8h-86v.8Z" class="g1_43"/>
<path fill-rule="evenodd" d="M227.2 311.9h.7v-.8h-.7v.8Z" class="g1_43"/>
<path fill-rule="evenodd" d="M227.9 311.9H346.4v-.8H227.9v.8Z" class="g1_43"/>
<path fill-rule="evenodd" d="M346.4 311.9h.7v-.8h-.7v.8Z" class="g1_43"/>
<path fill-rule="evenodd" d="M347.1 311.9h96.7v-.8H347.1v.8Z" class="g1_43"/>
<path fill-rule="evenodd" d="M443.8 311.9h.7v-.8h-.7v.8Z" class="g1_43"/>
<path fill-rule="evenodd" d="M444.5 311.9h96.6v-.8H444.5v.8Z" class="g1_43"/>
<path fill-rule="evenodd" d="M541.1 311.9h.8v-.8h-.8v.8Z" class="g1_43"/>
<path fill-rule="evenodd" d="M541.9 311.9H649.5v-.8H541.9v.8Z" class="g1_43"/>
<path fill-rule="evenodd" d="M649.5 311.9h.8v-.8h-.8v.8Z" class="g1_43"/>
<path fill-rule="evenodd" d="M650.3 311.9H779.5v-.8H650.3v.8Z" class="g1_43"/>
<path fill-rule="evenodd" d="M779.5 311.9h.8v-.8h-.8v.8Z" class="g1_43"/>
<path fill-rule="evenodd" d="M780.3 311.9H887.7v-.8H780.3v.8Z" class="g1_43"/>
<path fill-rule="evenodd" d="M887.7 311.9h.7v-.8h-.7v.8Z" class="g1_43"/>
<path fill-rule="evenodd" d="M18.9 352.8h.7V311.9h-.7v40.9Z" class="g1_43"/>
<path fill-rule="evenodd" d="M140.5 352.8h.7V311.9h-.7v40.9Z" class="g1_43"/>
<path fill-rule="evenodd" d="M227.2 352.8h.7V311.9h-.7v40.9Z" class="g1_43"/>
<path fill-rule="evenodd" d="M346.4 352.8h.7V311.9h-.7v40.9Z" class="g1_43"/>
<path fill-rule="evenodd" d="M443.8 352.8h.7V311.9h-.7v40.9Z" class="g1_43"/>
<path fill-rule="evenodd" d="M541.1 352.8h.8V311.9h-.8v40.9Z" class="g1_43"/>
<path fill-rule="evenodd" d="M649.5 352.8h.8V311.9h-.8v40.9Z" class="g1_43"/>
<path fill-rule="evenodd" d="M779.5 352.8h.8V311.9h-.8v40.9Z" class="g1_43"/>
<path fill-rule="evenodd" d="M887.7 352.8h.7V311.9h-.7v40.9Z" class="g1_43"/>
<path fill-rule="evenodd" d="M19.8 393H140.7V353.5H19.8V393Z" class="g3_43"/>
<path clip-path="url(#c1_43)" fill-rule="evenodd" d="M27.7 376.4H132.8V353.5H27.7v22.9Z" class="g3_43"/>
<path fill-rule="evenodd" d="M141.4 393h85.8V353.5H141.4V393Z" class="g3_43"/>
<path clip-path="url(#c2_43)" fill-rule="evenodd" d="M149.3 376.4h70V353.5h-70v22.9Z" class="g3_43"/>
<path fill-rule="evenodd" d="M227.9 393H346.4V353.5H227.9V393Z" class="g3_43"/>
<path clip-path="url(#c3_43)" fill-rule="evenodd" d="M235.8 376.4H338.5V353.5H235.8v22.9Z" class="g3_43"/>
<path fill-rule="evenodd" d="M347.1 393h96.7V353.5H347.1V393Z" class="g3_43"/>
<path clip-path="url(#c4_43)" fill-rule="evenodd" d="M355 376.4h80.9V353.5H355v22.9Z" class="g3_43"/>
<path fill-rule="evenodd" d="M444.7 393h96.6V353.5H444.7V393Z" class="g3_43"/>
<path clip-path="url(#c5_43)" fill-rule="evenodd" d="M452.4 376.4h81V353.5h-81v22.9Z" class="g3_43"/>
<path fill-rule="evenodd" d="M542 393H649.5V353.5H542V393Z" class="g3_43"/>
<path clip-path="url(#c6_43)" fill-rule="evenodd" d="M549.9 376.4h91.9V353.5H549.9v22.9Z" class="g3_43"/>
<path fill-rule="evenodd" d="M650.4 393H779.5V353.5H650.4V393Z" class="g3_43"/>
<path clip-path="url(#c7_43)" fill-rule="evenodd" d="M658.3 376.4H771.7V353.5H658.3v22.9Z" class="g3_43"/>
<path fill-rule="evenodd" d="M780.3 393H887.9V353.5H780.3V393Z" class="g3_43"/>
<path clip-path="url(#c8_43)" fill-rule="evenodd" d="M788.2 376.4H880V353.5H788.2v22.9Z" class="g3_43"/>
<path fill-rule="evenodd" d="M18.9 353.5h.7v-.7h-.7v.7Z" class="g1_43"/>
<path fill-rule="evenodd" d="M19.6 353.5H140.5v-.7H19.6v.7Z" class="g1_43"/>
<path fill-rule="evenodd" d="M140.5 353.5h.7v-.7h-.7v.7Z" class="g1_43"/>
<path fill-rule="evenodd" d="M141.2 353.5h86v-.7h-86v.7Z" class="g1_43"/>
<path fill-rule="evenodd" d="M227.2 353.5h.7v-.7h-.7v.7Z" class="g1_43"/>
<path fill-rule="evenodd" d="M227.9 353.5H346.4v-.7H227.9v.7Z" class="g1_43"/>
<path fill-rule="evenodd" d="M346.4 353.5h.7v-.7h-.7v.7Z" class="g1_43"/>
<path fill-rule="evenodd" d="M347.1 353.5h96.7v-.7H347.1v.7Z" class="g1_43"/>
<path fill-rule="evenodd" d="M443.8 353.5h.7v-.7h-.7v.7Z" class="g1_43"/>
<path fill-rule="evenodd" d="M444.5 353.5h96.6v-.7H444.5v.7Z" class="g1_43"/>
<path fill-rule="evenodd" d="M541.1 353.5h.8v-.7h-.8v.7Z" class="g1_43"/>
<path fill-rule="evenodd" d="M541.9 353.5H649.5v-.7H541.9v.7Z" class="g1_43"/>
<path fill-rule="evenodd" d="M649.5 353.5h.8v-.7h-.8v.7Z" class="g1_43"/>
<path fill-rule="evenodd" d="M650.3 353.5H779.5v-.7H650.3v.7Z" class="g1_43"/>
<path fill-rule="evenodd" d="M779.5 353.5h.8v-.7h-.8v.7Z" class="g1_43"/>
<path fill-rule="evenodd" d="M780.3 353.5H887.7v-.7H780.3v.7Z" class="g1_43"/>
<path fill-rule="evenodd" d="M887.7 353.5h.7v-.7h-.7v.7Z" class="g1_43"/>
<path fill-rule="evenodd" d="M18.9 393h.7V353.5h-.7V393Z" class="g1_43"/>
<path fill-rule="evenodd" d="M140.5 393h.7V353.5h-.7V393Z" class="g1_43"/>
<path fill-rule="evenodd" d="M227.2 393h.7V353.5h-.7V393Z" class="g1_43"/>
<path fill-rule="evenodd" d="M346.4 393h.7V353.5h-.7V393Z" class="g1_43"/>
<path fill-rule="evenodd" d="M443.8 393h.7V353.5h-.7V393Z" class="g1_43"/>
<path fill-rule="evenodd" d="M541.1 393h.8V353.5h-.8V393Z" class="g1_43"/>
<path fill-rule="evenodd" d="M649.5 393h.8V353.5h-.8V393Z" class="g1_43"/>
<path fill-rule="evenodd" d="M779.5 393h.8V353.5h-.8V393Z" class="g1_43"/>
<path fill-rule="evenodd" d="M887.7 393h.7V353.5h-.7V393Z" class="g1_43"/>
<path fill-rule="evenodd" d="M19.8 439.3H140.7V393.7H19.8v45.6Z" class="g3_43"/>
<path fill-rule="evenodd" d="M27.7 416.4H132.8V393.7H27.7v22.7Z" class="g3_43"/>
<path fill-rule="evenodd" d="M27.7 439.3H132.8V416.4H27.7v22.9Z" class="g3_43"/>
<path fill-rule="evenodd" d="M141.4 439.3h85.8V393.7H141.4v45.6Z" class="g3_43"/>
<path fill-rule="evenodd" d="M149.3 416.4h70V393.7h-70v22.7Z" class="g3_43"/>
<path fill-rule="evenodd" d="M227.9 439.3H346.4V393.7H227.9v45.6Z" class="g3_43"/>
<path fill-rule="evenodd" d="M235.8 416.4H338.5V393.7H235.8v22.7Z" class="g3_43"/>
<path fill-rule="evenodd" d="M347.1 439.3h96.7V393.7H347.1v45.6Z" class="g3_43"/>
<path fill-rule="evenodd" d="M355 416.4h80.9V393.7H355v22.7Z" class="g3_43"/>
<path fill-rule="evenodd" d="M444.7 439.3h96.6V393.7H444.7v45.6Z" class="g3_43"/>
<path fill-rule="evenodd" d="M452.4 416.4h81V393.7h-81v22.7Z" class="g3_43"/>
<path fill-rule="evenodd" d="M542 439.3H649.5V393.7H542v45.6Z" class="g3_43"/>
<path fill-rule="evenodd" d="M549.9 416.4h91.9V393.7H549.9v22.7Z" class="g3_43"/>
<path fill-rule="evenodd" d="M650.4 439.3H779.5V393.7H650.4v45.6Z" class="g3_43"/>
<path fill-rule="evenodd" d="M658.3 416.4H771.7V393.7H658.3v22.7Z" class="g3_43"/>
<path fill-rule="evenodd" d="M780.3 439.3H887.9V393.7H780.3v45.6Z" class="g3_43"/>
<path fill-rule="evenodd" d="M788.2 416.4H880V393.7H788.2v22.7Z" class="g3_43"/>
<path fill-rule="evenodd" d="M18.9 393.7h.7V393h-.7v.7Z" class="g1_43"/>
<path fill-rule="evenodd" d="M19.6 393.7H140.5V393H19.6v.7Z" class="g1_43"/>
<path fill-rule="evenodd" d="M140.5 393.7h.7V393h-.7v.7Z" class="g1_43"/>
<path fill-rule="evenodd" d="M141.2 393.7h86V393h-86v.7Z" class="g1_43"/>
<path fill-rule="evenodd" d="M227.2 393.7h.7V393h-.7v.7Z" class="g1_43"/>
<path fill-rule="evenodd" d="M227.9 393.7H346.4V393H227.9v.7Z" class="g1_43"/>
<path fill-rule="evenodd" d="M346.4 393.7h.7V393h-.7v.7Z" class="g1_43"/>
<path fill-rule="evenodd" d="M347.1 393.7h96.7V393H347.1v.7Z" class="g1_43"/>
<path fill-rule="evenodd" d="M443.8 393.7h.7V393h-.7v.7Z" class="g1_43"/>
<path fill-rule="evenodd" d="M444.5 393.7h96.6V393H444.5v.7Z" class="g1_43"/>
<path fill-rule="evenodd" d="M541.1 393.7h.8V393h-.8v.7Z" class="g1_43"/>
<path fill-rule="evenodd" d="M541.9 393.7H649.5V393H541.9v.7Z" class="g1_43"/>
<path fill-rule="evenodd" d="M649.5 393.7h.8V393h-.8v.7Z" class="g1_43"/>
<path fill-rule="evenodd" d="M650.3 393.7H779.5V393H650.3v.7Z" class="g1_43"/>
<path fill-rule="evenodd" d="M779.5 393.7h.8V393h-.8v.7Z" class="g1_43"/>
<path fill-rule="evenodd" d="M780.3 393.7H887.7V393H780.3v.7Z" class="g1_43"/>
<path fill-rule="evenodd" d="M887.7 393.7h.7V393h-.7v.7Z" class="g1_43"/>
<path fill-rule="evenodd" d="M18.9 439.3h.7V393.7h-.7v45.6Z" class="g1_43"/>
<path fill-rule="evenodd" d="M140.5 439.3h.7V393.7h-.7v45.6Z" class="g1_43"/>
<path fill-rule="evenodd" d="M227.2 439.3h.7V393.7h-.7v45.6Z" class="g1_43"/>
<path fill-rule="evenodd" d="M346.4 439.3h.7V393.7h-.7v45.6Z" class="g1_43"/>
<path fill-rule="evenodd" d="M443.8 439.3h.7V393.7h-.7v45.6Z" class="g1_43"/>
<path fill-rule="evenodd" d="M541.1 439.3h.8V393.7h-.8v45.6Z" class="g1_43"/>
<path fill-rule="evenodd" d="M649.5 439.3h.8V393.7h-.8v45.6Z" class="g1_43"/>
<path fill-rule="evenodd" d="M779.5 439.3h.8V393.7h-.8v45.6Z" class="g1_43"/>
<path fill-rule="evenodd" d="M887.7 439.3h.7V393.7h-.7v45.6Z" class="g1_43"/>
<path fill-rule="evenodd" d="M19.8 485.7H140.7V440.1H19.8v45.6Z" class="g3_43"/>
<path fill-rule="evenodd" d="M27.7 463H132.8V440.1H27.7V463Z" class="g3_43"/>
<path fill-rule="evenodd" d="M141.4 485.7h85.8V440.1H141.4v45.6Z" class="g3_43"/>
<path fill-rule="evenodd" d="M149.3 463h70V440.1h-70V463Z" class="g3_43"/>
<path fill-rule="evenodd" d="M227.9 485.7H346.4V440.1H227.9v45.6Z" class="g3_43"/>
<path fill-rule="evenodd" d="M235.8 463H338.5V440.1H235.8V463Z" class="g3_43"/>
<path fill-rule="evenodd" d="M347.1 485.7h96.7V440.1H347.1v45.6Z" class="g3_43"/>
<path fill-rule="evenodd" d="M355 463h80.9V440.1H355V463Z" class="g3_43"/>
<path fill-rule="evenodd" d="M444.7 485.7h96.6V440.1H444.7v45.6Z" class="g3_43"/>
<path fill-rule="evenodd" d="M452.4 463h81V440.1h-81V463Z" class="g3_43"/>
<path fill-rule="evenodd" d="M542 485.7H649.5V440.1H542v45.6Z" class="g3_43"/>
<path fill-rule="evenodd" d="M549.9 463h91.9V440.1H549.9V463Z" class="g3_43"/>
<path fill-rule="evenodd" d="M549.9 485.7h91.9V463H549.9v22.7Z" class="g3_43"/>
<path fill-rule="evenodd" d="M650.4 485.7H779.5V440.1H650.4v45.6Z" class="g3_43"/>
<path fill-rule="evenodd" d="M658.3 463H771.7V440.1H658.3V463Z" class="g3_43"/>
<path fill-rule="evenodd" d="M780.3 485.7H887.9V440.1H780.3v45.6Z" class="g3_43"/>
<path fill-rule="evenodd" d="M788.2 463H880V440.1H788.2V463Z" class="g3_43"/>
<path fill-rule="evenodd" d="M18.9 440.1h.7v-.8h-.7v.8Z" class="g1_43"/>
<path fill-rule="evenodd" d="M19.6 440.1H140.5v-.8H19.6v.8Z" class="g1_43"/>
<path fill-rule="evenodd" d="M140.5 440.1h.7v-.8h-.7v.8Z" class="g1_43"/>
<path fill-rule="evenodd" d="M141.2 440.1h86v-.8h-86v.8Z" class="g1_43"/>
<path fill-rule="evenodd" d="M227.2 440.1h.7v-.8h-.7v.8Z" class="g1_43"/>
<path fill-rule="evenodd" d="M227.9 440.1H346.4v-.8H227.9v.8Z" class="g1_43"/>
<path fill-rule="evenodd" d="M346.4 440.1h.7v-.8h-.7v.8Z" class="g1_43"/>
<path fill-rule="evenodd" d="M347.1 440.1h96.7v-.8H347.1v.8Z" class="g1_43"/>
<path fill-rule="evenodd" d="M443.8 440.1h.7v-.8h-.7v.8Z" class="g1_43"/>
<path fill-rule="evenodd" d="M444.5 440.1h96.6v-.8H444.5v.8Z" class="g1_43"/>
<path fill-rule="evenodd" d="M541.1 440.1h.8v-.8h-.8v.8Z" class="g1_43"/>
<path fill-rule="evenodd" d="M541.9 440.1H649.5v-.8H541.9v.8Z" class="g1_43"/>
<path fill-rule="evenodd" d="M649.5 440.1h.8v-.8h-.8v.8Z" class="g1_43"/>
<path fill-rule="evenodd" d="M650.3 440.1H779.5v-.8H650.3v.8Z" class="g1_43"/>
<path fill-rule="evenodd" d="M779.5 440.1h.8v-.8h-.8v.8Z" class="g1_43"/>
<path fill-rule="evenodd" d="M780.3 440.1H887.7v-.8H780.3v.8Z" class="g1_43"/>
<path fill-rule="evenodd" d="M887.7 440.1h.7v-.8h-.7v.8Z" class="g1_43"/>
<path fill-rule="evenodd" d="M18.9 485.7h.7V440.1h-.7v45.6Z" class="g1_43"/>
<path fill-rule="evenodd" d="M140.5 485.7h.7V440.1h-.7v45.6Z" class="g1_43"/>
<path fill-rule="evenodd" d="M227.2 485.7h.7V440.1h-.7v45.6Z" class="g1_43"/>
<path fill-rule="evenodd" d="M346.4 485.7h.7V440.1h-.7v45.6Z" class="g1_43"/>
<path fill-rule="evenodd" d="M443.8 485.7h.7V440.1h-.7v45.6Z" class="g1_43"/>
<path fill-rule="evenodd" d="M541.1 485.7h.8V440.1h-.8v45.6Z" class="g1_43"/>
<path fill-rule="evenodd" d="M649.5 485.7h.8V440.1h-.8v45.6Z" class="g1_43"/>
<path fill-rule="evenodd" d="M779.5 485.7h.8V440.1h-.8v45.6Z" class="g1_43"/>
<path fill-rule="evenodd" d="M887.7 485.7h.7V440.1h-.7v45.6Z" class="g1_43"/>
<path fill-rule="evenodd" d="M19.8 527.5H140.7v-41H19.8v41Z" class="g3_43"/>
<path fill-rule="evenodd" d="M27.7 509.4H132.8V486.5H27.7v22.9Z" class="g3_43"/>
<path fill-rule="evenodd" d="M141.4 527.5h85.8v-41H141.4v41Z" class="g3_43"/>
<path fill-rule="evenodd" d="M149.3 509.4h70V486.5h-70v22.9Z" class="g3_43"/>
<path fill-rule="evenodd" d="M227.9 527.5H346.4v-41H227.9v41Z" class="g3_43"/>
<path fill-rule="evenodd" d="M235.8 509.4H338.5V486.5H235.8v22.9Z" class="g3_43"/>
<path fill-rule="evenodd" d="M347.1 527.5h96.7v-41H347.1v41Z" class="g3_43"/>
<path fill-rule="evenodd" d="M355 509.4h80.9V486.5H355v22.9Z" class="g3_43"/>
<path fill-rule="evenodd" d="M444.7 527.5h96.6v-41H444.7v41Z" class="g3_43"/>
<path fill-rule="evenodd" d="M452.4 509.4h81V486.5h-81v22.9Z" class="g3_43"/>
<path fill-rule="evenodd" d="M542 527.5H649.5v-41H542v41Z" class="g3_43"/>
<path fill-rule="evenodd" d="M549.9 509.4h91.9V486.5H549.9v22.9Z" class="g3_43"/>
<path fill-rule="evenodd" d="M650.4 527.5H779.5v-41H650.4v41Z" class="g3_43"/>
<path fill-rule="evenodd" d="M658.3 509.4H771.7V486.5H658.3v22.9Z" class="g3_43"/>
<path fill-rule="evenodd" d="M780.3 527.5H887.9v-41H780.3v41Z" class="g3_43"/>
<path fill-rule="evenodd" d="M788.2 509.4H880V486.5H788.2v22.9Z" class="g3_43"/>
<path fill-rule="evenodd" d="M18.9 486.5h.7v-.8h-.7v.8Z" class="g1_43"/>
<path fill-rule="evenodd" d="M19.6 486.5H140.5v-.8H19.6v.8Z" class="g1_43"/>
<path fill-rule="evenodd" d="M140.5 486.5h.7v-.8h-.7v.8Z" class="g1_43"/>
<path fill-rule="evenodd" d="M141.2 486.5h86v-.8h-86v.8Z" class="g1_43"/>
<path fill-rule="evenodd" d="M227.2 486.5h.7v-.8h-.7v.8Z" class="g1_43"/>
<path fill-rule="evenodd" d="M227.9 486.5H346.4v-.8H227.9v.8Z" class="g1_43"/>
<path fill-rule="evenodd" d="M346.4 486.5h.7v-.8h-.7v.8Z" class="g1_43"/>
<path fill-rule="evenodd" d="M347.1 486.5h96.7v-.8H347.1v.8Z" class="g1_43"/>
<path fill-rule="evenodd" d="M443.8 486.5h.7v-.8h-.7v.8Z" class="g1_43"/>
<path fill-rule="evenodd" d="M444.5 486.5h96.6v-.8H444.5v.8Z" class="g1_43"/>
<path fill-rule="evenodd" d="M541.1 486.5h.8v-.8h-.8v.8Z" class="g1_43"/>
<path fill-rule="evenodd" d="M541.9 486.5H649.5v-.8H541.9v.8Z" class="g1_43"/>
<path fill-rule="evenodd" d="M649.5 486.5h.8v-.8h-.8v.8Z" class="g1_43"/>
<path fill-rule="evenodd" d="M650.3 486.5H779.5v-.8H650.3v.8Z" class="g1_43"/>
<path fill-rule="evenodd" d="M779.5 486.5h.8v-.8h-.8v.8Z" class="g1_43"/>
<path fill-rule="evenodd" d="M780.3 486.5H887.7v-.8H780.3v.8Z" class="g1_43"/>
<path fill-rule="evenodd" d="M887.7 486.5h.7v-.8h-.7v.8Z" class="g1_43"/>
<path fill-rule="evenodd" d="M18.9 527.5h.7v-41h-.7v41Z" class="g1_43"/>
<path fill-rule="evenodd" d="M140.5 527.5h.7v-41h-.7v41Z" class="g1_43"/>
<path fill-rule="evenodd" d="M227.2 527.5h.7v-41h-.7v41Z" class="g1_43"/>
<path fill-rule="evenodd" d="M346.4 527.5h.7v-41h-.7v41Z" class="g1_43"/>
<path fill-rule="evenodd" d="M443.8 527.5h.7v-41h-.7v41Z" class="g1_43"/>
<path fill-rule="evenodd" d="M541.1 527.5h.8v-41h-.8v41Z" class="g1_43"/>
<path fill-rule="evenodd" d="M649.5 527.5h.8v-41h-.8v41Z" class="g1_43"/>
<path fill-rule="evenodd" d="M779.5 527.5h.8v-41h-.8v41Z" class="g1_43"/>
<path fill-rule="evenodd" d="M887.7 527.5h.7v-41h-.7v41Z" class="g1_43"/>
<path fill-rule="evenodd" d="M19.8 575.4H140.7V528.3H19.8v47.1Z" class="g4_43"/>
<path fill-rule="evenodd" d="M27.7 551.2H132.8V528.3H27.7v22.9Z" class="g4_43"/>
<path fill-rule="evenodd" d="M141.4 575.4h85.8V528.3H141.4v47.1Z" class="g4_43"/>
<path fill-rule="evenodd" d="M149.3 551.2h70V528.3h-70v22.9Z" class="g4_43"/>
<path fill-rule="evenodd" d="M227.9 575.4H346.4V528.3H227.9v47.1Z" class="g4_43"/>
<path fill-rule="evenodd" d="M235.8 551.2H338.5V528.3H235.8v22.9Z" class="g4_43"/>
<path fill-rule="evenodd" d="M347.1 575.4h96.7V528.3H347.1v47.1Z" class="g4_43"/>
<path fill-rule="evenodd" d="M355 551.2h80.9V528.3H355v22.9Z" class="g4_43"/>
<path fill-rule="evenodd" d="M355 573.9h80.9V551.2H355v22.7Z" class="g4_43"/>
<path fill-rule="evenodd" d="M444.7 575.4h96.6V528.3H444.7v47.1Z" class="g4_43"/>
<path fill-rule="evenodd" d="M452.4 551.2h81V528.3h-81v22.9Z" class="g4_43"/>
<path fill-rule="evenodd" d="M542 575.4H649.5V528.3H542v47.1Z" class="g4_43"/>
<path fill-rule="evenodd" d="M549.9 551.2h91.9V528.3H549.9v22.9Z" class="g4_43"/>
<path fill-rule="evenodd" d="M650.4 575.4H779.5V528.3H650.4v47.1Z" class="g4_43"/>
<path fill-rule="evenodd" d="M658.3 551.2H771.7V528.3H658.3v22.9Z" class="g4_43"/>
<path fill-rule="evenodd" d="M780.3 575.4H887.9V528.3H780.3v47.1Z" class="g4_43"/>
<path fill-rule="evenodd" d="M788.2 551.2H880V528.3H788.2v22.9Z" class="g4_43"/>
<path fill-rule="evenodd" d="M18.9 528.3h.7v-.8h-.7v.8Z" class="g1_43"/>
<path fill-rule="evenodd" d="M19.6 528.3H140.5v-.8H19.6v.8Z" class="g1_43"/>
<path fill-rule="evenodd" d="M140.5 528.3h.7v-.8h-.7v.8Z" class="g1_43"/>
<path fill-rule="evenodd" d="M141.2 528.3h86v-.8h-86v.8Z" class="g1_43"/>
<path fill-rule="evenodd" d="M227.2 528.3h.7v-.8h-.7v.8Z" class="g1_43"/>
<path fill-rule="evenodd" d="M227.9 528.3H346.4v-.8H227.9v.8Z" class="g1_43"/>
<path fill-rule="evenodd" d="M346.4 528.3h.7v-.8h-.7v.8Z" class="g1_43"/>
<path fill-rule="evenodd" d="M347.1 528.3h96.7v-.8H347.1v.8Z" class="g1_43"/>
<path fill-rule="evenodd" d="M443.8 528.3h.7v-.8h-.7v.8Z" class="g1_43"/>
<path fill-rule="evenodd" d="M444.5 528.3h96.6v-.8H444.5v.8Z" class="g1_43"/>
<path fill-rule="evenodd" d="M541.1 528.3h.8v-.8h-.8v.8Z" class="g1_43"/>
<path fill-rule="evenodd" d="M541.9 528.3H649.5v-.8H541.9v.8Z" class="g1_43"/>
<path fill-rule="evenodd" d="M649.5 528.3h.8v-.8h-.8v.8Z" class="g1_43"/>
<path fill-rule="evenodd" d="M650.3 528.3H779.5v-.8H650.3v.8Z" class="g1_43"/>
<path fill-rule="evenodd" d="M779.5 528.3h.8v-.8h-.8v.8Z" class="g1_43"/>
<path fill-rule="evenodd" d="M780.3 528.3H887.7v-.8H780.3v.8Z" class="g1_43"/>
<path fill-rule="evenodd" d="M887.7 528.3h.7v-.8h-.7v.8Z" class="g1_43"/>
<path fill-rule="evenodd" d="M18.9 575.4h.7V528.3h-.7v47.1Z" class="g1_43"/>
<path fill-rule="evenodd" d="M140.5 575.4h.7V528.3h-.7v47.1Z" class="g1_43"/>
<path fill-rule="evenodd" d="M227.2 575.4h.7V528.3h-.7v47.1Z" class="g1_43"/>
<path fill-rule="evenodd" d="M346.4 575.4h.7V528.3h-.7v47.1Z" class="g1_43"/>
<path fill-rule="evenodd" d="M443.8 575.4h.7V528.3h-.7v47.1Z" class="g1_43"/>
<path fill-rule="evenodd" d="M541.1 575.4h.8V528.3h-.8v47.1Z" class="g1_43"/>
<path fill-rule="evenodd" d="M649.5 575.4h.8V528.3h-.8v47.1Z" class="g1_43"/>
<path fill-rule="evenodd" d="M779.5 575.4h.8V528.3h-.8v47.1Z" class="g1_43"/>
<path fill-rule="evenodd" d="M887.7 575.4h.7V528.3h-.7v47.1Z" class="g1_43"/>
<path fill-rule="evenodd" d="M19.8 617.2H140.7V576.1H19.8v41.1Z" class="g5_43"/>
<path fill-rule="evenodd" d="M27.7 599H132.8V576.1H27.7V599Z" class="g5_43"/>
<path fill-rule="evenodd" d="M141.4 617.2h85.8V576.1H141.4v41.1Z" class="g5_43"/>
<path fill-rule="evenodd" d="M149.3 599h70V576.1h-70V599Z" class="g5_43"/>
<path fill-rule="evenodd" d="M227.9 617.2H346.4V576.1H227.9v41.1Z" class="g5_43"/>
<path fill-rule="evenodd" d="M235.8 599H338.5V576.1H235.8V599Z" class="g5_43"/>
<path fill-rule="evenodd" d="M347.1 617.2h96.7V576.1H347.1v41.1Z" class="g5_43"/>
<path fill-rule="evenodd" d="M355 599h80.9V576.1H355V599Z" class="g5_43"/>
<path fill-rule="evenodd" d="M444.7 617.2h96.6V576.1H444.7v41.1Z" class="g5_43"/>
<path fill-rule="evenodd" d="M452.4 599h81V576.1h-81V599Z" class="g5_43"/>
<path fill-rule="evenodd" d="M542 617.2H649.5V576.1H542v41.1Z" class="g5_43"/>
<path fill-rule="evenodd" d="M549.9 599h91.9V576.1H549.9V599Z" class="g5_43"/>
<path fill-rule="evenodd" d="M650.4 617.2H779.5V576.1H650.4v41.1Z" class="g5_43"/>
<path fill-rule="evenodd" d="M658.3 599H771.7V576.1H658.3V599Z" class="g5_43"/>
<path fill-rule="evenodd" d="M780.3 617.2H887.9V576.1H780.3v41.1Z" class="g5_43"/>
<path fill-rule="evenodd" d="M788.2 599H880V576.1H788.2V599Z" class="g5_43"/>
<path fill-rule="evenodd" d="M18.9 576.1h.7v-.7h-.7v.7Z" class="g1_43"/>
<path fill-rule="evenodd" d="M19.6 576.1H140.5v-.7H19.6v.7Z" class="g1_43"/>
<path fill-rule="evenodd" d="M140.5 576.1h.7v-.7h-.7v.7Z" class="g1_43"/>
<path fill-rule="evenodd" d="M141.2 576.1h86v-.7h-86v.7Z" class="g1_43"/>
<path fill-rule="evenodd" d="M227.2 576.1h.7v-.7h-.7v.7Z" class="g1_43"/>
<path fill-rule="evenodd" d="M227.9 576.1H346.4v-.7H227.9v.7Z" class="g1_43"/>
<path fill-rule="evenodd" d="M346.4 576.1h.7v-.7h-.7v.7Z" class="g1_43"/>
<path fill-rule="evenodd" d="M347.1 576.1h96.7v-.7H347.1v.7Z" class="g1_43"/>
<path fill-rule="evenodd" d="M443.8 576.1h.7v-.7h-.7v.7Z" class="g1_43"/>
<path fill-rule="evenodd" d="M444.5 576.1h96.6v-.7H444.5v.7Z" class="g1_43"/>
<path fill-rule="evenodd" d="M541.1 576.1h.8v-.7h-.8v.7Z" class="g1_43"/>
<path fill-rule="evenodd" d="M541.9 576.1H649.5v-.7H541.9v.7Z" class="g1_43"/>
<path fill-rule="evenodd" d="M649.5 576.1h.8v-.7h-.8v.7Z" class="g1_43"/>
<path fill-rule="evenodd" d="M650.3 576.1H779.5v-.7H650.3v.7Z" class="g1_43"/>
<path fill-rule="evenodd" d="M779.5 576.1h.8v-.7h-.8v.7Z" class="g1_43"/>
<path fill-rule="evenodd" d="M780.3 576.1H887.7v-.7H780.3v.7Z" class="g1_43"/>
<path fill-rule="evenodd" d="M887.7 576.1h.7v-.7h-.7v.7Z" class="g1_43"/>
<path fill-rule="evenodd" d="M18.9 617.2h.7V576.1h-.7v41.1Z" class="g1_43"/>
<path fill-rule="evenodd" d="M140.5 617.2h.7V576.1h-.7v41.1Z" class="g1_43"/>
<path fill-rule="evenodd" d="M227.2 617.2h.7V576.1h-.7v41.1Z" class="g1_43"/>
<path fill-rule="evenodd" d="M346.4 617.2h.7V576.1h-.7v41.1Z" class="g1_43"/>
<path fill-rule="evenodd" d="M443.8 617.2h.7V576.1h-.7v41.1Z" class="g1_43"/>
<path fill-rule="evenodd" d="M541.1 617.2h.8V576.1h-.8v41.1Z" class="g1_43"/>
<path fill-rule="evenodd" d="M649.5 617.2h.8V576.1h-.8v41.1Z" class="g1_43"/>
<path fill-rule="evenodd" d="M779.5 617.2h.8V576.1h-.8v41.1Z" class="g1_43"/>
<path fill-rule="evenodd" d="M887.7 617.2h.7V576.1h-.7v41.1Z" class="g1_43"/>
<path fill-rule="evenodd" d="M19.8 663.6H140.7V617.9H19.8v45.7Z" class="g4_43"/>
<path fill-rule="evenodd" d="M27.7 640.7H132.8V617.9H27.7v22.8Z" class="g4_43"/>
<path fill-rule="evenodd" d="M27.7 663.6H132.8V640.7H27.7v22.9Z" class="g4_43"/>
<path fill-rule="evenodd" d="M141.4 663.6h85.8V617.9H141.4v45.7Z" class="g4_43"/>
<path fill-rule="evenodd" d="M149.3 640.7h70V617.9h-70v22.8Z" class="g4_43"/>
<path fill-rule="evenodd" d="M227.9 663.6H346.4V617.9H227.9v45.7Z" class="g4_43"/>
<path fill-rule="evenodd" d="M235.8 640.7H338.5V617.9H235.8v22.8Z" class="g4_43"/>
<path fill-rule="evenodd" d="M347.1 663.6h96.7V617.9H347.1v45.7Z" class="g4_43"/>
<path fill-rule="evenodd" d="M355 640.7h80.9V617.9H355v22.8Z" class="g4_43"/>
<path fill-rule="evenodd" d="M444.7 663.6h96.6V617.9H444.7v45.7Z" class="g4_43"/>
<path fill-rule="evenodd" d="M452.4 640.7h81V617.9h-81v22.8Z" class="g4_43"/>
<path fill-rule="evenodd" d="M542 663.6H649.5V617.9H542v45.7Z" class="g4_43"/>
<path fill-rule="evenodd" d="M549.9 640.7h91.9V617.9H549.9v22.8Z" class="g4_43"/>
<path fill-rule="evenodd" d="M650.4 663.6H779.5V617.9H650.4v45.7Z" class="g4_43"/>
<path fill-rule="evenodd" d="M658.3 640.7H771.7V617.9H658.3v22.8Z" class="g4_43"/>
<path fill-rule="evenodd" d="M780.3 663.6H887.9V617.9H780.3v45.7Z" class="g4_43"/>
<path fill-rule="evenodd" d="M788.2 640.7H880V617.9H788.2v22.8Z" class="g4_43"/>
<path fill-rule="evenodd" d="M18.9 617.9h.7v-.7h-.7v.7Z" class="g1_43"/>
<path fill-rule="evenodd" d="M19.6 617.9H140.5v-.7H19.6v.7Z" class="g1_43"/>
<path fill-rule="evenodd" d="M140.5 617.9h.7v-.7h-.7v.7Z" class="g1_43"/>
<path fill-rule="evenodd" d="M141.2 617.9h86v-.7h-86v.7Z" class="g1_43"/>
<path fill-rule="evenodd" d="M227.2 617.9h.7v-.7h-.7v.7Z" class="g1_43"/>
<path fill-rule="evenodd" d="M227.9 617.9H346.4v-.7H227.9v.7Z" class="g1_43"/>
<path fill-rule="evenodd" d="M346.4 617.9h.7v-.7h-.7v.7Z" class="g1_43"/>
<path fill-rule="evenodd" d="M347.1 617.9h96.7v-.7H347.1v.7Z" class="g1_43"/>
<path fill-rule="evenodd" d="M443.8 617.9h.7v-.7h-.7v.7Z" class="g1_43"/>
<path fill-rule="evenodd" d="M444.5 617.9h96.6v-.7H444.5v.7Z" class="g1_43"/>
<path fill-rule="evenodd" d="M541.1 617.9h.8v-.7h-.8v.7Z" class="g1_43"/>
<path fill-rule="evenodd" d="M541.9 617.9H649.5v-.7H541.9v.7Z" class="g1_43"/>
<path fill-rule="evenodd" d="M649.5 617.9h.8v-.7h-.8v.7Z" class="g1_43"/>
<path fill-rule="evenodd" d="M650.3 617.9H779.5v-.7H650.3v.7Z" class="g1_43"/>
<path fill-rule="evenodd" d="M779.5 617.9h.8v-.7h-.8v.7Z" class="g1_43"/>
<path fill-rule="evenodd" d="M780.3 617.9H887.7v-.7H780.3v.7Z" class="g1_43"/>
<path fill-rule="evenodd" d="M887.7 617.9h.7v-.7h-.7v.7Z" class="g1_43"/>
<path fill-rule="evenodd" d="M18.9 663.6h.7V617.9h-.7v45.7Z" class="g1_43"/>
<path fill-rule="evenodd" d="M140.5 663.6h.7V617.9h-.7v45.7Z" class="g1_43"/>
<path fill-rule="evenodd" d="M227.2 663.6h.7V617.9h-.7v45.7Z" class="g1_43"/>
<path fill-rule="evenodd" d="M346.4 663.6h.7V617.9h-.7v45.7Z" class="g1_43"/>
<path fill-rule="evenodd" d="M443.8 663.6h.7V617.9h-.7v45.7Z" class="g1_43"/>
<path fill-rule="evenodd" d="M541.1 663.6h.8V617.9h-.8v45.7Z" class="g1_43"/>
<path fill-rule="evenodd" d="M649.5 663.6h.8V617.9h-.8v45.7Z" class="g1_43"/>
<path fill-rule="evenodd" d="M779.5 663.6h.8V617.9h-.8v45.7Z" class="g1_43"/>
<path fill-rule="evenodd" d="M887.7 663.6h.7V617.9h-.7v45.7Z" class="g1_43"/>
<path fill-rule="evenodd" d="M19.8 696H140.7V664.3H19.8V696Z" class="g4_43"/>
<path fill-rule="evenodd" d="M27.7 687.2H132.8V664.3H27.7v22.9Z" class="g4_43"/>
<path fill-rule="evenodd" d="M141.4 696h85.8V664.3H141.4V696Z" class="g4_43"/>
<path fill-rule="evenodd" d="M149.3 687.2h70V664.3h-70v22.9Z" class="g4_43"/>
<path fill-rule="evenodd" d="M227.9 696H346.4V664.3H227.9V696Z" class="g4_43"/>
<path fill-rule="evenodd" d="M235.8 687.2H338.5V664.3H235.8v22.9Z" class="g4_43"/>
<path fill-rule="evenodd" d="M347.1 696h96.7V664.3H347.1V696Z" class="g4_43"/>
<path fill-rule="evenodd" d="M355 687.2h80.9V664.3H355v22.9Z" class="g4_43"/>
<path fill-rule="evenodd" d="M444.7 696h96.6V664.3H444.7V696Z" class="g4_43"/>
<path fill-rule="evenodd" d="M452.4 687.2h81V664.3h-81v22.9Z" class="g4_43"/>
<path fill-rule="evenodd" d="M542 696H649.5V664.3H542V696Z" class="g4_43"/>
<path fill-rule="evenodd" d="M549.9 687.2h91.9V664.3H549.9v22.9Z" class="g4_43"/>
<path fill-rule="evenodd" d="M650.4 696H779.5V664.3H650.4V696Z" class="g4_43"/>
<path fill-rule="evenodd" d="M658.3 687.2H771.7V664.3H658.3v22.9Z" class="g4_43"/>
<path fill-rule="evenodd" d="M780.3 696H887.9V664.3H780.3V696Z" class="g4_43"/>
<path fill-rule="evenodd" d="M788.2 687.2H880V664.3H788.2v22.9Z" class="g4_43"/>
<path fill-rule="evenodd" d="M18.9 664.3h.7v-.7h-.7v.7Z" class="g1_43"/>
<path fill-rule="evenodd" d="M19.6 664.3H140.5v-.7H19.6v.7Z" class="g1_43"/>
<path fill-rule="evenodd" d="M140.5 664.3h.7v-.7h-.7v.7Z" class="g1_43"/>
<path fill-rule="evenodd" d="M141.2 664.3h86v-.7h-86v.7Z" class="g1_43"/>
<path fill-rule="evenodd" d="M227.2 664.3h.7v-.7h-.7v.7Z" class="g1_43"/>
<path fill-rule="evenodd" d="M227.9 664.3H346.4v-.7H227.9v.7Z" class="g1_43"/>
<path fill-rule="evenodd" d="M346.4 664.3h.7v-.7h-.7v.7Z" class="g1_43"/>
<path fill-rule="evenodd" d="M347.1 664.3h96.7v-.7H347.1v.7Z" class="g1_43"/>
<path fill-rule="evenodd" d="M443.8 664.3h.7v-.7h-.7v.7Z" class="g1_43"/>
<path fill-rule="evenodd" d="M444.5 664.3h96.6v-.7H444.5v.7Z" class="g1_43"/>
<path fill-rule="evenodd" d="M541.1 664.3h.8v-.7h-.8v.7Z" class="g1_43"/>
<path fill-rule="evenodd" d="M541.9 664.3H649.5v-.7H541.9v.7Z" class="g1_43"/>
<path fill-rule="evenodd" d="M649.5 664.3h.8v-.7h-.8v.7Z" class="g1_43"/>
<path fill-rule="evenodd" d="M650.3 664.3H779.5v-.7H650.3v.7Z" class="g1_43"/>
<path fill-rule="evenodd" d="M779.5 664.3h.8v-.7h-.8v.7Z" class="g1_43"/>
<path fill-rule="evenodd" d="M780.3 664.3H887.7v-.7H780.3v.7Z" class="g1_43"/>
<path fill-rule="evenodd" d="M887.7 664.3h.7v-.7h-.7v.7Z" class="g1_43"/>
<path fill-rule="evenodd" d="M18.9 696h.7V664.3h-.7V696Z" class="g1_43"/>
<path fill-rule="evenodd" d="M140.5 696h.7V664.3h-.7V696Z" class="g1_43"/>
<path fill-rule="evenodd" d="M227.2 696h.7V664.3h-.7V696Z" class="g1_43"/>
<path fill-rule="evenodd" d="M346.4 696h.7V664.3h-.7V696Z" class="g1_43"/>
<path fill-rule="evenodd" d="M443.8 696h.7V664.3h-.7V696Z" class="g1_43"/>
<path fill-rule="evenodd" d="M541.1 696h.8V664.3h-.8V696Z" class="g1_43"/>
<path fill-rule="evenodd" d="M649.5 696h.8V664.3h-.8V696Z" class="g1_43"/>
<path fill-rule="evenodd" d="M779.5 696h.8V664.3h-.8V696Z" class="g1_43"/>
<path fill-rule="evenodd" d="M887.7 696h.7V664.3h-.7V696Z" class="g1_43"/>
<path fill-rule="evenodd" d="M19.8 788.1H140.7V696.8H19.8v91.3Z" class="g4_43"/>
<path fill-rule="evenodd" d="M27.7 719.7H132.8V696.8H27.7v22.9Z" class="g4_43"/>
<path fill-rule="evenodd" d="M141.4 788.1h85.8V696.8H141.4v91.3Z" class="g4_43"/>
<path fill-rule="evenodd" d="M149.3 719.7h70V696.8h-70v22.9Z" class="g4_43"/>
<path fill-rule="evenodd" d="M227.9 788.1H346.4V696.8H227.9v91.3Z" class="g4_43"/>
<path fill-rule="evenodd" d="M235.8 719.7H338.5V696.8H235.8v22.9Z" class="g4_43"/>
<path fill-rule="evenodd" d="M347.1 788.1h96.7V696.8H347.1v91.3Z" class="g4_43"/>
<path fill-rule="evenodd" d="M355 719.7h80.9V696.8H355v22.9Z" class="g4_43"/>
<path fill-rule="evenodd" d="M355 742.4h80.9V719.7H355v22.7Z" class="g4_43"/>
<path fill-rule="evenodd" d="M444.7 788.1h96.6V696.8H444.7v91.3Z" class="g4_43"/>
<path fill-rule="evenodd" d="M452.4 719.7h81V696.8h-81v22.9Z" class="g4_43"/>
<path fill-rule="evenodd" d="M542 788.1H649.5V696.8H542v91.3Z" class="g4_43"/>
<path fill-rule="evenodd" d="M549.9 719.7h91.9V696.8H549.9v22.9Z" class="g4_43"/>
<path fill-rule="evenodd" d="M549.9 742.4h91.9V719.7H549.9v22.7Z" class="g4_43"/>
<path fill-rule="evenodd" d="M559.5 742.4h72.6V719.7H559.5v22.7Z" class="g4_43"/>
<path fill-rule="evenodd" d="M549.9 765.3h91.9V742.4H549.9v22.9Z" class="g4_43"/>
<path fill-rule="evenodd" d="M558.4 765.3h74.8V742.4H558.4v22.9Z" class="g4_43"/>
<path fill-rule="evenodd" d="M549.9 788.1h91.9V765.3H549.9v22.8Z" class="g4_43"/>
<path fill-rule="evenodd" d="M570.5 788.1h44V765.3h-44v22.8Z" class="g4_43"/>
<path fill-rule="evenodd" d="M650.4 788.1H779.5V696.8H650.4v91.3Z" class="g4_43"/>
<path fill-rule="evenodd" d="M658.3 719.7H771.7V696.8H658.3v22.9Z" class="g4_43"/>
<path fill-rule="evenodd" d="M780.3 788.1H887.9V696.8H780.3v91.3Z" class="g4_43"/>
<path fill-rule="evenodd" d="M788.2 719.7H880V696.8H788.2v22.9Z" class="g4_43"/>
<path fill-rule="evenodd" d="M18.9 696.8h.7V696h-.7v.8Z" class="g1_43"/>
<path fill-rule="evenodd" d="M19.6 696.8H140.5V696H19.6v.8Z" class="g1_43"/>
<path fill-rule="evenodd" d="M140.5 696.8h.7V696h-.7v.8Z" class="g1_43"/>
<path fill-rule="evenodd" d="M141.2 696.8h86V696h-86v.8Z" class="g1_43"/>
<path fill-rule="evenodd" d="M227.2 696.8h.7V696h-.7v.8Z" class="g1_43"/>
<path fill-rule="evenodd" d="M227.9 696.8H346.4V696H227.9v.8Z" class="g1_43"/>
<path fill-rule="evenodd" d="M346.4 696.8h.7V696h-.7v.8Z" class="g1_43"/>
<path fill-rule="evenodd" d="M347.1 696.8h96.7V696H347.1v.8Z" class="g1_43"/>
<path fill-rule="evenodd" d="M443.8 696.8h.7V696h-.7v.8Z" class="g1_43"/>
<path fill-rule="evenodd" d="M444.5 696.8h96.6V696H444.5v.8Z" class="g1_43"/>
<path fill-rule="evenodd" d="M541.1 696.8h.8V696h-.8v.8Z" class="g1_43"/>
<path fill-rule="evenodd" d="M541.9 696.8H649.5V696H541.9v.8Z" class="g1_43"/>
<path fill-rule="evenodd" d="M649.5 696.8h.8V696h-.8v.8Z" class="g1_43"/>
<path fill-rule="evenodd" d="M650.3 696.8H779.5V696H650.3v.8Z" class="g1_43"/>
<path fill-rule="evenodd" d="M779.5 696.8h.8V696h-.8v.8Z" class="g1_43"/>
<path fill-rule="evenodd" d="M780.3 696.8H887.7V696H780.3v.8Z" class="g1_43"/>
<path fill-rule="evenodd" d="M887.7 696.8h.7V696h-.7v.8Z" class="g1_43"/>
<path fill-rule="evenodd" d="M18.9 788.1h.7V696.8h-.7v91.3Z" class="g1_43"/>
<path fill-rule="evenodd" d="M140.5 788.1h.7V696.8h-.7v91.3Z" class="g1_43"/>
<path fill-rule="evenodd" d="M227.2 788.1h.7V696.8h-.7v91.3Z" class="g1_43"/>
<path fill-rule="evenodd" d="M346.4 788.1h.7V696.8h-.7v91.3Z" class="g1_43"/>
<path fill-rule="evenodd" d="M443.8 788.1h.7V696.8h-.7v91.3Z" class="g1_43"/>
<path fill-rule="evenodd" d="M541.1 788.1h.8V696.8h-.8v91.3Z" class="g1_43"/>
<path fill-rule="evenodd" d="M649.5 788.1h.8V696.8h-.8v91.3Z" class="g1_43"/>
<path fill-rule="evenodd" d="M779.5 788.1h.8V696.8h-.8v91.3Z" class="g1_43"/>
<path fill-rule="evenodd" d="M887.7 788.1h.7V696.8h-.7v91.3Z" class="g1_43"/>
<path fill-rule="evenodd" d="M19.8 857.6H140.7V789H19.8v68.6Z" class="g6_43"/>
<path fill-rule="evenodd" d="M27.7 811.7H132.8V789H27.7v22.7Z" class="g6_43"/>
<path fill-rule="evenodd" d="M27.7 834.6H132.8V811.7H27.7v22.9Z" class="g6_43"/>
<path fill-rule="evenodd" d="M141.4 857.6h85.8V789H141.4v68.6Z" class="g6_43"/>
<path fill-rule="evenodd" d="M149.3 811.7h70V789h-70v22.7Z" class="g6_43"/>
<path fill-rule="evenodd" d="M227.9 857.6H346.4V789H227.9v68.6Z" class="g6_43"/>
<path fill-rule="evenodd" d="M235.8 811.7H338.5V789H235.8v22.7Z" class="g6_43"/>
<path fill-rule="evenodd" d="M347.1 857.6h96.7V789H347.1v68.6Z" class="g6_43"/>
<path fill-rule="evenodd" d="M355 811.7h80.9V789H355v22.7Z" class="g6_43"/>
<path fill-rule="evenodd" d="M444.7 857.6h96.6V789H444.7v68.6Z" class="g6_43"/>
<path fill-rule="evenodd" d="M452.4 811.7h81V789h-81v22.7Z" class="g6_43"/>
<path fill-rule="evenodd" d="M542 857.6H649.5V789H542v68.6Z" class="g6_43"/>
<path fill-rule="evenodd" d="M549.9 811.7h91.9V789H549.9v22.7Z" class="g6_43"/>
<path fill-rule="evenodd" d="M549.9 834.6h91.9V811.7H549.9v22.9Z" class="g6_43"/>
<path fill-rule="evenodd" d="M549.9 857.4h91.9V834.6H549.9v22.8Z" class="g6_43"/>
<path fill-rule="evenodd" d="M650.4 857.6H779.5V789H650.4v68.6Z" class="g6_43"/>
<path fill-rule="evenodd" d="M658.3 811.7H771.7V789H658.3v22.7Z" class="g6_43"/>
<path fill-rule="evenodd" d="M780.3 857.6H887.9V789H780.3v68.6Z" class="g6_43"/>
<path fill-rule="evenodd" d="M788.2 811.7H880V789H788.2v22.7Z" class="g6_43"/>
<path fill-rule="evenodd" d="M18.9 788.8h.7v-.7h-.7v.7Z" class="g1_43"/>
<path fill-rule="evenodd" d="M19.6 788.8H140.5v-.7H19.6v.7Z" class="g1_43"/>
<path fill-rule="evenodd" d="M140.5 788.8h.7v-.7h-.7v.7Z" class="g1_43"/>
<path fill-rule="evenodd" d="M141.2 788.8h86v-.7h-86v.7Z" class="g1_43"/>
<path fill-rule="evenodd" d="M227.2 788.8h.7v-.7h-.7v.7Z" class="g1_43"/>
<path fill-rule="evenodd" d="M227.9 788.8H346.4v-.7H227.9v.7Z" class="g1_43"/>
<path fill-rule="evenodd" d="M346.4 788.8h.7v-.7h-.7v.7Z" class="g1_43"/>
<path fill-rule="evenodd" d="M347.1 788.8h96.7v-.7H347.1v.7Z" class="g1_43"/>
<path fill-rule="evenodd" d="M443.8 788.8h.7v-.7h-.7v.7Z" class="g1_43"/>
<path fill-rule="evenodd" d="M444.5 788.8h96.6v-.7H444.5v.7Z" class="g1_43"/>
<path fill-rule="evenodd" d="M541.1 788.8h.8v-.7h-.8v.7Z" class="g1_43"/>
<path fill-rule="evenodd" d="M541.9 788.8H649.5v-.7H541.9v.7Z" class="g1_43"/>
<path fill-rule="evenodd" d="M649.5 788.8h.8v-.7h-.8v.7Z" class="g1_43"/>
<path fill-rule="evenodd" d="M650.3 788.8H779.5v-.7H650.3v.7Z" class="g1_43"/>
<path fill-rule="evenodd" d="M779.5 788.8h.8v-.7h-.8v.7Z" class="g1_43"/>
<path fill-rule="evenodd" d="M780.3 788.8H887.7v-.7H780.3v.7Z" class="g1_43"/>
<path fill-rule="evenodd" d="M887.7 788.8h.7v-.7h-.7v.7Z" class="g1_43"/>
<path fill-rule="evenodd" d="M18.9 857.6h.7V788.8h-.7v68.8Z" class="g1_43"/>
<path fill-rule="evenodd" d="M18.9 858.3h.7v-.7h-.7v.7Z" class="g1_43"/>
<path fill-rule="evenodd" d="M18.9 858.3h.7v-.7h-.7v.7Z" class="g1_43"/>
<path fill-rule="evenodd" d="M19.6 858.3H140.5v-.7H19.6v.7Z" class="g1_43"/>
<path fill-rule="evenodd" d="M140.5 857.6h.7V788.8h-.7v68.8Z" class="g1_43"/>
<path fill-rule="evenodd" d="M140.5 858.3h.7v-.7h-.7v.7Z" class="g1_43"/>
<path fill-rule="evenodd" d="M141.2 858.3h86v-.7h-86v.7Z" class="g1_43"/>
<path fill-rule="evenodd" d="M227.2 857.6h.7V788.8h-.7v68.8Z" class="g1_43"/>
<path fill-rule="evenodd" d="M227.2 858.3h.7v-.7h-.7v.7Z" class="g1_43"/>
<path fill-rule="evenodd" d="M227.9 858.3H346.4v-.7H227.9v.7Z" class="g1_43"/>
<path fill-rule="evenodd" d="M346.4 857.6h.7V788.8h-.7v68.8Z" class="g1_43"/>
<path fill-rule="evenodd" d="M346.4 858.3h.7v-.7h-.7v.7Z" class="g1_43"/>
<path fill-rule="evenodd" d="M347.1 858.3h96.7v-.7H347.1v.7Z" class="g1_43"/>
<path fill-rule="evenodd" d="M443.8 857.6h.7V788.8h-.7v68.8Z" class="g1_43"/>
<path fill-rule="evenodd" d="M443.8 858.3h.7v-.7h-.7v.7Z" class="g1_43"/>
<path fill-rule="evenodd" d="M444.5 858.3h96.6v-.7H444.5v.7Z" class="g1_43"/>
<path fill-rule="evenodd" d="M541.1 857.6h.8V788.8h-.8v68.8Z" class="g1_43"/>
<path fill-rule="evenodd" d="M541.1 858.3h.8v-.7h-.8v.7Z" class="g1_43"/>
<path fill-rule="evenodd" d="M541.9 858.3H649.5v-.7H541.9v.7Z" class="g1_43"/>
<path fill-rule="evenodd" d="M649.5 857.6h.8V788.8h-.8v68.8Z" class="g1_43"/>
<path fill-rule="evenodd" d="M649.5 858.3h.8v-.7h-.8v.7Z" class="g1_43"/>
<path fill-rule="evenodd" d="M650.3 858.3H779.5v-.7H650.3v.7Z" class="g1_43"/>
<path fill-rule="evenodd" d="M779.5 857.6h.8V788.8h-.8v68.8Z" class="g1_43"/>
<path fill-rule="evenodd" d="M779.5 858.3h.8v-.7h-.8v.7Z" class="g1_43"/>
<path fill-rule="evenodd" d="M780.3 858.3H887.7v-.7H780.3v.7Z" class="g1_43"/>
<path fill-rule="evenodd" d="M887.7 857.6h.7V788.8h-.7v68.8Z" class="g1_43"/>
<path fill-rule="evenodd" d="M887.7 858.3h.7v-.7h-.7v.7Z" class="g1_43"/>
<path fill-rule="evenodd" d="M887.7 858.3h.7v-.7h-.7v.7Z" class="g1_43"/>
</svg>