<?xml version="1.0" encoding="UTF-8" standalone="no"?>
<!DOCTYPE svg PUBLIC "-//W3C//DTD SVG 1.1//EN"
"http://www.w3.org/Graphics/SVG/1.1/DTD/svg11.dtd">
<svg viewBox="0 0 909 1286" version="1.1" xmlns="http://www.w3.org/2000/svg" xmlns:xlink="http://www.w3.org/1999/xlink">
<defs>
<clipPath id="c0_77"><path d="M421.9 1209.8v-33.3h52.7v33.3Z"/></clipPath>
<clipPath id="c1_77"><path d="M0 1286.4V0H909.9V1286.4Z"/></clipPath>
<style type="text/css"><![CDATA[
.g0_77{
fill: #4472C4;
}
.g1_77{
fill: #FFF;
}
.g2_77{
fill: #000;
}
]]></style>
</defs>
<path fill-rule="evenodd" d="M49.7 88.9H836.2v-.7H49.7v.7Z" class="g0_77"/>
<path fill-rule="evenodd" d="M49.7 1161.4H836.2v-1.1H49.7v1.1Z" class="g0_77"/>
<image clip-path="url(#c0_77)" preserveAspectRatio="none" x="422" y="1176" width="53" height="34" xlink:href="img/1.png"/>
<path fill-rule="evenodd" d="M225.2 225h553V202.1h-553V225Z" class="g1_77"/>
<path fill-rule="evenodd" d="M225.2 247.7H536.7V225H225.2v22.7Z" class="g1_77"/>
<path fill-rule="evenodd" d="M369.1 271H827.6V248.1H369.1V271Z" class="g1_77"/>
<path fill-rule="evenodd" d="M225.2 293.9H505.7V271H225.2v22.9Z" class="g1_77"/>
<path fill-rule="evenodd" d="M225.2 317H810.5V294.1H225.2V317Z" class="g1_77"/>
<path fill-rule="evenodd" d="M225.2 339.9H483.6V317H225.2v22.9Z" class="g1_77"/>
<path fill-rule="evenodd" d="M181.9 662.9H703v-23H181.9v23Z" class="g1_77"/>
<image clip-path="url(#c1_77)" preserveAspectRatio="none" x="115" y="875" width="29" height="22" xlink:href="img/2.png"/>
<path fill-rule="evenodd" d="M138.6 1040.6h.8v-.8h-.8v.8Z" class="g2_77"/>
<path fill-rule="evenodd" d="M138.6 1040.6h.8v-.8h-.8v.8Z" class="g2_77"/>
<path fill-rule="evenodd" d="M139.4 1040.6H796v-.8H139.4v.8Z" class="g2_77"/>
<path fill-rule="evenodd" d="M796 1040.6h.8v-.8H796v.8Z" class="g2_77"/>
<path fill-rule="evenodd" d="M796 1040.6h.8v-.8H796v.8Z" class="g2_77"/>
<path fill-rule="evenodd" d="M138.6 1063.9h.8v-23.3h-.8v23.3Z" class="g2_77"/>
<path fill-rule="evenodd" d="M138.6 1064.6h.8v-.7h-.8v.7Z" class="g2_77"/>
<path fill-rule="evenodd" d="M138.6 1064.6h.8v-.7h-.8v.7Z" class="g2_77"/>
<path fill-rule="evenodd" d="M139.4 1064.6H796v-.7H139.4v.7Z" class="g2_77"/>
<path fill-rule="evenodd" d="M796 1063.9h.8v-23.3H796v23.3Z" class="g2_77"/>
<path fill-rule="evenodd" d="M796 1064.6h.8v-.7H796v.7Z" class="g2_77"/>
<path fill-rule="evenodd" d="M796 1064.6h.8v-.7H796v.7Z" class="g2_77"/>
</svg>