<?xml version="1.0" encoding="UTF-8" standalone="no"?>
<!DOCTYPE svg PUBLIC "-//W3C//DTD SVG 1.1//EN"
"http://www.w3.org/Graphics/SVG/1.1/DTD/svg11.dtd">
<svg viewBox="0 0 909 1286" version="1.1" xmlns="http://www.w3.org/2000/svg" xmlns:xlink="http://www.w3.org/1999/xlink">
<defs>
<clipPath id="c0_11"><path d="M421.9 1209.8v-33.3h52.7v33.3Z"/></clipPath>
<style type="text/css"><![CDATA[
.g0_11{
fill: #4472C4;
}
.g1_11{
fill: #F5F8FF;
}
.g2_11{
fill: #000;
}
]]></style>
</defs>
<path fill-rule="evenodd" d="M49.7 88.9H855.8v-.7H49.7v.7Z" class="g0_11"/>
<path fill-rule="evenodd" d="M49.7 1161.4H855.8v-1.1H49.7v1.1Z" class="g0_11"/>
<image clip-path="url(#c0_11)" preserveAspectRatio="none" x="422" y="1176" width="53" height="34" xlink:href="img/1.png"/>
<path fill-rule="evenodd" d="M195.1 293.7h7.7V271h-7.7v22.7Z" class="g1_11"/>
<path fill-rule="evenodd" d="M189.4 316.6h22V293.7h-22v22.9Z" class="g1_11"/>
<path fill-rule="evenodd" d="M543.1 316.6h7.7V293.7h-7.7v22.9Z" class="g1_11"/>
<path fill-rule="evenodd" d="M189.4 339.4H399V316.6H189.4v22.8Z" class="g1_11"/>
<path fill-rule="evenodd" d="M535.6 339.4h12.3V316.6H535.6v22.8Z" class="g1_11"/>
<path fill-rule="evenodd" d="M189.4 362.3h29.9V339.4H189.4v22.9Z" class="g1_11"/>
<path fill-rule="evenodd" d="M189.4 385.1h22V362.3h-22v22.8Z" class="g1_11"/>
<path fill-rule="evenodd" d="M503.9 385.1h7.7V362.3h-7.7v22.8Z" class="g1_11"/>
<path fill-rule="evenodd" d="M189.4 408H399V385.1H189.4V408Z" class="g1_11"/>
<path fill-rule="evenodd" d="M760.1 408h12.3V385.1H760.1V408Z" class="g1_11"/>
<path fill-rule="evenodd" d="M189.4 430.9h29.9V408H189.4v22.9Z" class="g1_11"/>
<path fill-rule="evenodd" d="M189.4 453.6h22V430.9h-22v22.7Z" class="g1_11"/>
<path fill-rule="evenodd" d="M521.7 453.6h7.7V430.9h-7.7v22.7Z" class="g1_11"/>
<path fill-rule="evenodd" d="M189.4 476.6H399v-23H189.4v23Z" class="g1_11"/>
<path fill-rule="evenodd" d="M785.8 476.6H798v-23H785.8v23Z" class="g1_11"/>
<path fill-rule="evenodd" d="M189.4 499.3h29.9V476.6H189.4v22.7Z" class="g1_11"/>
<path fill-rule="evenodd" d="M189.4 522.2h22V499.3h-22v22.9Z" class="g1_11"/>
<path fill-rule="evenodd" d="M529.6 522.2h7.7V499.3h-7.7v22.9Z" class="g1_11"/>
<path fill-rule="evenodd" d="M189.4 544.9H399V522.2H189.4v22.7Z" class="g1_11"/>
<path fill-rule="evenodd" d="M761 544.9h12.3V522.2H761v22.7Z" class="g1_11"/>
<path fill-rule="evenodd" d="M189.4 567.9h29.9v-23H189.4v23Z" class="g1_11"/>
<path fill-rule="evenodd" d="M189.4 590.8h22V567.9h-22v22.9Z" class="g1_11"/>
<path fill-rule="evenodd" d="M510.5 590.8h7.7V567.9h-7.7v22.9Z" class="g1_11"/>
<path fill-rule="evenodd" d="M189.4 613.5H399V590.8H189.4v22.7Z" class="g1_11"/>
<path fill-rule="evenodd" d="M683.8 613.5h12.3V590.8H683.8v22.7Z" class="g1_11"/>
<path fill-rule="evenodd" d="M189.4 636.5h29.9v-23H189.4v23Z" class="g1_11"/>
<path fill-rule="evenodd" d="M189.4 659.2h7.7V636.5h-7.7v22.7Z" class="g1_11"/>
<path fill-rule="evenodd" d="M79.6 707.4h.7v-.7h-.7v.7Z" class="g2_11"/>
<path fill-rule="evenodd" d="M79.6 707.4h.7v-.7h-.7v.7Z" class="g2_11"/>
<path fill-rule="evenodd" d="M80.3 707.4H419.9v-.7H80.3v.7Z" class="g2_11"/>
<path fill-rule="evenodd" d="M419.9 707.4h.7v-.7h-.7v.7Z" class="g2_11"/>
<path fill-rule="evenodd" d="M420.6 707.4H806.1v-.7H420.6v.7Z" class="g2_11"/>
<path fill-rule="evenodd" d="M806.1 707.4h.7v-.7h-.7v.7Z" class="g2_11"/>
<path fill-rule="evenodd" d="M806.1 707.4h.7v-.7h-.7v.7Z" class="g2_11"/>
<path fill-rule="evenodd" d="M79.6 734.5h.7V707.4h-.7v27.1Z" class="g2_11"/>
<path fill-rule="evenodd" d="M419.9 734.5h.7V707.4h-.7v27.1Z" class="g2_11"/>
<path fill-rule="evenodd" d="M806.1 734.5h.7V707.4h-.7v27.1Z" class="g2_11"/>
<path fill-rule="evenodd" d="M79.6 735.3h.7v-.8h-.7v.8Z" class="g2_11"/>
<path fill-rule="evenodd" d="M80.3 735.3H419.9v-.8H80.3v.8Z" class="g2_11"/>
<path fill-rule="evenodd" d="M419.9 735.3h.7v-.8h-.7v.8Z" class="g2_11"/>
<path fill-rule="evenodd" d="M420.6 735.3H806.1v-.8H420.6v.8Z" class="g2_11"/>
<path fill-rule="evenodd" d="M806.1 735.3h.7v-.8h-.7v.8Z" class="g2_11"/>
<path fill-rule="evenodd" d="M79.6 804.2h.7V735.3h-.7v68.9Z" class="g2_11"/>
<path fill-rule="evenodd" d="M419.9 804.2h.7V735.3h-.7v68.9Z" class="g2_11"/>
<path fill-rule="evenodd" d="M806.1 804.2h.7V735.3h-.7v68.9Z" class="g2_11"/>
<path fill-rule="evenodd" d="M79.6 804.9h.7v-.7h-.7v.7Z" class="g2_11"/>
<path fill-rule="evenodd" d="M80.3 804.9H419.9v-.7H80.3v.7Z" class="g2_11"/>
<path fill-rule="evenodd" d="M419.9 804.9h.7v-.7h-.7v.7Z" class="g2_11"/>
<path fill-rule="evenodd" d="M420.6 804.9H806.1v-.7H420.6v.7Z" class="g2_11"/>
<path fill-rule="evenodd" d="M806.1 804.9h.7v-.7h-.7v.7Z" class="g2_11"/>
<path fill-rule="evenodd" d="M79.6 851h.7V804.9h-.7V851Z" class="g2_11"/>
<path fill-rule="evenodd" d="M419.9 851h.7V804.9h-.7V851Z" class="g2_11"/>
<path fill-rule="evenodd" d="M806.1 851h.7V804.9h-.7V851Z" class="g2_11"/>
<path fill-rule="evenodd" d="M79.6 851.7h.7V851h-.7v.7Z" class="g2_11"/>
<path fill-rule="evenodd" d="M80.3 851.7H419.9V851H80.3v.7Z" class="g2_11"/>
<path fill-rule="evenodd" d="M419.9 851.7h.7V851h-.7v.7Z" class="g2_11"/>
<path fill-rule="evenodd" d="M420.6 851.7H806.1V851H420.6v.7Z" class="g2_11"/>
<path fill-rule="evenodd" d="M806.1 851.7h.7V851h-.7v.7Z" class="g2_11"/>
<path fill-rule="evenodd" d="M79.6 875h.7V851.7h-.7V875Z" class="g2_11"/>
<path fill-rule="evenodd" d="M419.9 875h.7V851.7h-.7V875Z" class="g2_11"/>
<path fill-rule="evenodd" d="M806.1 875h.7V851.7h-.7V875Z" class="g2_11"/>
<path fill-rule="evenodd" d="M79.6 875.7h.7V875h-.7v.7Z" class="g2_11"/>
<path fill-rule="evenodd" d="M80.3 875.7H419.9V875H80.3v.7Z" class="g2_11"/>
<path fill-rule="evenodd" d="M419.9 875.7h.7V875h-.7v.7Z" class="g2_11"/>
<path fill-rule="evenodd" d="M420.6 875.7H806.1V875H420.6v.7Z" class="g2_11"/>
<path fill-rule="evenodd" d="M806.1 875.7h.7V875h-.7v.7Z" class="g2_11"/>
<path fill-rule="evenodd" d="M79.6 922h.7V875.7h-.7V922Z" class="g2_11"/>
<path fill-rule="evenodd" d="M419.9 922h.7V875.7h-.7V922Z" class="g2_11"/>
<path fill-rule="evenodd" d="M806.1 922h.7V875.7h-.7V922Z" class="g2_11"/>
<path fill-rule="evenodd" d="M79.6 922.7h.7V922h-.7v.7Z" class="g2_11"/>
<path fill-rule="evenodd" d="M80.3 922.7H419.9V922H80.3v.7Z" class="g2_11"/>
<path fill-rule="evenodd" d="M419.9 922.7h.7V922h-.7v.7Z" class="g2_11"/>
<path fill-rule="evenodd" d="M420.6 922.7H806.1V922H420.6v.7Z" class="g2_11"/>
<path fill-rule="evenodd" d="M806.1 922.7h.7V922h-.7v.7Z" class="g2_11"/>
<path fill-rule="evenodd" d="M79.6 968.7h.7v-46h-.7v46Z" class="g2_11"/>
<path fill-rule="evenodd" d="M419.9 968.7h.7v-46h-.7v46Z" class="g2_11"/>
<path fill-rule="evenodd" d="M806.1 968.7h.7v-46h-.7v46Z" class="g2_11"/>
<path fill-rule="evenodd" d="M79.6 969.4h.7v-.7h-.7v.7Z" class="g2_11"/>
<path fill-rule="evenodd" d="M80.3 969.4H419.9v-.7H80.3v.7Z" class="g2_11"/>
<path fill-rule="evenodd" d="M419.9 969.4h.7v-.7h-.7v.7Z" class="g2_11"/>
<path fill-rule="evenodd" d="M420.6 969.4H806.1v-.7H420.6v.7Z" class="g2_11"/>
<path fill-rule="evenodd" d="M806.1 969.4h.7v-.7h-.7v.7Z" class="g2_11"/>
<path fill-rule="evenodd" d="M79.6 1015.5h.7V969.4h-.7v46.1Z" class="g2_11"/>
<path fill-rule="evenodd" d="M419.9 1015.5h.7V969.4h-.7v46.1Z" class="g2_11"/>
<path fill-rule="evenodd" d="M806.1 1015.5h.7V969.4h-.7v46.1Z" class="g2_11"/>
<path fill-rule="evenodd" d="M79.6 1016.2h.7v-.7h-.7v.7Z" class="g2_11"/>
<path fill-rule="evenodd" d="M80.3 1016.2H419.9v-.7H80.3v.7Z" class="g2_11"/>
<path fill-rule="evenodd" d="M419.9 1016.2h.7v-.7h-.7v.7Z" class="g2_11"/>
<path fill-rule="evenodd" d="M420.6 1016.2H806.1v-.7H420.6v.7Z" class="g2_11"/>
<path fill-rule="evenodd" d="M806.1 1016.2h.7v-.7h-.7v.7Z" class="g2_11"/>
<path fill-rule="evenodd" d="M79.6 1062.4h.7v-46.2h-.7v46.2Z" class="g2_11"/>
<path fill-rule="evenodd" d="M79.6 1063.1h.7v-.7h-.7v.7Z" class="g2_11"/>
<path fill-rule="evenodd" d="M79.6 1063.1h.7v-.7h-.7v.7Z" class="g2_11"/>
<path fill-rule="evenodd" d="M80.3 1063.1H419.9v-.7H80.3v.7Z" class="g2_11"/>
<path fill-rule="evenodd" d="M419.9 1062.4h.7v-46.2h-.7v46.2Z" class="g2_11"/>
<path fill-rule="evenodd" d="M419.9 1063.1h.7v-.7h-.7v.7Z" class="g2_11"/>
<path fill-rule="evenodd" d="M420.6 1063.1H806.1v-.7H420.6v.7Z" class="g2_11"/>
<path fill-rule="evenodd" d="M806.1 1062.4h.7v-46.2h-.7v46.2Z" class="g2_11"/>
<path fill-rule="evenodd" d="M806.1 1063.1h.7v-.7h-.7v.7Z" class="g2_11"/>
<path fill-rule="evenodd" d="M806.1 1063.1h.7v-.7h-.7v.7Z" class="g2_11"/>
</svg>