<?xml version="1.0" encoding="UTF-8" standalone="no"?>
<!DOCTYPE svg PUBLIC "-//W3C//DTD SVG 1.1//EN"
"http://www.w3.org/Graphics/SVG/1.1/DTD/svg11.dtd">
<svg viewBox="0 0 909 1286" version="1.1" xmlns="http://www.w3.org/2000/svg" xmlns:xlink="http://www.w3.org/1999/xlink">
<defs>
<clipPath id="c0_73"><path d="M421.9 1209.8v-33.3h52.7v33.3Z"/></clipPath>
<style type="text/css"><![CDATA[
.g0_73{
fill: #4472C4;
}
.g1_73{
fill: #F00;
}
.g2_73{
fill: #373E3F;
}
.g3_73{
fill: #000;
}
]]></style>
</defs>
<path fill-rule="evenodd" d="M49.7 88.9H836.2v-.7H49.7v.7Z" class="g0_73"/>
<path fill-rule="evenodd" d="M49.7 1161.4H836.2v-1.1H49.7v1.1Z" class="g0_73"/>
<image clip-path="url(#c0_73)" preserveAspectRatio="none" x="422" y="1176" width="53" height="34" xlink:href="img/1.png"/>
<path fill-rule="evenodd" d="M95.2 155.1h76.1v-2H95.2v2Z" class="g1_73"/>
<path fill-rule="evenodd" d="M171.3 155.1h5.6v-2h-5.6v2Z" class="g2_73"/>
<path fill-rule="evenodd" d="M116.6 502.8h.8v-5h-.8v5Z" class="g3_73"/>
<path fill-rule="evenodd" d="M116.6 498.6h.8v-.8h-.8v.8Z" class="g3_73"/>
<path fill-rule="evenodd" d="M117.4 498.6H446.7v-.8H117.4v.8Z" class="g3_73"/>
<path fill-rule="evenodd" d="M446.7 498.6h.7v-.8h-.7v.8Z" class="g3_73"/>
<path fill-rule="evenodd" d="M447.4 498.6H801.9v-.8H447.4v.8Z" class="g3_73"/>
<path fill-rule="evenodd" d="M801.9 502.8h.7v-5h-.7v5Z" class="g3_73"/>
<path fill-rule="evenodd" d="M801.9 498.6h.7v-.8h-.7v.8Z" class="g3_73"/>
<path fill-rule="evenodd" d="M119.4 501.7h.7v-.8h-.7v.8Z" class="g3_73"/>
<path fill-rule="evenodd" d="M119.4 501.7h.7v-.8h-.7v.8Z" class="g3_73"/>
<path fill-rule="evenodd" d="M120.1 501.7H444.7v-.8H120.1v.8Z" class="g3_73"/>
<path fill-rule="evenodd" d="M444.7 501.7h.7v-.8h-.7v.8Z" class="g3_73"/>
<path fill-rule="evenodd" d="M444.7 501.7h.7v-.8h-.7v.8Z" class="g3_73"/>
<path fill-rule="evenodd" d="M119.4 527.5h.7v-.7h-.7v.7Z" class="g3_73"/>
<path fill-rule="evenodd" d="M119.4 527.5h.7v-.7h-.7v.7Z" class="g3_73"/>
<path fill-rule="evenodd" d="M120.1 527.5H444.7v-.7H120.1v.7Z" class="g3_73"/>
<path fill-rule="evenodd" d="M444.7 527.5h.7v-.7h-.7v.7Z" class="g3_73"/>
<path fill-rule="evenodd" d="M444.7 527.5h.7v-.7h-.7v.7Z" class="g3_73"/>
<path fill-rule="evenodd" d="M119.4 526.8h.7V501.7h-.7v25.1Z" class="g3_73"/>
<path fill-rule="evenodd" d="M444.7 526.8h.7V501.7h-.7v25.1Z" class="g3_73"/>
<path fill-rule="evenodd" d="M116.6 528.8h.8v-26h-.8v26Z" class="g3_73"/>
<path fill-rule="evenodd" d="M448 501.7h.7v-.8H448v.8Z" class="g3_73"/>
<path fill-rule="evenodd" d="M448 501.7h.7v-.8H448v.8Z" class="g3_73"/>
<path fill-rule="evenodd" d="M448.7 501.7H799.1v-.8H448.7v.8Z" class="g3_73"/>
<path fill-rule="evenodd" d="M799.2 501.7h.7v-.8h-.7v.8Z" class="g3_73"/>
<path fill-rule="evenodd" d="M799.2 501.7h.7v-.8h-.7v.8Z" class="g3_73"/>
<path fill-rule="evenodd" d="M448 527.5h.7v-.7H448v.7Z" class="g3_73"/>
<path fill-rule="evenodd" d="M448 527.5h.7v-.7H448v.7Z" class="g3_73"/>
<path fill-rule="evenodd" d="M448.7 527.5H799.1v-.7H448.7v.7Z" class="g3_73"/>
<path fill-rule="evenodd" d="M799.2 527.5h.7v-.7h-.7v.7Z" class="g3_73"/>
<path fill-rule="evenodd" d="M799.2 527.5h.7v-.7h-.7v.7Z" class="g3_73"/>
<path fill-rule="evenodd" d="M448 526.8h.7V501.7H448v25.1Z" class="g3_73"/>
<path fill-rule="evenodd" d="M799.2 526.8h.7V501.7h-.7v25.1Z" class="g3_73"/>
<path fill-rule="evenodd" d="M801.9 528.8h.7v-26h-.7v26Z" class="g3_73"/>
<path fill-rule="evenodd" d="M116.6 531.9h.8v-3.1h-.8v3.1Z" class="g3_73"/>
<path fill-rule="evenodd" d="M801.9 531.9h.7v-3.1h-.7v3.1Z" class="g3_73"/>
<path fill-rule="evenodd" d="M119.4 530.8h.7v-.7h-.7v.7Z" class="g3_73"/>
<path fill-rule="evenodd" d="M119.4 530.8h.7v-.7h-.7v.7Z" class="g3_73"/>
<path fill-rule="evenodd" d="M120.1 530.8H444.7v-.7H120.1v.7Z" class="g3_73"/>
<path fill-rule="evenodd" d="M444.7 530.8h.7v-.7h-.7v.7Z" class="g3_73"/>
<path fill-rule="evenodd" d="M444.7 530.8h.7v-.7h-.7v.7Z" class="g3_73"/>
<path fill-rule="evenodd" d="M119.4 602.1h.7v-.7h-.7v.7Z" class="g3_73"/>
<path fill-rule="evenodd" d="M119.4 602.1h.7v-.7h-.7v.7Z" class="g3_73"/>
<path fill-rule="evenodd" d="M120.1 602.1H444.7v-.7H120.1v.7Z" class="g3_73"/>
<path fill-rule="evenodd" d="M444.7 602.1h.7v-.7h-.7v.7Z" class="g3_73"/>
<path fill-rule="evenodd" d="M444.7 602.1h.7v-.7h-.7v.7Z" class="g3_73"/>
<path fill-rule="evenodd" d="M119.4 601.4h.7V530.8h-.7v70.6Z" class="g3_73"/>
<path fill-rule="evenodd" d="M444.7 601.4h.7V530.8h-.7v70.6Z" class="g3_73"/>
<path fill-rule="evenodd" d="M116.6 603.4h.8V531.9h-.8v71.5Z" class="g3_73"/>
<path fill-rule="evenodd" d="M448 530.8h.7v-.7H448v.7Z" class="g3_73"/>
<path fill-rule="evenodd" d="M448 530.8h.7v-.7H448v.7Z" class="g3_73"/>
<path fill-rule="evenodd" d="M448.7 530.8H799.1v-.7H448.7v.7Z" class="g3_73"/>
<path fill-rule="evenodd" d="M799.2 530.8h.7v-.7h-.7v.7Z" class="g3_73"/>
<path fill-rule="evenodd" d="M799.2 530.8h.7v-.7h-.7v.7Z" class="g3_73"/>
<path fill-rule="evenodd" d="M448 602.1h.7v-.7H448v.7Z" class="g3_73"/>
<path fill-rule="evenodd" d="M448 602.1h.7v-.7H448v.7Z" class="g3_73"/>
<path fill-rule="evenodd" d="M448.7 602.1H799.1v-.7H448.7v.7Z" class="g3_73"/>
<path fill-rule="evenodd" d="M799.2 602.1h.7v-.7h-.7v.7Z" class="g3_73"/>
<path fill-rule="evenodd" d="M799.2 602.1h.7v-.7h-.7v.7Z" class="g3_73"/>
<path fill-rule="evenodd" d="M448 601.4h.7V530.8H448v70.6Z" class="g3_73"/>
<path fill-rule="evenodd" d="M799.2 601.4h.7V530.8h-.7v70.6Z" class="g3_73"/>
<path fill-rule="evenodd" d="M801.9 603.4h.7V531.9h-.7v71.5Z" class="g3_73"/>
<path fill-rule="evenodd" d="M116.6 606.5h.8v-3.1h-.8v3.1Z" class="g3_73"/>
<path fill-rule="evenodd" d="M801.9 606.5h.7v-3.1h-.7v3.1Z" class="g3_73"/>
<path fill-rule="evenodd" d="M119.4 605.4h.7v-.7h-.7v.7Z" class="g3_73"/>
<path fill-rule="evenodd" d="M119.4 605.4h.7v-.7h-.7v.7Z" class="g3_73"/>
<path fill-rule="evenodd" d="M120.1 605.4H444.7v-.7H120.1v.7Z" class="g3_73"/>
<path fill-rule="evenodd" d="M444.7 605.4h.7v-.7h-.7v.7Z" class="g3_73"/>
<path fill-rule="evenodd" d="M444.7 605.4h.7v-.7h-.7v.7Z" class="g3_73"/>
<path fill-rule="evenodd" d="M119.4 653.9h.7v-.8h-.7v.8Z" class="g3_73"/>
<path fill-rule="evenodd" d="M119.4 653.9h.7v-.8h-.7v.8Z" class="g3_73"/>
<path fill-rule="evenodd" d="M120.1 653.9H444.7v-.8H120.1v.8Z" class="g3_73"/>
<path fill-rule="evenodd" d="M444.7 653.9h.7v-.8h-.7v.8Z" class="g3_73"/>
<path fill-rule="evenodd" d="M444.7 653.9h.7v-.8h-.7v.8Z" class="g3_73"/>
<path fill-rule="evenodd" d="M119.4 653.1h.7V605.4h-.7v47.7Z" class="g3_73"/>
<path fill-rule="evenodd" d="M444.7 653.1h.7V605.4h-.7v47.7Z" class="g3_73"/>
<path fill-rule="evenodd" d="M116.6 655.2h.8V606.5h-.8v48.7Z" class="g3_73"/>
<path fill-rule="evenodd" d="M448 605.4h.7v-.7H448v.7Z" class="g3_73"/>
<path fill-rule="evenodd" d="M448 605.4h.7v-.7H448v.7Z" class="g3_73"/>
<path fill-rule="evenodd" d="M448.7 605.4H799.1v-.7H448.7v.7Z" class="g3_73"/>
<path fill-rule="evenodd" d="M799.2 605.4h.7v-.7h-.7v.7Z" class="g3_73"/>
<path fill-rule="evenodd" d="M799.2 605.4h.7v-.7h-.7v.7Z" class="g3_73"/>
<path fill-rule="evenodd" d="M448 653.9h.7v-.8H448v.8Z" class="g3_73"/>
<path fill-rule="evenodd" d="M448 653.9h.7v-.8H448v.8Z" class="g3_73"/>
<path fill-rule="evenodd" d="M448.7 653.9H799.1v-.8H448.7v.8Z" class="g3_73"/>
<path fill-rule="evenodd" d="M799.2 653.9h.7v-.8h-.7v.8Z" class="g3_73"/>
<path fill-rule="evenodd" d="M799.2 653.9h.7v-.8h-.7v.8Z" class="g3_73"/>
<path fill-rule="evenodd" d="M448 653.1h.7V605.4H448v47.7Z" class="g3_73"/>
<path fill-rule="evenodd" d="M799.2 653.1h.7V605.4h-.7v47.7Z" class="g3_73"/>
<path fill-rule="evenodd" d="M801.9 655.2h.7V606.5h-.7v48.7Z" class="g3_73"/>
<path fill-rule="evenodd" d="M116.6 658.3h.8v-3.1h-.8v3.1Z" class="g3_73"/>
<path fill-rule="evenodd" d="M801.9 658.3h.7v-3.1h-.7v3.1Z" class="g3_73"/>
<path fill-rule="evenodd" d="M119.4 657.2h.7v-.8h-.7v.8Z" class="g3_73"/>
<path fill-rule="evenodd" d="M119.4 657.2h.7v-.8h-.7v.8Z" class="g3_73"/>
<path fill-rule="evenodd" d="M120.1 657.2H444.7v-.8H120.1v.8Z" class="g3_73"/>
<path fill-rule="evenodd" d="M444.7 657.2h.7v-.8h-.7v.8Z" class="g3_73"/>
<path fill-rule="evenodd" d="M444.7 657.2h.7v-.8h-.7v.8Z" class="g3_73"/>
<path fill-rule="evenodd" d="M119.4 751.4h.7v-.7h-.7v.7Z" class="g3_73"/>
<path fill-rule="evenodd" d="M119.4 751.4h.7v-.7h-.7v.7Z" class="g3_73"/>
<path fill-rule="evenodd" d="M120.1 751.4H444.7v-.7H120.1v.7Z" class="g3_73"/>
<path fill-rule="evenodd" d="M444.7 751.4h.7v-.7h-.7v.7Z" class="g3_73"/>
<path fill-rule="evenodd" d="M444.7 751.4h.7v-.7h-.7v.7Z" class="g3_73"/>
<path fill-rule="evenodd" d="M119.4 750.7h.7V657.2h-.7v93.5Z" class="g3_73"/>
<path fill-rule="evenodd" d="M444.7 750.7h.7V657.2h-.7v93.5Z" class="g3_73"/>
<path fill-rule="evenodd" d="M116.6 752.7h.8V658.3h-.8v94.4Z" class="g3_73"/>
<path fill-rule="evenodd" d="M448 657.2h.7v-.8H448v.8Z" class="g3_73"/>
<path fill-rule="evenodd" d="M448 657.2h.7v-.8H448v.8Z" class="g3_73"/>
<path fill-rule="evenodd" d="M448.7 657.2H799.1v-.8H448.7v.8Z" class="g3_73"/>
<path fill-rule="evenodd" d="M799.2 657.2h.7v-.8h-.7v.8Z" class="g3_73"/>
<path fill-rule="evenodd" d="M799.2 657.2h.7v-.8h-.7v.8Z" class="g3_73"/>
<path fill-rule="evenodd" d="M448 751.4h.7v-.7H448v.7Z" class="g3_73"/>
<path fill-rule="evenodd" d="M448 751.4h.7v-.7H448v.7Z" class="g3_73"/>
<path fill-rule="evenodd" d="M448.7 751.4H799.1v-.7H448.7v.7Z" class="g3_73"/>
<path fill-rule="evenodd" d="M799.2 751.4h.7v-.7h-.7v.7Z" class="g3_73"/>
<path fill-rule="evenodd" d="M799.2 751.4h.7v-.7h-.7v.7Z" class="g3_73"/>
<path fill-rule="evenodd" d="M448 750.7h.7V657.2H448v93.5Z" class="g3_73"/>
<path fill-rule="evenodd" d="M799.2 750.7h.7V657.2h-.7v93.5Z" class="g3_73"/>
<path fill-rule="evenodd" d="M801.9 752.7h.7V658.3h-.7v94.4Z" class="g3_73"/>
<path fill-rule="evenodd" d="M116.6 755.8h.8v-3.1h-.8v3.1Z" class="g3_73"/>
<path fill-rule="evenodd" d="M801.9 755.8h.7v-3.1h-.7v3.1Z" class="g3_73"/>
<path fill-rule="evenodd" d="M119.4 754.7h.7V754h-.7v.7Z" class="g3_73"/>
<path fill-rule="evenodd" d="M119.4 754.7h.7V754h-.7v.7Z" class="g3_73"/>
<path fill-rule="evenodd" d="M120.1 754.7H444.7V754H120.1v.7Z" class="g3_73"/>
<path fill-rule="evenodd" d="M444.7 754.7h.7V754h-.7v.7Z" class="g3_73"/>
<path fill-rule="evenodd" d="M444.7 754.7h.7V754h-.7v.7Z" class="g3_73"/>
<path fill-rule="evenodd" d="M119.4 826h.7v-.7h-.7v.7Z" class="g3_73"/>
<path fill-rule="evenodd" d="M119.4 826h.7v-.7h-.7v.7Z" class="g3_73"/>
<path fill-rule="evenodd" d="M120.1 826H444.7v-.7H120.1v.7Z" class="g3_73"/>
<path fill-rule="evenodd" d="M444.7 826h.7v-.7h-.7v.7Z" class="g3_73"/>
<path fill-rule="evenodd" d="M444.7 826h.7v-.7h-.7v.7Z" class="g3_73"/>
<path fill-rule="evenodd" d="M119.4 825.3h.7V754.7h-.7v70.6Z" class="g3_73"/>
<path fill-rule="evenodd" d="M444.7 825.3h.7V754.7h-.7v70.6Z" class="g3_73"/>
<path fill-rule="evenodd" d="M116.6 827.3h.8V755.8h-.8v71.5Z" class="g3_73"/>
<path fill-rule="evenodd" d="M448 754.7h.7V754H448v.7Z" class="g3_73"/>
<path fill-rule="evenodd" d="M448 754.7h.7V754H448v.7Z" class="g3_73"/>
<path fill-rule="evenodd" d="M448.7 754.7H799.1V754H448.7v.7Z" class="g3_73"/>
<path fill-rule="evenodd" d="M799.2 754.7h.7V754h-.7v.7Z" class="g3_73"/>
<path fill-rule="evenodd" d="M799.2 754.7h.7V754h-.7v.7Z" class="g3_73"/>
<path fill-rule="evenodd" d="M448 826h.7v-.7H448v.7Z" class="g3_73"/>
<path fill-rule="evenodd" d="M448 826h.7v-.7H448v.7Z" class="g3_73"/>
<path fill-rule="evenodd" d="M448.7 826H799.1v-.7H448.7v.7Z" class="g3_73"/>
<path fill-rule="evenodd" d="M799.2 826h.7v-.7h-.7v.7Z" class="g3_73"/>
<path fill-rule="evenodd" d="M799.2 826h.7v-.7h-.7v.7Z" class="g3_73"/>
<path fill-rule="evenodd" d="M448 825.3h.7V754.7H448v70.6Z" class="g3_73"/>
<path fill-rule="evenodd" d="M799.2 825.3h.7V754.7h-.7v70.6Z" class="g3_73"/>
<path fill-rule="evenodd" d="M801.9 827.3h.7V755.8h-.7v71.5Z" class="g3_73"/>
<path fill-rule="evenodd" d="M116.6 830.4h.8v-3.1h-.8v3.1Z" class="g3_73"/>
<path fill-rule="evenodd" d="M801.9 830.4h.7v-3.1h-.7v3.1Z" class="g3_73"/>
<path fill-rule="evenodd" d="M119.4 829.3h.7v-.7h-.7v.7Z" class="g3_73"/>
<path fill-rule="evenodd" d="M119.4 829.3h.7v-.7h-.7v.7Z" class="g3_73"/>
<path fill-rule="evenodd" d="M120.1 829.3H444.7v-.7H120.1v.7Z" class="g3_73"/>
<path fill-rule="evenodd" d="M444.7 829.3h.7v-.7h-.7v.7Z" class="g3_73"/>
<path fill-rule="evenodd" d="M444.7 829.3h.7v-.7h-.7v.7Z" class="g3_73"/>
<path fill-rule="evenodd" d="M119.4 923.6h.7v-.7h-.7v.7Z" class="g3_73"/>
<path fill-rule="evenodd" d="M119.4 923.6h.7v-.7h-.7v.7Z" class="g3_73"/>
<path fill-rule="evenodd" d="M120.1 923.6H444.7v-.7H120.1v.7Z" class="g3_73"/>
<path fill-rule="evenodd" d="M444.7 923.6h.7v-.7h-.7v.7Z" class="g3_73"/>
<path fill-rule="evenodd" d="M444.7 923.6h.7v-.7h-.7v.7Z" class="g3_73"/>
<path fill-rule="evenodd" d="M119.4 922.9h.7V829.3h-.7v93.6Z" class="g3_73"/>
<path fill-rule="evenodd" d="M444.7 922.9h.7V829.3h-.7v93.6Z" class="g3_73"/>
<path fill-rule="evenodd" d="M116.6 924.9h.8V830.4h-.8v94.5Z" class="g3_73"/>
<path fill-rule="evenodd" d="M448 829.3h.7v-.7H448v.7Z" class="g3_73"/>
<path fill-rule="evenodd" d="M448 829.3h.7v-.7H448v.7Z" class="g3_73"/>
<path fill-rule="evenodd" d="M448.7 829.3H799.1v-.7H448.7v.7Z" class="g3_73"/>
<path fill-rule="evenodd" d="M799.2 829.3h.7v-.7h-.7v.7Z" class="g3_73"/>
<path fill-rule="evenodd" d="M799.2 829.3h.7v-.7h-.7v.7Z" class="g3_73"/>
<path fill-rule="evenodd" d="M448 923.6h.7v-.7H448v.7Z" class="g3_73"/>
<path fill-rule="evenodd" d="M448 923.6h.7v-.7H448v.7Z" class="g3_73"/>
<path fill-rule="evenodd" d="M448.7 923.6H799.1v-.7H448.7v.7Z" class="g3_73"/>
<path fill-rule="evenodd" d="M799.2 923.6h.7v-.7h-.7v.7Z" class="g3_73"/>
<path fill-rule="evenodd" d="M799.2 923.6h.7v-.7h-.7v.7Z" class="g3_73"/>
<path fill-rule="evenodd" d="M448 922.9h.7V829.3H448v93.6Z" class="g3_73"/>
<path fill-rule="evenodd" d="M799.2 922.9h.7V829.3h-.7v93.6Z" class="g3_73"/>
<path fill-rule="evenodd" d="M801.9 924.9h.7V830.4h-.7v94.5Z" class="g3_73"/>
<path fill-rule="evenodd" d="M116.6 928h.8v-3.1h-.8V928Z" class="g3_73"/>
<path fill-rule="evenodd" d="M801.9 928h.7v-3.1h-.7V928Z" class="g3_73"/>
<path fill-rule="evenodd" d="M119.4 926.9h.7v-.7h-.7v.7Z" class="g3_73"/>
<path fill-rule="evenodd" d="M119.4 926.9h.7v-.7h-.7v.7Z" class="g3_73"/>
<path fill-rule="evenodd" d="M120.1 926.9H444.7v-.7H120.1v.7Z" class="g3_73"/>
<path fill-rule="evenodd" d="M444.7 926.9h.7v-.7h-.7v.7Z" class="g3_73"/>
<path fill-rule="evenodd" d="M444.7 926.9h.7v-.7h-.7v.7Z" class="g3_73"/>
<path fill-rule="evenodd" d="M119.4 998.2h.7v-.7h-.7v.7Z" class="g3_73"/>
<path fill-rule="evenodd" d="M119.4 998.2h.7v-.7h-.7v.7Z" class="g3_73"/>
<path fill-rule="evenodd" d="M120.1 998.2H444.7v-.7H120.1v.7Z" class="g3_73"/>
<path fill-rule="evenodd" d="M444.7 998.2h.7v-.7h-.7v.7Z" class="g3_73"/>
<path fill-rule="evenodd" d="M444.7 998.2h.7v-.7h-.7v.7Z" class="g3_73"/>
<path fill-rule="evenodd" d="M119.4 997.5h.7V926.9h-.7v70.6Z" class="g3_73"/>
<path fill-rule="evenodd" d="M444.7 997.5h.7V926.9h-.7v70.6Z" class="g3_73"/>
<path fill-rule="evenodd" d="M116.6 999.5h.8V928h-.8v71.5Z" class="g3_73"/>
<path fill-rule="evenodd" d="M448 926.9h.7v-.7H448v.7Z" class="g3_73"/>
<path fill-rule="evenodd" d="M448 926.9h.7v-.7H448v.7Z" class="g3_73"/>
<path fill-rule="evenodd" d="M448.7 926.9H799.1v-.7H448.7v.7Z" class="g3_73"/>
<path fill-rule="evenodd" d="M799.2 926.9h.7v-.7h-.7v.7Z" class="g3_73"/>
<path fill-rule="evenodd" d="M799.2 926.9h.7v-.7h-.7v.7Z" class="g3_73"/>
<path fill-rule="evenodd" d="M448 998.2h.7v-.7H448v.7Z" class="g3_73"/>
<path fill-rule="evenodd" d="M448 998.2h.7v-.7H448v.7Z" class="g3_73"/>
<path fill-rule="evenodd" d="M448.7 998.2H799.1v-.7H448.7v.7Z" class="g3_73"/>
<path fill-rule="evenodd" d="M799.2 998.2h.7v-.7h-.7v.7Z" class="g3_73"/>
<path fill-rule="evenodd" d="M799.2 998.2h.7v-.7h-.7v.7Z" class="g3_73"/>
<path fill-rule="evenodd" d="M448 997.5h.7V926.9H448v70.6Z" class="g3_73"/>
<path fill-rule="evenodd" d="M799.2 997.5h.7V926.9h-.7v70.6Z" class="g3_73"/>
<path fill-rule="evenodd" d="M801.9 999.5h.7V928h-.7v71.5Z" class="g3_73"/>
<path fill-rule="evenodd" d="M116.6 1002.6h.8v-3.1h-.8v3.1Z" class="g3_73"/>
<path fill-rule="evenodd" d="M801.9 1002.6h.7v-3.1h-.7v3.1Z" class="g3_73"/>
<path fill-rule="evenodd" d="M119.4 1001.5h.7v-.7h-.7v.7Z" class="g3_73"/>
<path fill-rule="evenodd" d="M119.4 1001.5h.7v-.7h-.7v.7Z" class="g3_73"/>
<path fill-rule="evenodd" d="M120.1 1001.5H444.7v-.7H120.1v.7Z" class="g3_73"/>
<path fill-rule="evenodd" d="M444.7 1001.5h.7v-.7h-.7v.7Z" class="g3_73"/>
<path fill-rule="evenodd" d="M444.7 1001.5h.7v-.7h-.7v.7Z" class="g3_73"/>
<path fill-rule="evenodd" d="M119.4 1049.9h.7v-.7h-.7v.7Z" class="g3_73"/>
<path fill-rule="evenodd" d="M119.4 1049.9h.7v-.7h-.7v.7Z" class="g3_73"/>
<path fill-rule="evenodd" d="M120.1 1049.9H444.7v-.7H120.1v.7Z" class="g3_73"/>
<path fill-rule="evenodd" d="M444.7 1049.9h.7v-.7h-.7v.7Z" class="g3_73"/>
<path fill-rule="evenodd" d="M444.7 1049.9h.7v-.7h-.7v.7Z" class="g3_73"/>
<path fill-rule="evenodd" d="M119.4 1049.2h.7v-47.7h-.7v47.7Z" class="g3_73"/>
<path fill-rule="evenodd" d="M444.7 1049.2h.7v-47.7h-.7v47.7Z" class="g3_73"/>
<path fill-rule="evenodd" d="M116.6 1051.2h.8v-48.6h-.8v48.6Z" class="g3_73"/>
<path fill-rule="evenodd" d="M448 1001.5h.7v-.7H448v.7Z" class="g3_73"/>
<path fill-rule="evenodd" d="M448 1001.5h.7v-.7H448v.7Z" class="g3_73"/>
<path fill-rule="evenodd" d="M448.7 1001.5H799.1v-.7H448.7v.7Z" class="g3_73"/>
<path fill-rule="evenodd" d="M799.2 1001.5h.7v-.7h-.7v.7Z" class="g3_73"/>
<path fill-rule="evenodd" d="M799.2 1001.5h.7v-.7h-.7v.7Z" class="g3_73"/>
<path fill-rule="evenodd" d="M448 1049.9h.7v-.7H448v.7Z" class="g3_73"/>
<path fill-rule="evenodd" d="M448 1049.9h.7v-.7H448v.7Z" class="g3_73"/>
<path fill-rule="evenodd" d="M448.7 1049.9H799.1v-.7H448.7v.7Z" class="g3_73"/>
<path fill-rule="evenodd" d="M799.2 1049.9h.7v-.7h-.7v.7Z" class="g3_73"/>
<path fill-rule="evenodd" d="M799.2 1049.9h.7v-.7h-.7v.7Z" class="g3_73"/>
<path fill-rule="evenodd" d="M448 1049.2h.7v-47.7H448v47.7Z" class="g3_73"/>
<path fill-rule="evenodd" d="M799.2 1049.2h.7v-47.7h-.7v47.7Z" class="g3_73"/>
<path fill-rule="evenodd" d="M801.9 1051.2h.7v-48.6h-.7v48.6Z" class="g3_73"/>
<path fill-rule="evenodd" d="M116.6 1054.3h.8v-3.1h-.8v3.1Z" class="g3_73"/>
<path fill-rule="evenodd" d="M801.9 1054.3h.7v-3.1h-.7v3.1Z" class="g3_73"/>
<path fill-rule="evenodd" d="M119.4 1053.2h.7v-.7h-.7v.7Z" class="g3_73"/>
<path fill-rule="evenodd" d="M119.4 1053.2h.7v-.7h-.7v.7Z" class="g3_73"/>
<path fill-rule="evenodd" d="M120.1 1053.2H444.7v-.7H120.1v.7Z" class="g3_73"/>
<path fill-rule="evenodd" d="M444.7 1053.2h.7v-.7h-.7v.7Z" class="g3_73"/>
<path fill-rule="evenodd" d="M444.7 1053.2h.7v-.7h-.7v.7Z" class="g3_73"/>
<path fill-rule="evenodd" d="M119.4 1124.7h.7v-.7h-.7v.7Z" class="g3_73"/>
<path fill-rule="evenodd" d="M119.4 1124.7h.7v-.7h-.7v.7Z" class="g3_73"/>
<path fill-rule="evenodd" d="M120.1 1124.7H444.7v-.7H120.1v.7Z" class="g3_73"/>
<path fill-rule="evenodd" d="M444.7 1124.7h.7v-.7h-.7v.7Z" class="g3_73"/>
<path fill-rule="evenodd" d="M444.7 1124.7h.7v-.7h-.7v.7Z" class="g3_73"/>
<path fill-rule="evenodd" d="M119.4 1124h.7v-70.8h-.7V1124Z" class="g3_73"/>
<path fill-rule="evenodd" d="M444.7 1124h.7v-70.8h-.7V1124Z" class="g3_73"/>
<path fill-rule="evenodd" d="M116.6 1127.1h.8v-72.8h-.8v72.8Z" class="g3_73"/>
<path fill-rule="evenodd" d="M116.6 1127.8h.8v-.7h-.8v.7Z" class="g3_73"/>
<path fill-rule="evenodd" d="M116.6 1127.8h.8v-.7h-.8v.7Z" class="g3_73"/>
<path fill-rule="evenodd" d="M117.4 1127.8H446.7v-.7H117.4v.7Z" class="g3_73"/>
<path fill-rule="evenodd" d="M448 1053.2h.7v-.7H448v.7Z" class="g3_73"/>
<path fill-rule="evenodd" d="M448 1053.2h.7v-.7H448v.7Z" class="g3_73"/>
<path fill-rule="evenodd" d="M448.7 1053.2H799.1v-.7H448.7v.7Z" class="g3_73"/>
<path fill-rule="evenodd" d="M799.2 1053.2h.7v-.7h-.7v.7Z" class="g3_73"/>
<path fill-rule="evenodd" d="M799.2 1053.2h.7v-.7h-.7v.7Z" class="g3_73"/>
<path fill-rule="evenodd" d="M448 1124.7h.7v-.7H448v.7Z" class="g3_73"/>
<path fill-rule="evenodd" d="M448 1124.7h.7v-.7H448v.7Z" class="g3_73"/>
<path fill-rule="evenodd" d="M448.7 1124.7H799.1v-.7H448.7v.7Z" class="g3_73"/>
<path fill-rule="evenodd" d="M799.2 1124.7h.7v-.7h-.7v.7Z" class="g3_73"/>
<path fill-rule="evenodd" d="M799.2 1124.7h.7v-.7h-.7v.7Z" class="g3_73"/>
<path fill-rule="evenodd" d="M448 1124h.7v-70.8H448V1124Z" class="g3_73"/>
<path fill-rule="evenodd" d="M799.2 1124h.7v-70.8h-.7V1124Z" class="g3_73"/>
<path fill-rule="evenodd" d="M446.7 1127.8h.7v-.7h-.7v.7Z" class="g3_73"/>
<path fill-rule="evenodd" d="M447.4 1127.8H801.9v-.7H447.4v.7Z" class="g3_73"/>
<path fill-rule="evenodd" d="M801.9 1127.1h.7v-72.8h-.7v72.8Z" class="g3_73"/>
<path fill-rule="evenodd" d="M801.9 1127.8h.7v-.7h-.7v.7Z" class="g3_73"/>
<path fill-rule="evenodd" d="M801.9 1127.8h.7v-.7h-.7v.7Z" class="g3_73"/>
</svg>