<?xml version="1.0" encoding="UTF-8" standalone="no"?>
<!DOCTYPE svg PUBLIC "-//W3C//DTD SVG 1.1//EN"
"http://www.w3.org/Graphics/SVG/1.1/DTD/svg11.dtd">
<svg viewBox="0 0 909 1286" version="1.1" xmlns="http://www.w3.org/2000/svg" xmlns:xlink="http://www.w3.org/1999/xlink">
<defs>
<clipPath id="c0_46"><path d="M421.9 1209.8v-33.3h52.7v33.3Z"/></clipPath>
<style type="text/css"><![CDATA[
.g0_46{
fill: #4472C4;
}
.g1_46{
fill: #000;
}
]]></style>
</defs>
<path fill-rule="evenodd" d="M49.7 88.9H855.8v-.7H49.7v.7Z" class="g0_46"/>
<path fill-rule="evenodd" d="M49.7 1161.4H855.8v-1.1H49.7v1.1Z" class="g0_46"/>
<image clip-path="url(#c0_46)" preserveAspectRatio="none" x="422" y="1176" width="53" height="34" xlink:href="img/1.png"/>
<path fill-rule="evenodd" d="M116.6 133.1h.8v-.7h-.8v.7Z" class="g1_46"/>
<path fill-rule="evenodd" d="M116.6 133.1h.8v-.7h-.8v.7Z" class="g1_46"/>
<path fill-rule="evenodd" d="M117.4 133.1h324v-.7h-324v.7Z" class="g1_46"/>
<path fill-rule="evenodd" d="M441.4 133.1h.7v-.7h-.7v.7Z" class="g1_46"/>
<path fill-rule="evenodd" d="M442.1 133.1H766.3v-.7H442.1v.7Z" class="g1_46"/>
<path fill-rule="evenodd" d="M766.3 133.1h.7v-.7h-.7v.7Z" class="g1_46"/>
<path fill-rule="evenodd" d="M766.3 133.1h.7v-.7h-.7v.7Z" class="g1_46"/>
<path fill-rule="evenodd" d="M116.6 156h.8V133.1h-.8V156Z" class="g1_46"/>
<path fill-rule="evenodd" d="M441.4 156h.7V133.1h-.7V156Z" class="g1_46"/>
<path fill-rule="evenodd" d="M766.3 156h.7V133.1h-.7V156Z" class="g1_46"/>
<path fill-rule="evenodd" d="M116.6 156.8h.8V156h-.8v.8Z" class="g1_46"/>
<path fill-rule="evenodd" d="M117.4 156.8h324V156h-324v.8Z" class="g1_46"/>
<path fill-rule="evenodd" d="M441.4 156.8h.7V156h-.7v.8Z" class="g1_46"/>
<path fill-rule="evenodd" d="M442.1 156.8H766.3V156H442.1v.8Z" class="g1_46"/>
<path fill-rule="evenodd" d="M766.3 156.8h.7V156h-.7v.8Z" class="g1_46"/>
<path fill-rule="evenodd" d="M116.6 202.4h.8V156.8h-.8v45.6Z" class="g1_46"/>
<path fill-rule="evenodd" d="M441.4 202.4h.7V156.8h-.7v45.6Z" class="g1_46"/>
<path fill-rule="evenodd" d="M766.3 202.4h.7V156.8h-.7v45.6Z" class="g1_46"/>
<path fill-rule="evenodd" d="M116.6 203.2h.8v-.8h-.8v.8Z" class="g1_46"/>
<path fill-rule="evenodd" d="M117.4 203.2h324v-.8h-324v.8Z" class="g1_46"/>
<path fill-rule="evenodd" d="M441.4 203.2h.7v-.8h-.7v.8Z" class="g1_46"/>
<path fill-rule="evenodd" d="M442.1 203.2H766.3v-.8H442.1v.8Z" class="g1_46"/>
<path fill-rule="evenodd" d="M766.3 203.2h.7v-.8h-.7v.8Z" class="g1_46"/>
<path fill-rule="evenodd" d="M116.6 249h.8V203.2h-.8V249Z" class="g1_46"/>
<path fill-rule="evenodd" d="M441.4 249h.7V203.2h-.7V249Z" class="g1_46"/>
<path fill-rule="evenodd" d="M766.3 249h.7V203.2h-.7V249Z" class="g1_46"/>
<path fill-rule="evenodd" d="M116.6 249.7h.8V249h-.8v.7Z" class="g1_46"/>
<path fill-rule="evenodd" d="M117.4 249.7h324V249h-324v.7Z" class="g1_46"/>
<path fill-rule="evenodd" d="M441.4 249.7h.7V249h-.7v.7Z" class="g1_46"/>
<path fill-rule="evenodd" d="M442.1 249.7H766.3V249H442.1v.7Z" class="g1_46"/>
<path fill-rule="evenodd" d="M766.3 249.7h.7V249h-.7v.7Z" class="g1_46"/>
<path fill-rule="evenodd" d="M116.6 272.5h.8V249.7h-.8v22.8Z" class="g1_46"/>
<path fill-rule="evenodd" d="M441.4 272.5h.7V249.7h-.7v22.8Z" class="g1_46"/>
<path fill-rule="evenodd" d="M766.3 272.5h.7V249.7h-.7v22.8Z" class="g1_46"/>
<path fill-rule="evenodd" d="M116.6 273.2h.8v-.7h-.8v.7Z" class="g1_46"/>
<path fill-rule="evenodd" d="M117.4 273.2h324v-.7h-324v.7Z" class="g1_46"/>
<path fill-rule="evenodd" d="M441.4 273.2h.7v-.7h-.7v.7Z" class="g1_46"/>
<path fill-rule="evenodd" d="M442.1 273.2H766.3v-.7H442.1v.7Z" class="g1_46"/>
<path fill-rule="evenodd" d="M766.3 273.2h.7v-.7h-.7v.7Z" class="g1_46"/>
<path fill-rule="evenodd" d="M116.6 319h.8V273.2h-.8V319Z" class="g1_46"/>
<path fill-rule="evenodd" d="M441.4 319h.7V273.2h-.7V319Z" class="g1_46"/>
<path fill-rule="evenodd" d="M766.3 319h.7V273.2h-.7V319Z" class="g1_46"/>
<path fill-rule="evenodd" d="M116.6 319.8h.8V319h-.8v.8Z" class="g1_46"/>
<path fill-rule="evenodd" d="M117.4 319.8h324V319h-324v.8Z" class="g1_46"/>
<path fill-rule="evenodd" d="M441.4 319.8h.7V319h-.7v.8Z" class="g1_46"/>
<path fill-rule="evenodd" d="M442.1 319.8H766.3V319H442.1v.8Z" class="g1_46"/>
<path fill-rule="evenodd" d="M766.3 319.8h.7V319h-.7v.8Z" class="g1_46"/>
<path fill-rule="evenodd" d="M116.6 365.4h.8V319.8h-.8v45.6Z" class="g1_46"/>
<path fill-rule="evenodd" d="M441.4 365.4h.7V319.8h-.7v45.6Z" class="g1_46"/>
<path fill-rule="evenodd" d="M766.3 365.4h.7V319.8h-.7v45.6Z" class="g1_46"/>
<path fill-rule="evenodd" d="M116.6 366.1h.8v-.7h-.8v.7Z" class="g1_46"/>
<path fill-rule="evenodd" d="M117.4 366.1h324v-.7h-324v.7Z" class="g1_46"/>
<path fill-rule="evenodd" d="M441.4 366.1h.7v-.7h-.7v.7Z" class="g1_46"/>
<path fill-rule="evenodd" d="M442.1 366.1H766.3v-.7H442.1v.7Z" class="g1_46"/>
<path fill-rule="evenodd" d="M766.3 366.1h.7v-.7h-.7v.7Z" class="g1_46"/>
<path fill-rule="evenodd" d="M116.6 412h.8V366.2h-.8V412Z" class="g1_46"/>
<path fill-rule="evenodd" d="M116.6 412.8h.8V412h-.8v.8Z" class="g1_46"/>
<path fill-rule="evenodd" d="M116.6 412.8h.8V412h-.8v.8Z" class="g1_46"/>
<path fill-rule="evenodd" d="M117.4 412.8h324V412h-324v.8Z" class="g1_46"/>
<path fill-rule="evenodd" d="M441.4 412h.7V366.2h-.7V412Z" class="g1_46"/>
<path fill-rule="evenodd" d="M441.4 412.8h.7V412h-.7v.8Z" class="g1_46"/>
<path fill-rule="evenodd" d="M442.1 412.8H766.3V412H442.1v.8Z" class="g1_46"/>
<path fill-rule="evenodd" d="M766.3 412h.7V366.2h-.7V412Z" class="g1_46"/>
<path fill-rule="evenodd" d="M766.3 412.8h.7V412h-.7v.8Z" class="g1_46"/>
<path fill-rule="evenodd" d="M766.3 412.8h.7V412h-.7v.8Z" class="g1_46"/>
<path fill-rule="evenodd" d="M116.6 459.1h.8v-.7h-.8v.7Z" class="g1_46"/>
<path fill-rule="evenodd" d="M116.6 459.1h.8v-.7h-.8v.7Z" class="g1_46"/>
<path fill-rule="evenodd" d="M117.4 459.1h324v-.7h-324v.7Z" class="g1_46"/>
<path fill-rule="evenodd" d="M441.4 459.1h.7v-.7h-.7v.7Z" class="g1_46"/>
<path fill-rule="evenodd" d="M442.1 459.1H766.3v-.7H442.1v.7Z" class="g1_46"/>
<path fill-rule="evenodd" d="M766.3 459.1h.7v-.7h-.7v.7Z" class="g1_46"/>
<path fill-rule="evenodd" d="M766.3 459.1h.7v-.7h-.7v.7Z" class="g1_46"/>
<path fill-rule="evenodd" d="M116.6 481.9h.8V459.1h-.8v22.8Z" class="g1_46"/>
<path fill-rule="evenodd" d="M441.4 481.9h.7V459.1h-.7v22.8Z" class="g1_46"/>
<path fill-rule="evenodd" d="M766.3 481.9h.7V459.1h-.7v22.8Z" class="g1_46"/>
<path fill-rule="evenodd" d="M116.6 482.6h.8v-.7h-.8v.7Z" class="g1_46"/>
<path fill-rule="evenodd" d="M117.4 482.6h324v-.7h-324v.7Z" class="g1_46"/>
<path fill-rule="evenodd" d="M441.4 482.6h.7v-.7h-.7v.7Z" class="g1_46"/>
<path fill-rule="evenodd" d="M442.1 482.6H766.3v-.7H442.1v.7Z" class="g1_46"/>
<path fill-rule="evenodd" d="M766.3 482.6h.7v-.7h-.7v.7Z" class="g1_46"/>
<path fill-rule="evenodd" d="M116.6 505.5h.8V482.6h-.8v22.9Z" class="g1_46"/>
<path fill-rule="evenodd" d="M441.4 505.5h.7V482.6h-.7v22.9Z" class="g1_46"/>
<path fill-rule="evenodd" d="M766.3 505.5h.7V482.6h-.7v22.9Z" class="g1_46"/>
<path fill-rule="evenodd" d="M116.6 506.3h.8v-.8h-.8v.8Z" class="g1_46"/>
<path fill-rule="evenodd" d="M117.4 506.3h324v-.8h-324v.8Z" class="g1_46"/>
<path fill-rule="evenodd" d="M441.4 506.3h.7v-.8h-.7v.8Z" class="g1_46"/>
<path fill-rule="evenodd" d="M442.1 506.3H766.3v-.8H442.1v.8Z" class="g1_46"/>
<path fill-rule="evenodd" d="M766.3 506.3h.7v-.8h-.7v.8Z" class="g1_46"/>
<path fill-rule="evenodd" d="M116.6 551.9h.8V506.3h-.8v45.6Z" class="g1_46"/>
<path fill-rule="evenodd" d="M441.4 551.9h.7V506.3h-.7v45.6Z" class="g1_46"/>
<path fill-rule="evenodd" d="M766.3 551.9h.7V506.3h-.7v45.6Z" class="g1_46"/>
<path fill-rule="evenodd" d="M116.6 552.6h.8v-.7h-.8v.7Z" class="g1_46"/>
<path fill-rule="evenodd" d="M117.4 552.6h324v-.7h-324v.7Z" class="g1_46"/>
<path fill-rule="evenodd" d="M441.4 552.6h.7v-.7h-.7v.7Z" class="g1_46"/>
<path fill-rule="evenodd" d="M442.1 552.6H766.3v-.7H442.1v.7Z" class="g1_46"/>
<path fill-rule="evenodd" d="M766.3 552.6h.7v-.7h-.7v.7Z" class="g1_46"/>
<path fill-rule="evenodd" d="M116.6 598.5h.8V552.6h-.8v45.9Z" class="g1_46"/>
<path fill-rule="evenodd" d="M441.4 598.5h.7V552.6h-.7v45.9Z" class="g1_46"/>
<path fill-rule="evenodd" d="M766.3 598.5h.7V552.6h-.7v45.9Z" class="g1_46"/>
<path fill-rule="evenodd" d="M116.6 599.2h.8v-.7h-.8v.7Z" class="g1_46"/>
<path fill-rule="evenodd" d="M117.4 599.2h324v-.7h-324v.7Z" class="g1_46"/>
<path fill-rule="evenodd" d="M441.4 599.2h.7v-.7h-.7v.7Z" class="g1_46"/>
<path fill-rule="evenodd" d="M442.1 599.2H766.3v-.7H442.1v.7Z" class="g1_46"/>
<path fill-rule="evenodd" d="M766.3 599.2h.7v-.7h-.7v.7Z" class="g1_46"/>
<path fill-rule="evenodd" d="M116.6 667.8h.8V599.2h-.8v68.6Z" class="g1_46"/>
<path fill-rule="evenodd" d="M441.4 667.8h.7V599.2h-.7v68.6Z" class="g1_46"/>
<path fill-rule="evenodd" d="M766.3 667.8h.7V599.2h-.7v68.6Z" class="g1_46"/>
<path fill-rule="evenodd" d="M116.6 668.5h.8v-.7h-.8v.7Z" class="g1_46"/>
<path fill-rule="evenodd" d="M117.4 668.5h324v-.7h-324v.7Z" class="g1_46"/>
<path fill-rule="evenodd" d="M441.4 668.5h.7v-.7h-.7v.7Z" class="g1_46"/>
<path fill-rule="evenodd" d="M442.1 668.5H766.3v-.7H442.1v.7Z" class="g1_46"/>
<path fill-rule="evenodd" d="M766.3 668.5h.7v-.7h-.7v.7Z" class="g1_46"/>
<path fill-rule="evenodd" d="M116.6 714.2h.8V668.5h-.8v45.7Z" class="g1_46"/>
<path fill-rule="evenodd" d="M441.4 714.2h.7V668.5h-.7v45.7Z" class="g1_46"/>
<path fill-rule="evenodd" d="M766.3 714.2h.7V668.5h-.7v45.7Z" class="g1_46"/>
<path fill-rule="evenodd" d="M116.6 714.9h.8v-.7h-.8v.7Z" class="g1_46"/>
<path fill-rule="evenodd" d="M117.4 714.9h324v-.7h-324v.7Z" class="g1_46"/>
<path fill-rule="evenodd" d="M441.4 714.9h.7v-.7h-.7v.7Z" class="g1_46"/>
<path fill-rule="evenodd" d="M442.1 714.9H766.3v-.7H442.1v.7Z" class="g1_46"/>
<path fill-rule="evenodd" d="M766.3 714.9h.7v-.7h-.7v.7Z" class="g1_46"/>
<path fill-rule="evenodd" d="M116.6 760.6h.8V714.9h-.8v45.7Z" class="g1_46"/>
<path fill-rule="evenodd" d="M116.6 761.3h.8v-.7h-.8v.7Z" class="g1_46"/>
<path fill-rule="evenodd" d="M116.6 761.3h.8v-.7h-.8v.7Z" class="g1_46"/>
<path fill-rule="evenodd" d="M117.4 761.3h324v-.7h-324v.7Z" class="g1_46"/>
<path fill-rule="evenodd" d="M441.4 760.6h.7V714.9h-.7v45.7Z" class="g1_46"/>
<path fill-rule="evenodd" d="M441.4 761.3h.7v-.7h-.7v.7Z" class="g1_46"/>
<path fill-rule="evenodd" d="M442.1 761.3H766.3v-.7H442.1v.7Z" class="g1_46"/>
<path fill-rule="evenodd" d="M766.3 760.6h.7V714.9h-.7v45.7Z" class="g1_46"/>
<path fill-rule="evenodd" d="M766.3 761.3h.7v-.7h-.7v.7Z" class="g1_46"/>
<path fill-rule="evenodd" d="M766.3 761.3h.7v-.7h-.7v.7Z" class="g1_46"/>
<path fill-rule="evenodd" d="M116.6 821.4h.8v-.7h-.8v.7Z" class="g1_46"/>
<path fill-rule="evenodd" d="M116.6 821.4h.8v-.7h-.8v.7Z" class="g1_46"/>
<path fill-rule="evenodd" d="M117.4 821.4H448.2v-.7H117.4v.7Z" class="g1_46"/>
<path fill-rule="evenodd" d="M448.2 821.4h.7v-.7h-.7v.7Z" class="g1_46"/>
<path fill-rule="evenodd" d="M448.9 821.4H779.7v-.7H448.9v.7Z" class="g1_46"/>
<path fill-rule="evenodd" d="M779.7 821.4h.7v-.7h-.7v.7Z" class="g1_46"/>
<path fill-rule="evenodd" d="M779.7 821.4h.7v-.7h-.7v.7Z" class="g1_46"/>
<path fill-rule="evenodd" d="M116.6 848.8h.8V821.4h-.8v27.4Z" class="g1_46"/>
<path fill-rule="evenodd" d="M448.2 848.8h.7V821.4h-.7v27.4Z" class="g1_46"/>
<path fill-rule="evenodd" d="M779.7 848.8h.7V821.4h-.7v27.4Z" class="g1_46"/>
<path fill-rule="evenodd" d="M116.6 849.5h.8v-.7h-.8v.7Z" class="g1_46"/>
<path fill-rule="evenodd" d="M117.4 849.5H448.2v-.7H117.4v.7Z" class="g1_46"/>
<path fill-rule="evenodd" d="M448.2 849.5h.7v-.7h-.7v.7Z" class="g1_46"/>
<path fill-rule="evenodd" d="M448.9 849.5H779.7v-.7H448.9v.7Z" class="g1_46"/>
<path fill-rule="evenodd" d="M779.7 849.5h.7v-.7h-.7v.7Z" class="g1_46"/>
<path fill-rule="evenodd" d="M116.6 888h.8V849.5h-.8V888Z" class="g1_46"/>
<path fill-rule="evenodd" d="M448.2 888h.7V849.5h-.7V888Z" class="g1_46"/>
<path fill-rule="evenodd" d="M779.7 888h.7V849.5h-.7V888Z" class="g1_46"/>
<path fill-rule="evenodd" d="M116.6 888.7h.8V888h-.8v.7Z" class="g1_46"/>
<path fill-rule="evenodd" d="M117.4 888.7H448.2V888H117.4v.7Z" class="g1_46"/>
<path fill-rule="evenodd" d="M448.2 888.7h.7V888h-.7v.7Z" class="g1_46"/>
<path fill-rule="evenodd" d="M448.9 888.7H779.7V888H448.9v.7Z" class="g1_46"/>
<path fill-rule="evenodd" d="M779.7 888.7h.7V888h-.7v.7Z" class="g1_46"/>
<path fill-rule="evenodd" d="M116.6 967.1h.8V888.7h-.8v78.4Z" class="g1_46"/>
<path fill-rule="evenodd" d="M448.2 967.1h.7V888.7h-.7v78.4Z" class="g1_46"/>
<path fill-rule="evenodd" d="M779.7 967.1h.7V888.7h-.7v78.4Z" class="g1_46"/>
<path fill-rule="evenodd" d="M116.6 967.8h.8v-.7h-.8v.7Z" class="g1_46"/>
<path fill-rule="evenodd" d="M117.4 967.8H448.2v-.7H117.4v.7Z" class="g1_46"/>
<path fill-rule="evenodd" d="M448.2 967.8h.7v-.7h-.7v.7Z" class="g1_46"/>
<path fill-rule="evenodd" d="M448.9 967.8H779.7v-.7H448.9v.7Z" class="g1_46"/>
<path fill-rule="evenodd" d="M779.7 967.8h.7v-.7h-.7v.7Z" class="g1_46"/>
<path fill-rule="evenodd" d="M116.6 1036.4h.8V967.8h-.8v68.6Z" class="g1_46"/>
<path fill-rule="evenodd" d="M448.2 1036.4h.7V967.8h-.7v68.6Z" class="g1_46"/>
<path fill-rule="evenodd" d="M779.7 1036.4h.7V967.8h-.7v68.6Z" class="g1_46"/>
<path fill-rule="evenodd" d="M116.6 1037.1h.8v-.7h-.8v.7Z" class="g1_46"/>
<path fill-rule="evenodd" d="M117.4 1037.1H448.2v-.7H117.4v.7Z" class="g1_46"/>
<path fill-rule="evenodd" d="M448.2 1037.1h.7v-.7h-.7v.7Z" class="g1_46"/>
<path fill-rule="evenodd" d="M448.9 1037.1H779.7v-.7H448.9v.7Z" class="g1_46"/>
<path fill-rule="evenodd" d="M779.7 1037.1h.7v-.7h-.7v.7Z" class="g1_46"/>
<path fill-rule="evenodd" d="M116.6 1092.6h.8v-55.5h-.8v55.5Z" class="g1_46"/>
<path fill-rule="evenodd" d="M116.6 1093.4h.8v-.8h-.8v.8Z" class="g1_46"/>
<path fill-rule="evenodd" d="M116.6 1093.4h.8v-.8h-.8v.8Z" class="g1_46"/>
<path fill-rule="evenodd" d="M117.4 1093.4H448.2v-.8H117.4v.8Z" class="g1_46"/>
<path fill-rule="evenodd" d="M448.2 1092.6h.7v-55.5h-.7v55.5Z" class="g1_46"/>
<path fill-rule="evenodd" d="M448.2 1093.4h.7v-.8h-.7v.8Z" class="g1_46"/>
<path fill-rule="evenodd" d="M448.9 1093.4H779.7v-.8H448.9v.8Z" class="g1_46"/>
<path fill-rule="evenodd" d="M779.7 1092.6h.7v-55.5h-.7v55.5Z" class="g1_46"/>
<path fill-rule="evenodd" d="M779.7 1093.4h.7v-.8h-.7v.8Z" class="g1_46"/>
<path fill-rule="evenodd" d="M779.7 1093.4h.7v-.8h-.7v.8Z" class="g1_46"/>
</svg>