<?xml version="1.0" encoding="UTF-8" standalone="no"?>
<!DOCTYPE svg PUBLIC "-//W3C//DTD SVG 1.1//EN"
"http://www.w3.org/Graphics/SVG/1.1/DTD/svg11.dtd">
<svg viewBox="0 0 909 1286" version="1.1" xmlns="http://www.w3.org/2000/svg" xmlns:xlink="http://www.w3.org/1999/xlink">
<defs>
<clipPath id="c0_6"><path d="M421.9 1209.8v-33.3h52.7v33.3Z"/></clipPath>
<clipPath id="c1_6"><path d="M271.9 842V645.5H649.2V842Z"/></clipPath>
<style type="text/css"><![CDATA[
.g0_6{
fill: #4472C4;
}
.g1_6{
fill: #000;
}
.g2_6{
fill: #FFF;
}
]]></style>
</defs>
<path fill-rule="evenodd" d="M49.7 88.9H855.8v-.7H49.7v.7Z" class="g0_6"/>
<path fill-rule="evenodd" d="M49.7 1161.4H855.8v-1.1H49.7v1.1Z" class="g0_6"/>
<image clip-path="url(#c0_6)" preserveAspectRatio="none" x="422" y="1176" width="53" height="34" xlink:href="img/1.png"/>
<path fill-rule="evenodd" d="M105.6 110.4h.8v-.8h-.8v.8Z" class="g1_6"/>
<path fill-rule="evenodd" d="M105.6 110.4h.8v-.8h-.8v.8Z" class="g1_6"/>
<path fill-rule="evenodd" d="M106.4 110.4H449.3v-.8H106.4v.8Z" class="g1_6"/>
<path fill-rule="evenodd" d="M449.3 110.4h.7v-.8h-.7v.8Z" class="g1_6"/>
<path fill-rule="evenodd" d="M450 110.4H792.7v-.8H450v.8Z" class="g1_6"/>
<path fill-rule="evenodd" d="M792.7 110.4h.8v-.8h-.8v.8Z" class="g1_6"/>
<path fill-rule="evenodd" d="M792.7 110.4h.8v-.8h-.8v.8Z" class="g1_6"/>
<path fill-rule="evenodd" d="M105.6 200.2h.8V110.4h-.8v89.8Z" class="g1_6"/>
<path fill-rule="evenodd" d="M105.6 201h.8v-.8h-.8v.8Z" class="g1_6"/>
<path fill-rule="evenodd" d="M105.6 201h.8v-.8h-.8v.8Z" class="g1_6"/>
<path fill-rule="evenodd" d="M106.4 201H449.3v-.8H106.4v.8Z" class="g1_6"/>
<path fill-rule="evenodd" d="M449.3 200.2h.7V110.4h-.7v89.8Z" class="g1_6"/>
<path fill-rule="evenodd" d="M449.3 201h.7v-.8h-.7v.8Z" class="g1_6"/>
<path fill-rule="evenodd" d="M450 201H792.7v-.8H450v.8Z" class="g1_6"/>
<path fill-rule="evenodd" d="M792.7 200.2h.8V110.4h-.8v89.8Z" class="g1_6"/>
<path fill-rule="evenodd" d="M792.7 201h.8v-.8h-.8v.8Z" class="g1_6"/>
<path fill-rule="evenodd" d="M792.7 201h.8v-.8h-.8v.8Z" class="g1_6"/>
<path fill-rule="evenodd" d="M79.4 411.3h373V388H79.4v23.3Z" class="g2_6"/>
<path fill-rule="evenodd" d="M106 435.5H246.1V412.4H106v23.1Z" class="g2_6"/>
<path fill-rule="evenodd" d="M106 889.8H236.2V866.9H106v22.9Z" class="g2_6"/>
<image clip-path="url(#c1_6)" preserveAspectRatio="none" x="272" y="646" width="377" height="196" xlink:href="img/2.jpg"/>
</svg>