<?xml version="1.0" encoding="UTF-8" standalone="no"?>
<!DOCTYPE svg PUBLIC "-//W3C//DTD SVG 1.1//EN"
"http://www.w3.org/Graphics/SVG/1.1/DTD/svg11.dtd">
<svg viewBox="0 0 909 1286" version="1.1" xmlns="http://www.w3.org/2000/svg" xmlns:xlink="http://www.w3.org/1999/xlink">
<defs>
<clipPath id="c0_95"><path d="M426.2 1230v-33.3H479V1230Z"/></clipPath>
<style type="text/css"><![CDATA[
.g0_95{
fill: #4472C4;
}
.g1_95{
fill: #FF0;
}
.g2_95{
fill: #FFF;
}
.g3_95{
fill: #F9F9F9;
}
]]></style>
</defs>
<path fill-rule="evenodd" d="M49.7 1181.5H855.4v-1.1H49.7v1.1Z" class="g0_95"/>
<image clip-path="url(#c0_95)" preserveAspectRatio="none" x="426" y="1197" width="53" height="33" xlink:href="img/1.png"/>
<path fill-rule="evenodd" d="M111 192h27.5V167.8H111V192Z" class="g1_95"/>
<path fill-rule="evenodd" d="M193.4 824.4H785V801.5H193.4v22.9Z" class="g2_95"/>
<path fill-rule="evenodd" d="M193.4 848.8H822v-23H193.4v23Z" class="g2_95"/>
<path fill-rule="evenodd" d="M193.4 871.5H536V848.8H193.4v22.7Z" class="g2_95"/>
<path fill-rule="evenodd" d="M244.4 896.2h5.5V873.3h-5.5v22.9Z" class="g3_95"/>
<path fill-rule="evenodd" d="M295.2 896.2h5.5V873.3h-5.5v22.9Z" class="g3_95"/>
<path fill-rule="evenodd" d="M401.4 896.2h12.3V873.3H401.4v22.9Z" class="g3_95"/>
<path fill-rule="evenodd" d="M252.1 970.5H446.5V947.6H252.1v22.9Z" class="g3_95"/>
</svg>