<?xml version="1.0" encoding="UTF-8" standalone="no"?>
<!DOCTYPE svg PUBLIC "-//W3C//DTD SVG 1.1//EN"
"http://www.w3.org/Graphics/SVG/1.1/DTD/svg11.dtd">
<svg viewBox="0 0 909 1286" version="1.1" xmlns="http://www.w3.org/2000/svg" xmlns:xlink="http://www.w3.org/1999/xlink">
<defs>
<clipPath id="c0_119"><path d="M426.2 1230v-33.3H479V1230Z"/></clipPath>
<style type="text/css"><![CDATA[
.g0_119{
fill: #4472C4;
}
.g1_119{
fill: #000;
}
]]></style>
</defs>
<path fill-rule="evenodd" d="M49.7 1181.5H855.4v-1.1H49.7v1.1Z" class="g0_119"/>
<image clip-path="url(#c0_119)" preserveAspectRatio="none" x="426" y="1197" width="53" height="33" xlink:href="img/1.png"/>
<path fill-rule="evenodd" d="M142.9 198.8h.7V198h-.7v.8Z" class="g1_119"/>
<path fill-rule="evenodd" d="M142.9 198.8h.7V198h-.7v.8Z" class="g1_119"/>
<path fill-rule="evenodd" d="M143.6 198.8H446.3V198H143.6v.8Z" class="g1_119"/>
<path fill-rule="evenodd" d="M446.3 198.8h.7V198h-.7v.8Z" class="g1_119"/>
<path fill-rule="evenodd" d="M447 198.8H749.3V198H447v.8Z" class="g1_119"/>
<path fill-rule="evenodd" d="M749.3 198.8h.7V198h-.7v.8Z" class="g1_119"/>
<path fill-rule="evenodd" d="M749.3 198.8h.7V198h-.7v.8Z" class="g1_119"/>
<path fill-rule="evenodd" d="M142.9 236.7h.7V198.8h-.7v37.9Z" class="g1_119"/>
<path fill-rule="evenodd" d="M446.3 236.7h.7V198.8h-.7v37.9Z" class="g1_119"/>
<path fill-rule="evenodd" d="M749.3 236.7h.7V198.8h-.7v37.9Z" class="g1_119"/>
<path fill-rule="evenodd" d="M142.9 237.4h.7v-.7h-.7v.7Z" class="g1_119"/>
<path fill-rule="evenodd" d="M143.6 237.4H446.3v-.7H143.6v.7Z" class="g1_119"/>
<path fill-rule="evenodd" d="M446.3 237.4h.7v-.7h-.7v.7Z" class="g1_119"/>
<path fill-rule="evenodd" d="M447 237.4H749.3v-.7H447v.7Z" class="g1_119"/>
<path fill-rule="evenodd" d="M749.3 237.4h.7v-.7h-.7v.7Z" class="g1_119"/>
<path fill-rule="evenodd" d="M142.9 297.2h.7V237.4h-.7v59.8Z" class="g1_119"/>
<path fill-rule="evenodd" d="M446.3 297.2h.7V237.4h-.7v59.8Z" class="g1_119"/>
<path fill-rule="evenodd" d="M749.3 297.2h.7V237.4h-.7v59.8Z" class="g1_119"/>
<path fill-rule="evenodd" d="M142.9 297.9h.7v-.7h-.7v.7Z" class="g1_119"/>
<path fill-rule="evenodd" d="M143.6 297.9H446.3v-.7H143.6v.7Z" class="g1_119"/>
<path fill-rule="evenodd" d="M446.3 297.9h.7v-.7h-.7v.7Z" class="g1_119"/>
<path fill-rule="evenodd" d="M447 297.9H749.3v-.7H447v.7Z" class="g1_119"/>
<path fill-rule="evenodd" d="M749.3 297.9h.7v-.7h-.7v.7Z" class="g1_119"/>
<path fill-rule="evenodd" d="M142.9 318.5h.7V297.9h-.7v20.6Z" class="g1_119"/>
<path fill-rule="evenodd" d="M446.3 318.5h.7V297.9h-.7v20.6Z" class="g1_119"/>
<path fill-rule="evenodd" d="M749.3 318.5h.7V297.9h-.7v20.6Z" class="g1_119"/>
<path fill-rule="evenodd" d="M142.9 319.2h.7v-.7h-.7v.7Z" class="g1_119"/>
<path fill-rule="evenodd" d="M143.6 319.2H446.3v-.7H143.6v.7Z" class="g1_119"/>
<path fill-rule="evenodd" d="M446.3 319.2h.7v-.7h-.7v.7Z" class="g1_119"/>
<path fill-rule="evenodd" d="M447 319.2H749.3v-.7H447v.7Z" class="g1_119"/>
<path fill-rule="evenodd" d="M749.3 319.2h.7v-.7h-.7v.7Z" class="g1_119"/>
<path fill-rule="evenodd" d="M142.9 379h.7V319.2h-.7V379Z" class="g1_119"/>
<path fill-rule="evenodd" d="M446.3 379h.7V319.2h-.7V379Z" class="g1_119"/>
<path fill-rule="evenodd" d="M749.3 379h.7V319.2h-.7V379Z" class="g1_119"/>
<path fill-rule="evenodd" d="M142.9 379.7h.7V379h-.7v.7Z" class="g1_119"/>
<path fill-rule="evenodd" d="M143.6 379.7H446.3V379H143.6v.7Z" class="g1_119"/>
<path fill-rule="evenodd" d="M446.3 379.7h.7V379h-.7v.7Z" class="g1_119"/>
<path fill-rule="evenodd" d="M447 379.7H749.3V379H447v.7Z" class="g1_119"/>
<path fill-rule="evenodd" d="M749.3 379.7h.7V379h-.7v.7Z" class="g1_119"/>
<path fill-rule="evenodd" d="M142.9 420.8h.7V379.7h-.7v41.1Z" class="g1_119"/>
<path fill-rule="evenodd" d="M446.3 420.8h.7V379.7h-.7v41.1Z" class="g1_119"/>
<path fill-rule="evenodd" d="M749.3 420.8h.7V379.7h-.7v41.1Z" class="g1_119"/>
<path fill-rule="evenodd" d="M142.9 421.6h.7v-.8h-.7v.8Z" class="g1_119"/>
<path fill-rule="evenodd" d="M143.6 421.6H446.3v-.8H143.6v.8Z" class="g1_119"/>
<path fill-rule="evenodd" d="M446.3 421.6h.7v-.8h-.7v.8Z" class="g1_119"/>
<path fill-rule="evenodd" d="M447 421.6H749.3v-.8H447v.8Z" class="g1_119"/>
<path fill-rule="evenodd" d="M749.3 421.6h.7v-.8h-.7v.8Z" class="g1_119"/>
<path fill-rule="evenodd" d="M142.9 481.3h.7V421.6h-.7v59.7Z" class="g1_119"/>
<path fill-rule="evenodd" d="M142.9 482.1h.7v-.8h-.7v.8Z" class="g1_119"/>
<path fill-rule="evenodd" d="M142.9 482.1h.7v-.8h-.7v.8Z" class="g1_119"/>
<path fill-rule="evenodd" d="M143.6 482.1H446.3v-.8H143.6v.8Z" class="g1_119"/>
<path fill-rule="evenodd" d="M446.3 481.3h.7V421.6h-.7v59.7Z" class="g1_119"/>
<path fill-rule="evenodd" d="M446.3 482.1h.7v-.8h-.7v.8Z" class="g1_119"/>
<path fill-rule="evenodd" d="M447 482.1H749.3v-.8H447v.8Z" class="g1_119"/>
<path fill-rule="evenodd" d="M749.3 481.3h.7V421.6h-.7v59.7Z" class="g1_119"/>
<path fill-rule="evenodd" d="M749.3 482.1h.7v-.8h-.7v.8Z" class="g1_119"/>
<path fill-rule="evenodd" d="M749.3 482.1h.7v-.8h-.7v.8Z" class="g1_119"/>
</svg>