<?xml version="1.0" encoding="UTF-8" standalone="no"?>
<!DOCTYPE svg PUBLIC "-//W3C//DTD SVG 1.1//EN"
"http://www.w3.org/Graphics/SVG/1.1/DTD/svg11.dtd">
<svg viewBox="0 0 909 1286" version="1.1" xmlns="http://www.w3.org/2000/svg" xmlns:xlink="http://www.w3.org/1999/xlink">
<defs>
<clipPath id="c0_110"><path d="M426.2 1230v-33.3H479V1230Z"/></clipPath>
<style type="text/css"><![CDATA[
.g0_110{
fill: #4472C4;
}
.g1_110{
fill: #FFF;
}
]]></style>
</defs>
<path fill-rule="evenodd" d="M49.7 1181.5H855.4v-1.1H49.7v1.1Z" class="g0_110"/>
<image clip-path="url(#c0_110)" preserveAspectRatio="none" x="426" y="1197" width="53" height="33" xlink:href="img/1.png"/>
<path fill-rule="evenodd" d="M106.9 725.4H723.2V702.5H106.9v22.9Z" class="g1_110"/>
<path fill-rule="evenodd" d="M106.9 748.5H774.2V725.6H106.9v22.9Z" class="g1_110"/>
<path fill-rule="evenodd" d="M106.9 771.8H807v-23H106.9v23Z" class="g1_110"/>
<path fill-rule="evenodd" d="M106.9 794.7H561.8V771.8H106.9v22.9Z" class="g1_110"/>
<path fill-rule="evenodd" d="M106.9 817.8H843.3V794.9H106.9v22.9Z" class="g1_110"/>
<path fill-rule="evenodd" d="M106.9 841.1H369.7v-23H106.9v23Z" class="g1_110"/>
<path fill-rule="evenodd" d="M106.9 864.3H832.7V841.4H106.9v22.9Z" class="g1_110"/>
<path fill-rule="evenodd" d="M106.9 887.1H385.3V864.3H106.9v22.8Z" class="g1_110"/>
</svg>