<?xml version="1.0" encoding="UTF-8" standalone="no"?>
<!DOCTYPE svg PUBLIC "-//W3C//DTD SVG 1.1//EN"
"http://www.w3.org/Graphics/SVG/1.1/DTD/svg11.dtd">
<svg viewBox="0 0 909 1286" version="1.1" xmlns="http://www.w3.org/2000/svg" xmlns:xlink="http://www.w3.org/1999/xlink">
<defs>
<clipPath id="c0_89"><path d="M421.9 1209.8v-33.3h52.7v33.3Z"/></clipPath>
<style type="text/css"><![CDATA[
.g0_89{
fill: #4472C4;
}
.g1_89{
fill: #0F0;
}
.g2_89{
fill: #FF0;
}
]]></style>
</defs>
<path fill-rule="evenodd" d="M49.7 88.9H836.2v-.7H49.7v.7Z" class="g0_89"/>
<path fill-rule="evenodd" d="M49.7 1161.4H836.2v-1.1H49.7v1.1Z" class="g0_89"/>
<image clip-path="url(#c0_89)" preserveAspectRatio="none" x="422" y="1176" width="53" height="34" xlink:href="img/1.png"/>
<path fill-rule="evenodd" d="M51.9 132.4H816.8v-23H51.9v23Z" class="g1_89"/>
<path fill-rule="evenodd" d="M51.9 247.7h723V224.8H51.9v22.9Z" class="g1_89"/>
<path fill-rule="evenodd" d="M51.9 270.6h83.8V247.7H51.9v22.9Z" class="g1_89"/>
<path fill-rule="evenodd" d="M51.9 340.3H799.2V317.4H51.9v22.9Z" class="g1_89"/>
<path fill-rule="evenodd" d="M51.9 363.6H792.7V340.7H51.9v22.9Z" class="g2_89"/>
<path fill-rule="evenodd" d="M51.9 386.4H104V363.6H51.9v22.8Z" class="g2_89"/>
<path fill-rule="evenodd" d="M51.9 548.6H607V525.7H51.9v22.9Z" class="g1_89"/>
<path fill-rule="evenodd" d="M51.9 594.6H799.2V571.7H51.9v22.9Z" class="g2_89"/>
<path fill-rule="evenodd" d="M51.9 617.4h94.8V594.6H51.9v22.8Z" class="g2_89"/>
</svg>