<?xml version="1.0" encoding="UTF-8" standalone="no"?>
<!DOCTYPE svg PUBLIC "-//W3C//DTD SVG 1.1//EN"
"http://www.w3.org/Graphics/SVG/1.1/DTD/svg11.dtd">
<svg viewBox="0 0 909 1286" version="1.1" xmlns="http://www.w3.org/2000/svg" xmlns:xlink="http://www.w3.org/1999/xlink">
<defs>
<clipPath id="c0_104"><path d="M426.2 1230v-33.3H479V1230Z"/></clipPath>
<style type="text/css"><![CDATA[
.g0_104{
fill: #4472C4;
}
.g1_104{
fill: #000;
}
.g2_104{
fill: #FFF;
}
]]></style>
</defs>
<path fill-rule="evenodd" d="M49.7 1181.5H855.4v-1.1H49.7v1.1Z" class="g0_104"/>
<image clip-path="url(#c0_104)" preserveAspectRatio="none" x="426" y="1197" width="53" height="33" xlink:href="img/1.png"/>
<path fill-rule="evenodd" d="M94.8 122.1h.8v-.7h-.8v.7Z" class="g1_104"/>
<path fill-rule="evenodd" d="M94.8 122.1h.8v-.7h-.8v.7Z" class="g1_104"/>
<path fill-rule="evenodd" d="M95.6 122.1H441.4v-.7H95.6v.7Z" class="g1_104"/>
<path fill-rule="evenodd" d="M441.4 122.1h.7v-.7h-.7v.7Z" class="g1_104"/>
<path fill-rule="evenodd" d="M442.1 122.1H809.8v-.7H442.1v.7Z" class="g1_104"/>
<path fill-rule="evenodd" d="M809.8 122.1h.7v-.7h-.7v.7Z" class="g1_104"/>
<path fill-rule="evenodd" d="M809.8 122.1h.7v-.7h-.7v.7Z" class="g1_104"/>
<path fill-rule="evenodd" d="M94.8 156.4h.8V122.1h-.8v34.3Z" class="g1_104"/>
<path fill-rule="evenodd" d="M441.4 156.4h.7V122.1h-.7v34.3Z" class="g1_104"/>
<path fill-rule="evenodd" d="M809.8 156.4h.7V122.1h-.7v34.3Z" class="g1_104"/>
<path fill-rule="evenodd" d="M94.8 157.1h.8v-.7h-.8v.7Z" class="g1_104"/>
<path fill-rule="evenodd" d="M95.6 157.1H441.4v-.7H95.6v.7Z" class="g1_104"/>
<path fill-rule="evenodd" d="M441.4 157.1h.7v-.7h-.7v.7Z" class="g1_104"/>
<path fill-rule="evenodd" d="M442.1 157.1H809.8v-.7H442.1v.7Z" class="g1_104"/>
<path fill-rule="evenodd" d="M809.8 157.1h.7v-.7h-.7v.7Z" class="g1_104"/>
<path fill-rule="evenodd" d="M94.8 271.4h.8V157.1h-.8V271.4Z" class="g1_104"/>
<path fill-rule="evenodd" d="M441.4 271.4h.7V157.1h-.7V271.4Z" class="g1_104"/>
<path fill-rule="evenodd" d="M809.8 271.4h.7V157.1h-.7V271.4Z" class="g1_104"/>
<path fill-rule="evenodd" d="M94.8 272.1h.8v-.7h-.8v.7Z" class="g1_104"/>
<path fill-rule="evenodd" d="M95.6 272.1H441.4v-.7H95.6v.7Z" class="g1_104"/>
<path fill-rule="evenodd" d="M441.4 272.1h.7v-.7h-.7v.7Z" class="g1_104"/>
<path fill-rule="evenodd" d="M442.1 272.1H809.8v-.7H442.1v.7Z" class="g1_104"/>
<path fill-rule="evenodd" d="M809.8 272.1h.7v-.7h-.7v.7Z" class="g1_104"/>
<path fill-rule="evenodd" d="M94.8 335.9h.8V272.1h-.8v63.8Z" class="g1_104"/>
<path fill-rule="evenodd" d="M441.4 335.9h.7V272.1h-.7v63.8Z" class="g1_104"/>
<path fill-rule="evenodd" d="M809.8 335.9h.7V272.1h-.7v63.8Z" class="g1_104"/>
<path fill-rule="evenodd" d="M94.8 336.6h.8v-.7h-.8v.7Z" class="g1_104"/>
<path fill-rule="evenodd" d="M95.6 336.6H441.4v-.7H95.6v.7Z" class="g1_104"/>
<path fill-rule="evenodd" d="M441.4 336.6h.7v-.7h-.7v.7Z" class="g1_104"/>
<path fill-rule="evenodd" d="M442.1 336.6H809.8v-.7H442.1v.7Z" class="g1_104"/>
<path fill-rule="evenodd" d="M809.8 336.6h.7v-.7h-.7v.7Z" class="g1_104"/>
<path fill-rule="evenodd" d="M94.8 391.3h.8V336.6h-.8v54.7Z" class="g1_104"/>
<path fill-rule="evenodd" d="M441.4 391.3h.7V336.6h-.7v54.7Z" class="g1_104"/>
<path fill-rule="evenodd" d="M809.8 391.3h.7V336.6h-.7v54.7Z" class="g1_104"/>
<path fill-rule="evenodd" d="M94.8 392h.8v-.7h-.8v.7Z" class="g1_104"/>
<path fill-rule="evenodd" d="M95.6 392H441.4v-.7H95.6v.7Z" class="g1_104"/>
<path fill-rule="evenodd" d="M441.4 392h.7v-.7h-.7v.7Z" class="g1_104"/>
<path fill-rule="evenodd" d="M442.1 392H809.8v-.7H442.1v.7Z" class="g1_104"/>
<path fill-rule="evenodd" d="M809.8 392h.7v-.7h-.7v.7Z" class="g1_104"/>
<path fill-rule="evenodd" d="M94.8 506.3h.8V392h-.8V506.3Z" class="g1_104"/>
<path fill-rule="evenodd" d="M441.4 506.3h.7V392h-.7V506.3Z" class="g1_104"/>
<path fill-rule="evenodd" d="M809.8 506.3h.7V392h-.7V506.3Z" class="g1_104"/>
<path fill-rule="evenodd" d="M94.8 507h.8v-.7h-.8v.7Z" class="g1_104"/>
<path fill-rule="evenodd" d="M95.6 507H441.4v-.7H95.6v.7Z" class="g1_104"/>
<path fill-rule="evenodd" d="M441.4 507h.7v-.7h-.7v.7Z" class="g1_104"/>
<path fill-rule="evenodd" d="M442.1 507H809.8v-.7H442.1v.7Z" class="g1_104"/>
<path fill-rule="evenodd" d="M809.8 507h.7v-.7h-.7v.7Z" class="g1_104"/>
<path fill-rule="evenodd" d="M94.8 581.4h.8V507h-.8v74.4Z" class="g1_104"/>
<path fill-rule="evenodd" d="M441.4 581.4h.7V507h-.7v74.4Z" class="g1_104"/>
<path fill-rule="evenodd" d="M809.8 581.4h.7V507h-.7v74.4Z" class="g1_104"/>
<path fill-rule="evenodd" d="M94.8 582.2h.8v-.8h-.8v.8Z" class="g1_104"/>
<path fill-rule="evenodd" d="M95.6 582.2H441.4v-.8H95.6v.8Z" class="g1_104"/>
<path fill-rule="evenodd" d="M441.4 582.2h.7v-.8h-.7v.8Z" class="g1_104"/>
<path fill-rule="evenodd" d="M442.1 582.2H809.8v-.8H442.1v.8Z" class="g1_104"/>
<path fill-rule="evenodd" d="M809.8 582.2h.7v-.8h-.7v.8Z" class="g1_104"/>
<path fill-rule="evenodd" d="M94.8 613.3h.8V582.2h-.8v31.1Z" class="g1_104"/>
<path fill-rule="evenodd" d="M94.8 614.1h.8v-.8h-.8v.8Z" class="g1_104"/>
<path fill-rule="evenodd" d="M94.8 614.1h.8v-.8h-.8v.8Z" class="g1_104"/>
<path fill-rule="evenodd" d="M95.6 614.1H441.4v-.8H95.6v.8Z" class="g1_104"/>
<path fill-rule="evenodd" d="M441.4 613.3h.7V582.2h-.7v31.1Z" class="g1_104"/>
<path fill-rule="evenodd" d="M441.4 614.1h.7v-.8h-.7v.8Z" class="g1_104"/>
<path fill-rule="evenodd" d="M442.1 614.1H809.8v-.8H442.1v.8Z" class="g1_104"/>
<path fill-rule="evenodd" d="M809.8 613.3h.7V582.2h-.7v31.1Z" class="g1_104"/>
<path fill-rule="evenodd" d="M809.8 614.1h.7v-.8h-.7v.8Z" class="g1_104"/>
<path fill-rule="evenodd" d="M809.8 614.1h.7v-.8h-.7v.8Z" class="g1_104"/>
<path fill-rule="evenodd" d="M93 662.3H855.4V639.4H93v22.9Z" class="g2_104"/>
<path fill-rule="evenodd" d="M65.5 686.1H855.4V663.2H65.5v22.9Z" class="g2_104"/>
<path fill-rule="evenodd" d="M73.2 710.2h.7v-.8h-.7v.8Z" class="g1_104"/>
<path fill-rule="evenodd" d="M73.2 710.2h.7v-.8h-.7v.8Z" class="g1_104"/>
<path fill-rule="evenodd" d="M73.9 710.2H320.7v-.8H73.9v.8Z" class="g1_104"/>
<path fill-rule="evenodd" d="M320.7 710.2h.8v-.8h-.8v.8Z" class="g1_104"/>
<path fill-rule="evenodd" d="M321.5 710.2H582.2v-.8H321.5v.8Z" class="g1_104"/>
<path fill-rule="evenodd" d="M582.2 710.2h.7v-.8h-.7v.8Z" class="g1_104"/>
<path fill-rule="evenodd" d="M582.9 710.2H830.8v-.8H582.9v.8Z" class="g1_104"/>
<path fill-rule="evenodd" d="M830.8 710.2h.8v-.8h-.8v.8Z" class="g1_104"/>
<path fill-rule="evenodd" d="M830.8 710.2h.8v-.8h-.8v.8Z" class="g1_104"/>
<path fill-rule="evenodd" d="M73.2 744.4h.7V710.2h-.7v34.2Z" class="g1_104"/>
<path fill-rule="evenodd" d="M320.7 744.4h.8V710.2h-.8v34.2Z" class="g1_104"/>
<path fill-rule="evenodd" d="M582.2 744.4h.7V710.2h-.7v34.2Z" class="g1_104"/>
<path fill-rule="evenodd" d="M830.8 744.4h.8V710.2h-.8v34.2Z" class="g1_104"/>
<path fill-rule="evenodd" d="M73.2 745.2h.7v-.8h-.7v.8Z" class="g1_104"/>
<path fill-rule="evenodd" d="M73.9 745.2H320.7v-.8H73.9v.8Z" class="g1_104"/>
<path fill-rule="evenodd" d="M320.7 745.2h.8v-.8h-.8v.8Z" class="g1_104"/>
<path fill-rule="evenodd" d="M321.5 745.2H582.2v-.8H321.5v.8Z" class="g1_104"/>
<path fill-rule="evenodd" d="M582.2 745.2h.7v-.8h-.7v.8Z" class="g1_104"/>
<path fill-rule="evenodd" d="M582.9 745.2H830.8v-.8H582.9v.8Z" class="g1_104"/>
<path fill-rule="evenodd" d="M830.8 745.2h.8v-.8h-.8v.8Z" class="g1_104"/>
<path fill-rule="evenodd" d="M73.2 919h.7V745.2h-.7V919Z" class="g1_104"/>
<path fill-rule="evenodd" d="M320.7 919h.8V745.2h-.8V919Z" class="g1_104"/>
<path fill-rule="evenodd" d="M582.2 919h.7V745.2h-.7V919Z" class="g1_104"/>
<path fill-rule="evenodd" d="M830.8 919h.8V745.2h-.8V919Z" class="g1_104"/>
<path fill-rule="evenodd" d="M73.2 919.7h.7V919h-.7v.7Z" class="g1_104"/>
<path fill-rule="evenodd" d="M73.9 919.7H320.7V919H73.9v.7Z" class="g1_104"/>
<path fill-rule="evenodd" d="M320.7 919.7h.8V919h-.8v.7Z" class="g1_104"/>
<path fill-rule="evenodd" d="M321.5 919.7H582.2V919H321.5v.7Z" class="g1_104"/>
<path fill-rule="evenodd" d="M582.2 919.7h.7V919h-.7v.7Z" class="g1_104"/>
<path fill-rule="evenodd" d="M582.9 919.7H830.8V919H582.9v.7Z" class="g1_104"/>
<path fill-rule="evenodd" d="M830.8 919.7h.8V919h-.8v.7Z" class="g1_104"/>
<path fill-rule="evenodd" d="M73.2 1016h.7V919.7h-.7V1016Z" class="g1_104"/>
<path fill-rule="evenodd" d="M320.7 1016h.8V919.7h-.8V1016Z" class="g1_104"/>
<path fill-rule="evenodd" d="M582.2 1016h.7V919.7h-.7V1016Z" class="g1_104"/>
<path fill-rule="evenodd" d="M830.8 1016h.8V919.7h-.8V1016Z" class="g1_104"/>
<path fill-rule="evenodd" d="M73.2 1016.7h.7v-.7h-.7v.7Z" class="g1_104"/>
<path fill-rule="evenodd" d="M73.9 1016.7H320.7v-.7H73.9v.7Z" class="g1_104"/>
<path fill-rule="evenodd" d="M320.7 1016.7h.8v-.7h-.8v.7Z" class="g1_104"/>
<path fill-rule="evenodd" d="M321.5 1016.7H582.2v-.7H321.5v.7Z" class="g1_104"/>
<path fill-rule="evenodd" d="M582.2 1016.7h.7v-.7h-.7v.7Z" class="g1_104"/>
<path fill-rule="evenodd" d="M582.9 1016.7H830.8v-.7H582.9v.7Z" class="g1_104"/>
<path fill-rule="evenodd" d="M830.8 1016.7h.8v-.7h-.8v.7Z" class="g1_104"/>
<path fill-rule="evenodd" d="M73.2 1096.1h.7v-79.4h-.7v79.4Z" class="g1_104"/>
<path fill-rule="evenodd" d="M73.2 1096.9h.7v-.8h-.7v.8Z" class="g1_104"/>
<path fill-rule="evenodd" d="M73.2 1096.9h.7v-.8h-.7v.8Z" class="g1_104"/>
<path fill-rule="evenodd" d="M73.9 1096.9H320.7v-.8H73.9v.8Z" class="g1_104"/>
<path fill-rule="evenodd" d="M320.7 1096.1h.8v-79.4h-.8v79.4Z" class="g1_104"/>
<path fill-rule="evenodd" d="M320.7 1096.9h.8v-.8h-.8v.8Z" class="g1_104"/>
<path fill-rule="evenodd" d="M321.5 1096.9H582.2v-.8H321.5v.8Z" class="g1_104"/>
<path fill-rule="evenodd" d="M582.2 1096.1h.7v-79.4h-.7v79.4Z" class="g1_104"/>
<path fill-rule="evenodd" d="M582.2 1096.9h.7v-.8h-.7v.8Z" class="g1_104"/>
<path fill-rule="evenodd" d="M582.9 1096.9H830.8v-.8H582.9v.8Z" class="g1_104"/>
<path fill-rule="evenodd" d="M830.8 1096.1h.8v-79.4h-.8v79.4Z" class="g1_104"/>
<path fill-rule="evenodd" d="M830.8 1096.9h.8v-.8h-.8v.8Z" class="g1_104"/>
<path fill-rule="evenodd" d="M830.8 1096.9h.8v-.8h-.8v.8Z" class="g1_104"/>
</svg>