<?xml version="1.0" encoding="UTF-8" standalone="no"?>
<!DOCTYPE svg PUBLIC "-//W3C//DTD SVG 1.1//EN"
"http://www.w3.org/Graphics/SVG/1.1/DTD/svg11.dtd">
<svg viewBox="0 0 909 1286" version="1.1" xmlns="http://www.w3.org/2000/svg" xmlns:xlink="http://www.w3.org/1999/xlink">
<defs>
<clipPath id="c0_47"><path d="M421.9 1209.8v-33.3h52.7v33.3Z"/></clipPath>
<style type="text/css"><![CDATA[
.g0_47{
fill: #4472C4;
}
.g1_47{
fill: #000;
}
]]></style>
</defs>
<path fill-rule="evenodd" d="M49.7 88.9H855.8v-.7H49.7v.7Z" class="g0_47"/>
<path fill-rule="evenodd" d="M49.7 1161.4H855.8v-1.1H49.7v1.1Z" class="g0_47"/>
<image clip-path="url(#c0_47)" preserveAspectRatio="none" x="422" y="1176" width="53" height="34" xlink:href="img/1.png"/>
<path fill-rule="evenodd" d="M116.6 110.4h.8v-.8h-.8v.8Z" class="g1_47"/>
<path fill-rule="evenodd" d="M116.6 110.4h.8v-.8h-.8v.8Z" class="g1_47"/>
<path fill-rule="evenodd" d="M117.4 110.4H448.2v-.8H117.4v.8Z" class="g1_47"/>
<path fill-rule="evenodd" d="M448.2 110.4h.7v-.8h-.7v.8Z" class="g1_47"/>
<path fill-rule="evenodd" d="M448.9 110.4H779.7v-.8H448.9v.8Z" class="g1_47"/>
<path fill-rule="evenodd" d="M779.7 110.4h.7v-.8h-.7v.8Z" class="g1_47"/>
<path fill-rule="evenodd" d="M779.7 110.4h.7v-.8h-.7v.8Z" class="g1_47"/>
<path fill-rule="evenodd" d="M116.6 179h.8V110.4h-.8V179Z" class="g1_47"/>
<path fill-rule="evenodd" d="M116.6 179.7h.8V179h-.8v.7Z" class="g1_47"/>
<path fill-rule="evenodd" d="M116.6 179.7h.8V179h-.8v.7Z" class="g1_47"/>
<path fill-rule="evenodd" d="M117.4 179.7H448.2V179H117.4v.7Z" class="g1_47"/>
<path fill-rule="evenodd" d="M448.2 179h.7V110.4h-.7V179Z" class="g1_47"/>
<path fill-rule="evenodd" d="M448.2 179.7h.7V179h-.7v.7Z" class="g1_47"/>
<path fill-rule="evenodd" d="M448.9 179.7H779.7V179H448.9v.7Z" class="g1_47"/>
<path fill-rule="evenodd" d="M779.7 179h.7V110.4h-.7V179Z" class="g1_47"/>
<path fill-rule="evenodd" d="M779.7 179.7h.7V179h-.7v.7Z" class="g1_47"/>
<path fill-rule="evenodd" d="M779.7 179.7h.7V179h-.7v.7Z" class="g1_47"/>
<path fill-rule="evenodd" d="M94.8 253.4h.8v-.7h-.8v.7Z" class="g1_47"/>
<path fill-rule="evenodd" d="M94.8 253.4h.8v-.7h-.8v.7Z" class="g1_47"/>
<path fill-rule="evenodd" d="M95.6 253.4H412v-.7H95.6v.7Z" class="g1_47"/>
<path fill-rule="evenodd" d="M412 253.4h.8v-.7H412v.7Z" class="g1_47"/>
<path fill-rule="evenodd" d="M412.8 253.4H755.5v-.7H412.8v.7Z" class="g1_47"/>
<path fill-rule="evenodd" d="M755.5 253.4h.7v-.7h-.7v.7Z" class="g1_47"/>
<path fill-rule="evenodd" d="M755.5 253.4h.7v-.7h-.7v.7Z" class="g1_47"/>
<path fill-rule="evenodd" d="M94.8 291.2h.8V253.4h-.8v37.8Z" class="g1_47"/>
<path fill-rule="evenodd" d="M412 291.2h.8V253.4H412v37.8Z" class="g1_47"/>
<path fill-rule="evenodd" d="M755.5 291.2h.7V253.4h-.7v37.8Z" class="g1_47"/>
<path fill-rule="evenodd" d="M94.8 291.9h.8v-.7h-.8v.7Z" class="g1_47"/>
<path fill-rule="evenodd" d="M95.6 291.9H412v-.7H95.6v.7Z" class="g1_47"/>
<path fill-rule="evenodd" d="M412 291.9h.8v-.7H412v.7Z" class="g1_47"/>
<path fill-rule="evenodd" d="M412.8 291.9H755.5v-.7H412.8v.7Z" class="g1_47"/>
<path fill-rule="evenodd" d="M755.5 291.9h.7v-.7h-.7v.7Z" class="g1_47"/>
<path fill-rule="evenodd" d="M94.8 329.8h.8V291.9h-.8v37.9Z" class="g1_47"/>
<path fill-rule="evenodd" d="M412 329.8h.8V291.9H412v37.9Z" class="g1_47"/>
<path fill-rule="evenodd" d="M755.5 329.8h.7V291.9h-.7v37.9Z" class="g1_47"/>
<path fill-rule="evenodd" d="M94.8 330.6h.8v-.8h-.8v.8Z" class="g1_47"/>
<path fill-rule="evenodd" d="M95.6 330.6H412v-.8H95.6v.8Z" class="g1_47"/>
<path fill-rule="evenodd" d="M412 330.6h.8v-.8H412v.8Z" class="g1_47"/>
<path fill-rule="evenodd" d="M412.8 330.6H755.5v-.8H412.8v.8Z" class="g1_47"/>
<path fill-rule="evenodd" d="M755.5 330.6h.7v-.8h-.7v.8Z" class="g1_47"/>
<path fill-rule="evenodd" d="M94.8 354.4h.8V330.6h-.8v23.8Z" class="g1_47"/>
<path fill-rule="evenodd" d="M412 354.4h.8V330.6H412v23.8Z" class="g1_47"/>
<path fill-rule="evenodd" d="M755.5 354.4h.7V330.6h-.7v23.8Z" class="g1_47"/>
<path fill-rule="evenodd" d="M94.8 355.1h.8v-.7h-.8v.7Z" class="g1_47"/>
<path fill-rule="evenodd" d="M95.6 355.1H412v-.7H95.6v.7Z" class="g1_47"/>
<path fill-rule="evenodd" d="M412 355.1h.8v-.7H412v.7Z" class="g1_47"/>
<path fill-rule="evenodd" d="M412.8 355.1H755.5v-.7H412.8v.7Z" class="g1_47"/>
<path fill-rule="evenodd" d="M755.5 355.1h.7v-.7h-.7v.7Z" class="g1_47"/>
<path fill-rule="evenodd" d="M94.8 393.1h.8V355.2h-.8v37.9Z" class="g1_47"/>
<path fill-rule="evenodd" d="M412 393.1h.8V355.2H412v37.9Z" class="g1_47"/>
<path fill-rule="evenodd" d="M755.5 393.1h.7V355.2h-.7v37.9Z" class="g1_47"/>
<path fill-rule="evenodd" d="M94.8 393.9h.8v-.8h-.8v.8Z" class="g1_47"/>
<path fill-rule="evenodd" d="M95.6 393.9H412v-.8H95.6v.8Z" class="g1_47"/>
<path fill-rule="evenodd" d="M412 393.9h.8v-.8H412v.8Z" class="g1_47"/>
<path fill-rule="evenodd" d="M412.8 393.9H755.5v-.8H412.8v.8Z" class="g1_47"/>
<path fill-rule="evenodd" d="M755.5 393.9h.7v-.8h-.7v.8Z" class="g1_47"/>
<path fill-rule="evenodd" d="M94.8 441.7h.8V393.9h-.8v47.8Z" class="g1_47"/>
<path fill-rule="evenodd" d="M412 441.7h.8V393.9H412v47.8Z" class="g1_47"/>
<path fill-rule="evenodd" d="M755.5 441.7h.7V393.9h-.7v47.8Z" class="g1_47"/>
<path fill-rule="evenodd" d="M94.8 442.5h.8v-.8h-.8v.8Z" class="g1_47"/>
<path fill-rule="evenodd" d="M95.6 442.5H412v-.8H95.6v.8Z" class="g1_47"/>
<path fill-rule="evenodd" d="M412 442.5h.8v-.8H412v.8Z" class="g1_47"/>
<path fill-rule="evenodd" d="M412.8 442.5H755.5v-.8H412.8v.8Z" class="g1_47"/>
<path fill-rule="evenodd" d="M755.5 442.5h.7v-.8h-.7v.8Z" class="g1_47"/>
<path fill-rule="evenodd" d="M94.8 490.3h.8V442.5h-.8v47.8Z" class="g1_47"/>
<path fill-rule="evenodd" d="M94.8 491h.8v-.7h-.8v.7Z" class="g1_47"/>
<path fill-rule="evenodd" d="M94.8 491h.8v-.7h-.8v.7Z" class="g1_47"/>
<path fill-rule="evenodd" d="M95.6 491H412v-.7H95.6v.7Z" class="g1_47"/>
<path fill-rule="evenodd" d="M412 490.3h.8V442.5H412v47.8Z" class="g1_47"/>
<path fill-rule="evenodd" d="M412 491h.8v-.7H412v.7Z" class="g1_47"/>
<path fill-rule="evenodd" d="M412.8 491H755.5v-.7H412.8v.7Z" class="g1_47"/>
<path fill-rule="evenodd" d="M755.5 490.3h.7V442.5h-.7v47.8Z" class="g1_47"/>
<path fill-rule="evenodd" d="M755.5 491h.7v-.7h-.7v.7Z" class="g1_47"/>
<path fill-rule="evenodd" d="M755.5 491h.7v-.7h-.7v.7Z" class="g1_47"/>
<path fill-rule="evenodd" d="M94.8 540.7h.8V540h-.8v.7Z" class="g1_47"/>
<path fill-rule="evenodd" d="M94.8 540.7h.8V540h-.8v.7Z" class="g1_47"/>
<path fill-rule="evenodd" d="M95.6 540.7H408.9V540H95.6v.7Z" class="g1_47"/>
<path fill-rule="evenodd" d="M408.9 540.7h.7V540h-.7v.7Z" class="g1_47"/>
<path fill-rule="evenodd" d="M409.6 540.7H755.7V540H409.6v.7Z" class="g1_47"/>
<path fill-rule="evenodd" d="M755.7 540.7h.7V540h-.7v.7Z" class="g1_47"/>
<path fill-rule="evenodd" d="M755.7 540.7h.7V540h-.7v.7Z" class="g1_47"/>
<path fill-rule="evenodd" d="M94.8 578.7h.8v-38h-.8v38Z" class="g1_47"/>
<path fill-rule="evenodd" d="M408.9 578.7h.7v-38h-.7v38Z" class="g1_47"/>
<path fill-rule="evenodd" d="M755.7 578.7h.7v-38h-.7v38Z" class="g1_47"/>
<path fill-rule="evenodd" d="M94.8 579.4h.8v-.7h-.8v.7Z" class="g1_47"/>
<path fill-rule="evenodd" d="M95.6 579.4H408.9v-.7H95.6v.7Z" class="g1_47"/>
<path fill-rule="evenodd" d="M408.9 579.4h.7v-.7h-.7v.7Z" class="g1_47"/>
<path fill-rule="evenodd" d="M409.6 579.4H755.7v-.7H409.6v.7Z" class="g1_47"/>
<path fill-rule="evenodd" d="M755.7 579.4h.7v-.7h-.7v.7Z" class="g1_47"/>
<path fill-rule="evenodd" d="M94.8 611.1h.8V579.4h-.8v31.7Z" class="g1_47"/>
<path fill-rule="evenodd" d="M408.9 611.1h.7V579.4h-.7v31.7Z" class="g1_47"/>
<path fill-rule="evenodd" d="M755.7 611.1h.7V579.4h-.7v31.7Z" class="g1_47"/>
<path fill-rule="evenodd" d="M94.8 611.9h.8v-.8h-.8v.8Z" class="g1_47"/>
<path fill-rule="evenodd" d="M95.6 611.9H408.9v-.8H95.6v.8Z" class="g1_47"/>
<path fill-rule="evenodd" d="M408.9 611.9h.7v-.8h-.7v.8Z" class="g1_47"/>
<path fill-rule="evenodd" d="M409.6 611.9H755.7v-.8H409.6v.8Z" class="g1_47"/>
<path fill-rule="evenodd" d="M755.7 611.9h.7v-.8h-.7v.8Z" class="g1_47"/>
<path fill-rule="evenodd" d="M94.8 643.8h.8V611.9h-.8v31.9Z" class="g1_47"/>
<path fill-rule="evenodd" d="M408.9 643.8h.7V611.9h-.7v31.9Z" class="g1_47"/>
<path fill-rule="evenodd" d="M755.7 643.8h.7V611.9h-.7v31.9Z" class="g1_47"/>
<path fill-rule="evenodd" d="M94.8 644.5h.8v-.7h-.8v.7Z" class="g1_47"/>
<path fill-rule="evenodd" d="M95.6 644.5H408.9v-.7H95.6v.7Z" class="g1_47"/>
<path fill-rule="evenodd" d="M408.9 644.5h.7v-.7h-.7v.7Z" class="g1_47"/>
<path fill-rule="evenodd" d="M409.6 644.5H755.7v-.7H409.6v.7Z" class="g1_47"/>
<path fill-rule="evenodd" d="M755.7 644.5h.7v-.7h-.7v.7Z" class="g1_47"/>
<path fill-rule="evenodd" d="M94.8 676.2h.8V644.5h-.8v31.7Z" class="g1_47"/>
<path fill-rule="evenodd" d="M408.9 676.2h.7V644.5h-.7v31.7Z" class="g1_47"/>
<path fill-rule="evenodd" d="M755.7 676.2h.7V644.5h-.7v31.7Z" class="g1_47"/>
<path fill-rule="evenodd" d="M94.8 677h.8v-.8h-.8v.8Z" class="g1_47"/>
<path fill-rule="evenodd" d="M95.6 677H408.9v-.8H95.6v.8Z" class="g1_47"/>
<path fill-rule="evenodd" d="M408.9 677h.7v-.8h-.7v.8Z" class="g1_47"/>
<path fill-rule="evenodd" d="M409.6 677H755.7v-.8H409.6v.8Z" class="g1_47"/>
<path fill-rule="evenodd" d="M755.7 677h.7v-.8h-.7v.8Z" class="g1_47"/>
<path fill-rule="evenodd" d="M94.8 735.5h.8V677h-.8v58.5Z" class="g1_47"/>
<path fill-rule="evenodd" d="M94.8 736.2h.8v-.7h-.8v.7Z" class="g1_47"/>
<path fill-rule="evenodd" d="M94.8 736.2h.8v-.7h-.8v.7Z" class="g1_47"/>
<path fill-rule="evenodd" d="M95.6 736.2H408.9v-.7H95.6v.7Z" class="g1_47"/>
<path fill-rule="evenodd" d="M408.9 735.5h.7V677h-.7v58.5Z" class="g1_47"/>
<path fill-rule="evenodd" d="M408.9 736.2h.7v-.7h-.7v.7Z" class="g1_47"/>
<path fill-rule="evenodd" d="M409.6 736.2H755.7v-.7H409.6v.7Z" class="g1_47"/>
<path fill-rule="evenodd" d="M755.7 735.5h.7V677h-.7v58.5Z" class="g1_47"/>
<path fill-rule="evenodd" d="M755.7 736.2h.7v-.7h-.7v.7Z" class="g1_47"/>
<path fill-rule="evenodd" d="M755.7 736.2h.7v-.7h-.7v.7Z" class="g1_47"/>
<path fill-rule="evenodd" d="M116.6 785.7h.8V785h-.8v.7Z" class="g1_47"/>
<path fill-rule="evenodd" d="M116.6 785.7h.8V785h-.8v.7Z" class="g1_47"/>
<path fill-rule="evenodd" d="M117.4 785.7H438.5V785H117.4v.7Z" class="g1_47"/>
<path fill-rule="evenodd" d="M438.5 785.7h.7V785h-.7v.7Z" class="g1_47"/>
<path fill-rule="evenodd" d="M439.2 785.7h321V785h-321v.7Z" class="g1_47"/>
<path fill-rule="evenodd" d="M760.3 785.7h.7V785h-.7v.7Z" class="g1_47"/>
<path fill-rule="evenodd" d="M760.3 785.7h.7V785h-.7v.7Z" class="g1_47"/>
<path fill-rule="evenodd" d="M116.6 810.6h.8V785.7h-.8v24.9Z" class="g1_47"/>
<path fill-rule="evenodd" d="M438.5 810.6h.7V785.7h-.7v24.9Z" class="g1_47"/>
<path fill-rule="evenodd" d="M760.3 810.6h.7V785.7h-.7v24.9Z" class="g1_47"/>
<path fill-rule="evenodd" d="M116.6 811.4h.8v-.8h-.8v.8Z" class="g1_47"/>
<path fill-rule="evenodd" d="M117.4 811.4H438.5v-.8H117.4v.8Z" class="g1_47"/>
<path fill-rule="evenodd" d="M438.5 811.4h.7v-.8h-.7v.8Z" class="g1_47"/>
<path fill-rule="evenodd" d="M439.2 811.4h321v-.8h-321v.8Z" class="g1_47"/>
<path fill-rule="evenodd" d="M760.3 811.4h.7v-.8h-.7v.8Z" class="g1_47"/>
<path fill-rule="evenodd" d="M116.6 836.3h.8V811.4h-.8v24.9Z" class="g1_47"/>
<path fill-rule="evenodd" d="M438.5 836.3h.7V811.4h-.7v24.9Z" class="g1_47"/>
<path fill-rule="evenodd" d="M760.3 836.3h.7V811.4h-.7v24.9Z" class="g1_47"/>
<path fill-rule="evenodd" d="M116.6 837h.8v-.7h-.8v.7Z" class="g1_47"/>
<path fill-rule="evenodd" d="M117.4 837H438.5v-.7H117.4v.7Z" class="g1_47"/>
<path fill-rule="evenodd" d="M438.5 837h.7v-.7h-.7v.7Z" class="g1_47"/>
<path fill-rule="evenodd" d="M439.2 837h321v-.7h-321v.7Z" class="g1_47"/>
<path fill-rule="evenodd" d="M760.3 837h.7v-.7h-.7v.7Z" class="g1_47"/>
<path fill-rule="evenodd" d="M116.6 862h.8V837h-.8v25Z" class="g1_47"/>
<path fill-rule="evenodd" d="M438.5 862h.7V837h-.7v25Z" class="g1_47"/>
<path fill-rule="evenodd" d="M760.3 862h.7V837h-.7v25Z" class="g1_47"/>
<path fill-rule="evenodd" d="M116.6 862.7h.8V862h-.8v.7Z" class="g1_47"/>
<path fill-rule="evenodd" d="M117.4 862.7H438.5V862H117.4v.7Z" class="g1_47"/>
<path fill-rule="evenodd" d="M438.5 862.7h.7V862h-.7v.7Z" class="g1_47"/>
<path fill-rule="evenodd" d="M439.2 862.7h321V862h-321v.7Z" class="g1_47"/>
<path fill-rule="evenodd" d="M760.3 862.7h.7V862h-.7v.7Z" class="g1_47"/>
<path fill-rule="evenodd" d="M116.6 887.6h.8V862.7h-.8v24.9Z" class="g1_47"/>
<path fill-rule="evenodd" d="M438.5 887.6h.7V862.7h-.7v24.9Z" class="g1_47"/>
<path fill-rule="evenodd" d="M760.3 887.6h.7V862.7h-.7v24.9Z" class="g1_47"/>
<path fill-rule="evenodd" d="M116.6 888.4h.8v-.8h-.8v.8Z" class="g1_47"/>
<path fill-rule="evenodd" d="M117.4 888.4H438.5v-.8H117.4v.8Z" class="g1_47"/>
<path fill-rule="evenodd" d="M438.5 888.4h.7v-.8h-.7v.8Z" class="g1_47"/>
<path fill-rule="evenodd" d="M439.2 888.4h321v-.8h-321v.8Z" class="g1_47"/>
<path fill-rule="evenodd" d="M760.3 888.4h.7v-.8h-.7v.8Z" class="g1_47"/>
<path fill-rule="evenodd" d="M116.6 926.4h.8v-38h-.8v38Z" class="g1_47"/>
<path fill-rule="evenodd" d="M438.5 926.4h.7v-38h-.7v38Z" class="g1_47"/>
<path fill-rule="evenodd" d="M760.3 926.4h.7v-38h-.7v38Z" class="g1_47"/>
<path fill-rule="evenodd" d="M116.6 927.1h.8v-.7h-.8v.7Z" class="g1_47"/>
<path fill-rule="evenodd" d="M117.4 927.1H438.5v-.7H117.4v.7Z" class="g1_47"/>
<path fill-rule="evenodd" d="M438.5 927.1h.7v-.7h-.7v.7Z" class="g1_47"/>
<path fill-rule="evenodd" d="M439.2 927.1h321v-.7h-321v.7Z" class="g1_47"/>
<path fill-rule="evenodd" d="M760.3 927.1h.7v-.7h-.7v.7Z" class="g1_47"/>
<path fill-rule="evenodd" d="M116.6 952h.8V927.1h-.8V952Z" class="g1_47"/>
<path fill-rule="evenodd" d="M438.5 952h.7V927.1h-.7V952Z" class="g1_47"/>
<path fill-rule="evenodd" d="M760.3 952h.7V927.1h-.7V952Z" class="g1_47"/>
<path fill-rule="evenodd" d="M116.6 952.8h.8V952h-.8v.8Z" class="g1_47"/>
<path fill-rule="evenodd" d="M117.4 952.8H438.5V952H117.4v.8Z" class="g1_47"/>
<path fill-rule="evenodd" d="M438.5 952.8h.7V952h-.7v.8Z" class="g1_47"/>
<path fill-rule="evenodd" d="M439.2 952.8h321V952h-321v.8Z" class="g1_47"/>
<path fill-rule="evenodd" d="M760.3 952.8h.7V952h-.7v.8Z" class="g1_47"/>
<path fill-rule="evenodd" d="M116.6 977.7h.8V952.8h-.8v24.9Z" class="g1_47"/>
<path fill-rule="evenodd" d="M438.5 977.7h.7V952.8h-.7v24.9Z" class="g1_47"/>
<path fill-rule="evenodd" d="M760.3 977.7h.7V952.8h-.7v24.9Z" class="g1_47"/>
<path fill-rule="evenodd" d="M116.6 978.4h.8v-.7h-.8v.7Z" class="g1_47"/>
<path fill-rule="evenodd" d="M117.4 978.4H438.5v-.7H117.4v.7Z" class="g1_47"/>
<path fill-rule="evenodd" d="M438.5 978.4h.7v-.7h-.7v.7Z" class="g1_47"/>
<path fill-rule="evenodd" d="M439.2 978.4h321v-.7h-321v.7Z" class="g1_47"/>
<path fill-rule="evenodd" d="M760.3 978.4h.7v-.7h-.7v.7Z" class="g1_47"/>
<path fill-rule="evenodd" d="M116.6 1016.4h.8v-38h-.8v38Z" class="g1_47"/>
<path fill-rule="evenodd" d="M116.6 1017.1h.8v-.7h-.8v.7Z" class="g1_47"/>
<path fill-rule="evenodd" d="M116.6 1017.1h.8v-.7h-.8v.7Z" class="g1_47"/>
<path fill-rule="evenodd" d="M117.4 1017.1H438.5v-.7H117.4v.7Z" class="g1_47"/>
<path fill-rule="evenodd" d="M438.5 1016.4h.7v-38h-.7v38Z" class="g1_47"/>
<path fill-rule="evenodd" d="M438.5 1017.1h.7v-.7h-.7v.7Z" class="g1_47"/>
<path fill-rule="evenodd" d="M439.2 1017.1h321v-.7h-321v.7Z" class="g1_47"/>
<path fill-rule="evenodd" d="M760.3 1016.4h.7v-38h-.7v38Z" class="g1_47"/>
<path fill-rule="evenodd" d="M760.3 1017.1h.7v-.7h-.7v.7Z" class="g1_47"/>
<path fill-rule="evenodd" d="M760.3 1017.1h.7v-.7h-.7v.7Z" class="g1_47"/>
</svg>