<?xml version="1.0" encoding="UTF-8" standalone="no"?>
<!DOCTYPE svg PUBLIC "-//W3C//DTD SVG 1.1//EN"
"http://www.w3.org/Graphics/SVG/1.1/DTD/svg11.dtd">
<svg viewBox="0 0 909 1286" version="1.1" xmlns="http://www.w3.org/2000/svg" xmlns:xlink="http://www.w3.org/1999/xlink">
<defs>
<clipPath id="c0_69"><path d="M421.9 1209.8v-33.3h52.7v33.3Z"/></clipPath>
<clipPath id="c1_69"><path d="M161.9 751.5V510.8H387.4V751.5Z"/></clipPath>
<clipPath id="c2_69"><path d="M393 750.9V549.8H698.1V750.9Z"/></clipPath>
<style type="text/css"><![CDATA[
.g0_69{
fill: #4472C4;
}
.g1_69{
fill: #FFF;
}
]]></style>
</defs>
<path fill-rule="evenodd" d="M49.7 88.9H836.2v-.7H49.7v.7Z" class="g0_69"/>
<path fill-rule="evenodd" d="M49.7 1161.4H836.2v-1.1H49.7v1.1Z" class="g0_69"/>
<image clip-path="url(#c0_69)" preserveAspectRatio="none" x="422" y="1176" width="53" height="34" xlink:href="img/1.png"/>
<path fill-rule="evenodd" d="M95.2 186.8H356.8V164.1H95.2v22.7Z" class="g1_69"/>
<path fill-rule="evenodd" d="M106.9 325.8h657V302.9h-657v22.9Z" class="g1_69"/>
<path fill-rule="evenodd" d="M106.9 348.7H703.2V325.8H106.9v22.9Z" class="g1_69"/>
<path fill-rule="evenodd" d="M248.1 418.1H371.7V395.2H248.1v22.9Z" class="g1_69"/>
<image clip-path="url(#c1_69)" preserveAspectRatio="none" x="162" y="511" width="225" height="241" xlink:href="img/2.jpg"/>
<image clip-path="url(#c2_69)" preserveAspectRatio="none" x="393" y="550" width="305" height="201" xlink:href="img/3.jpg"/>
</svg>