<?xml version="1.0" encoding="UTF-8" standalone="no"?>
<!DOCTYPE svg PUBLIC "-//W3C//DTD SVG 1.1//EN"
"http://www.w3.org/Graphics/SVG/1.1/DTD/svg11.dtd">
<svg viewBox="0 0 909 1286" version="1.1" xmlns="http://www.w3.org/2000/svg" xmlns:xlink="http://www.w3.org/1999/xlink">
<defs>
<clipPath id="c0_52"><path d="M421.9 1209.8v-33.3h52.7v33.3Z"/></clipPath>
<style type="text/css"><![CDATA[
.g0_52{
fill: #4472C4;
}
.g1_52{
fill: #000;
}
]]></style>
</defs>
<path fill-rule="evenodd" d="M49.7 88.9H855.8v-.7H49.7v.7Z" class="g0_52"/>
<path fill-rule="evenodd" d="M49.7 1161.4H855.8v-1.1H49.7v1.1Z" class="g0_52"/>
<image clip-path="url(#c0_52)" preserveAspectRatio="none" x="422" y="1176" width="53" height="34" xlink:href="img/1.png"/>
<path fill-rule="evenodd" d="M116.6 110.4h.8v-.8h-.8v.8Z" class="g1_52"/>
<path fill-rule="evenodd" d="M116.6 110.4h.8v-.8h-.8v.8Z" class="g1_52"/>
<path fill-rule="evenodd" d="M117.4 110.4h324v-.8h-324v.8Z" class="g1_52"/>
<path fill-rule="evenodd" d="M441.4 110.4h.7v-.8h-.7v.8Z" class="g1_52"/>
<path fill-rule="evenodd" d="M442.1 110.4H766.3v-.8H442.1v.8Z" class="g1_52"/>
<path fill-rule="evenodd" d="M766.3 110.4h.7v-.8h-.7v.8Z" class="g1_52"/>
<path fill-rule="evenodd" d="M766.3 110.4h.7v-.8h-.7v.8Z" class="g1_52"/>
<path fill-rule="evenodd" d="M116.6 133.1h.8V110.4h-.8v22.7Z" class="g1_52"/>
<path fill-rule="evenodd" d="M441.4 133.1h.7V110.4h-.7v22.7Z" class="g1_52"/>
<path fill-rule="evenodd" d="M766.3 133.1h.7V110.4h-.7v22.7Z" class="g1_52"/>
<path fill-rule="evenodd" d="M116.6 133.9h.8v-.8h-.8v.8Z" class="g1_52"/>
<path fill-rule="evenodd" d="M117.4 133.9h324v-.8h-324v.8Z" class="g1_52"/>
<path fill-rule="evenodd" d="M441.4 133.9h.7v-.8h-.7v.8Z" class="g1_52"/>
<path fill-rule="evenodd" d="M442.1 133.9H766.3v-.8H442.1v.8Z" class="g1_52"/>
<path fill-rule="evenodd" d="M766.3 133.9h.7v-.8h-.7v.8Z" class="g1_52"/>
<path fill-rule="evenodd" d="M116.6 202.4h.8V133.9h-.8v68.5Z" class="g1_52"/>
<path fill-rule="evenodd" d="M441.4 202.4h.7V133.9h-.7v68.5Z" class="g1_52"/>
<path fill-rule="evenodd" d="M766.3 202.4h.7V133.9h-.7v68.5Z" class="g1_52"/>
<path fill-rule="evenodd" d="M116.6 203.2h.8v-.8h-.8v.8Z" class="g1_52"/>
<path fill-rule="evenodd" d="M117.4 203.2h324v-.8h-324v.8Z" class="g1_52"/>
<path fill-rule="evenodd" d="M441.4 203.2h.7v-.8h-.7v.8Z" class="g1_52"/>
<path fill-rule="evenodd" d="M442.1 203.2H766.3v-.8H442.1v.8Z" class="g1_52"/>
<path fill-rule="evenodd" d="M766.3 203.2h.7v-.8h-.7v.8Z" class="g1_52"/>
<path fill-rule="evenodd" d="M116.6 271.7h.8V203.2h-.8v68.5Z" class="g1_52"/>
<path fill-rule="evenodd" d="M441.4 271.7h.7V203.2h-.7v68.5Z" class="g1_52"/>
<path fill-rule="evenodd" d="M766.3 271.7h.7V203.2h-.7v68.5Z" class="g1_52"/>
<path fill-rule="evenodd" d="M116.6 272.5h.8v-.8h-.8v.8Z" class="g1_52"/>
<path fill-rule="evenodd" d="M117.4 272.5h324v-.8h-324v.8Z" class="g1_52"/>
<path fill-rule="evenodd" d="M441.4 272.5h.7v-.8h-.7v.8Z" class="g1_52"/>
<path fill-rule="evenodd" d="M442.1 272.5H766.3v-.8H442.1v.8Z" class="g1_52"/>
<path fill-rule="evenodd" d="M766.3 272.5h.7v-.8h-.7v.8Z" class="g1_52"/>
<path fill-rule="evenodd" d="M116.6 295.4h.8V272.5h-.8v22.9Z" class="g1_52"/>
<path fill-rule="evenodd" d="M441.4 295.4h.7V272.5h-.7v22.9Z" class="g1_52"/>
<path fill-rule="evenodd" d="M766.3 295.4h.7V272.5h-.7v22.9Z" class="g1_52"/>
<path fill-rule="evenodd" d="M116.6 296.1h.8v-.7h-.8v.7Z" class="g1_52"/>
<path fill-rule="evenodd" d="M117.4 296.1h324v-.7h-324v.7Z" class="g1_52"/>
<path fill-rule="evenodd" d="M441.4 296.1h.7v-.7h-.7v.7Z" class="g1_52"/>
<path fill-rule="evenodd" d="M442.1 296.1H766.3v-.7H442.1v.7Z" class="g1_52"/>
<path fill-rule="evenodd" d="M766.3 296.1h.7v-.7h-.7v.7Z" class="g1_52"/>
<path fill-rule="evenodd" d="M116.6 341.8h.8V296.1h-.8v45.7Z" class="g1_52"/>
<path fill-rule="evenodd" d="M116.6 342.5h.8v-.7h-.8v.7Z" class="g1_52"/>
<path fill-rule="evenodd" d="M116.6 342.5h.8v-.7h-.8v.7Z" class="g1_52"/>
<path fill-rule="evenodd" d="M117.4 342.5h324v-.7h-324v.7Z" class="g1_52"/>
<path fill-rule="evenodd" d="M441.4 341.8h.7V296.1h-.7v45.7Z" class="g1_52"/>
<path fill-rule="evenodd" d="M441.4 342.5h.7v-.7h-.7v.7Z" class="g1_52"/>
<path fill-rule="evenodd" d="M442.1 342.5H766.3v-.7H442.1v.7Z" class="g1_52"/>
<path fill-rule="evenodd" d="M766.3 341.8h.7V296.1h-.7v45.7Z" class="g1_52"/>
<path fill-rule="evenodd" d="M766.3 342.5h.7v-.7h-.7v.7Z" class="g1_52"/>
<path fill-rule="evenodd" d="M766.3 342.5h.7v-.7h-.7v.7Z" class="g1_52"/>
<path fill-rule="evenodd" d="M116.6 389.1h.8v-.7h-.8v.7Z" class="g1_52"/>
<path fill-rule="evenodd" d="M116.6 389.1h.8v-.7h-.8v.7Z" class="g1_52"/>
<path fill-rule="evenodd" d="M117.4 389.1H487.2v-.7H117.4v.7Z" class="g1_52"/>
<path fill-rule="evenodd" d="M487.2 389.1h.8v-.7h-.8v.7Z" class="g1_52"/>
<path fill-rule="evenodd" d="M488 389.1H781.9v-.7H488v.7Z" class="g1_52"/>
<path fill-rule="evenodd" d="M781.9 389.1h.7v-.7h-.7v.7Z" class="g1_52"/>
<path fill-rule="evenodd" d="M781.9 389.1h.7v-.7h-.7v.7Z" class="g1_52"/>
<path fill-rule="evenodd" d="M116.6 413.1h.8v-24h-.8v24Z" class="g1_52"/>
<path fill-rule="evenodd" d="M487.2 413.1h.8v-24h-.8v24Z" class="g1_52"/>
<path fill-rule="evenodd" d="M781.9 413.1h.7v-24h-.7v24Z" class="g1_52"/>
<path fill-rule="evenodd" d="M116.6 413.9h.8v-.8h-.8v.8Z" class="g1_52"/>
<path fill-rule="evenodd" d="M117.4 413.9H487.2v-.8H117.4v.8Z" class="g1_52"/>
<path fill-rule="evenodd" d="M487.2 413.9h.8v-.8h-.8v.8Z" class="g1_52"/>
<path fill-rule="evenodd" d="M488 413.9H781.9v-.8H488v.8Z" class="g1_52"/>
<path fill-rule="evenodd" d="M781.9 413.9h.7v-.8h-.7v.8Z" class="g1_52"/>
<path fill-rule="evenodd" d="M116.6 461.9h.8v-48h-.8v48Z" class="g1_52"/>
<path fill-rule="evenodd" d="M487.2 461.9h.8v-48h-.8v48Z" class="g1_52"/>
<path fill-rule="evenodd" d="M781.9 461.9h.7v-48h-.7v48Z" class="g1_52"/>
<path fill-rule="evenodd" d="M116.6 462.6h.8v-.7h-.8v.7Z" class="g1_52"/>
<path fill-rule="evenodd" d="M117.4 462.6H487.2v-.7H117.4v.7Z" class="g1_52"/>
<path fill-rule="evenodd" d="M487.2 462.6h.8v-.7h-.8v.7Z" class="g1_52"/>
<path fill-rule="evenodd" d="M488 462.6H781.9v-.7H488v.7Z" class="g1_52"/>
<path fill-rule="evenodd" d="M781.9 462.6h.7v-.7h-.7v.7Z" class="g1_52"/>
<path fill-rule="evenodd" d="M116.6 531.2h.8V462.6h-.8v68.6Z" class="g1_52"/>
<path fill-rule="evenodd" d="M487.2 531.2h.8V462.6h-.8v68.6Z" class="g1_52"/>
<path fill-rule="evenodd" d="M781.9 531.2h.7V462.6h-.7v68.6Z" class="g1_52"/>
<path fill-rule="evenodd" d="M116.6 531.9h.8v-.7h-.8v.7Z" class="g1_52"/>
<path fill-rule="evenodd" d="M117.4 531.9H487.2v-.7H117.4v.7Z" class="g1_52"/>
<path fill-rule="evenodd" d="M487.2 531.9h.8v-.7h-.8v.7Z" class="g1_52"/>
<path fill-rule="evenodd" d="M488 531.9H781.9v-.7H488v.7Z" class="g1_52"/>
<path fill-rule="evenodd" d="M781.9 531.9h.7v-.7h-.7v.7Z" class="g1_52"/>
<path fill-rule="evenodd" d="M116.6 555.9h.8v-24h-.8v24Z" class="g1_52"/>
<path fill-rule="evenodd" d="M487.2 555.9h.8v-24h-.8v24Z" class="g1_52"/>
<path fill-rule="evenodd" d="M781.9 555.9h.7v-24h-.7v24Z" class="g1_52"/>
<path fill-rule="evenodd" d="M116.6 556.7h.8v-.8h-.8v.8Z" class="g1_52"/>
<path fill-rule="evenodd" d="M117.4 556.7H487.2v-.8H117.4v.8Z" class="g1_52"/>
<path fill-rule="evenodd" d="M487.2 556.7h.8v-.8h-.8v.8Z" class="g1_52"/>
<path fill-rule="evenodd" d="M488 556.7H781.9v-.8H488v.8Z" class="g1_52"/>
<path fill-rule="evenodd" d="M781.9 556.7h.7v-.8h-.7v.8Z" class="g1_52"/>
<path fill-rule="evenodd" d="M116.6 580.7h.8v-24h-.8v24Z" class="g1_52"/>
<path fill-rule="evenodd" d="M487.2 580.7h.8v-24h-.8v24Z" class="g1_52"/>
<path fill-rule="evenodd" d="M781.9 580.7h.7v-24h-.7v24Z" class="g1_52"/>
<path fill-rule="evenodd" d="M116.6 581.4h.8v-.7h-.8v.7Z" class="g1_52"/>
<path fill-rule="evenodd" d="M117.4 581.4H487.2v-.7H117.4v.7Z" class="g1_52"/>
<path fill-rule="evenodd" d="M487.2 581.4h.8v-.7h-.8v.7Z" class="g1_52"/>
<path fill-rule="evenodd" d="M488 581.4H781.9v-.7H488v.7Z" class="g1_52"/>
<path fill-rule="evenodd" d="M781.9 581.4h.7v-.7h-.7v.7Z" class="g1_52"/>
<path fill-rule="evenodd" d="M116.6 653.5h.8V581.4h-.8v72.1Z" class="g1_52"/>
<path fill-rule="evenodd" d="M116.6 654.2h.8v-.7h-.8v.7Z" class="g1_52"/>
<path fill-rule="evenodd" d="M116.6 654.2h.8v-.7h-.8v.7Z" class="g1_52"/>
<path fill-rule="evenodd" d="M117.4 654.2H487.2v-.7H117.4v.7Z" class="g1_52"/>
<path fill-rule="evenodd" d="M487.2 653.5h.8V581.4h-.8v72.1Z" class="g1_52"/>
<path fill-rule="evenodd" d="M487.2 654.2h.8v-.7h-.8v.7Z" class="g1_52"/>
<path fill-rule="evenodd" d="M488 654.2H781.9v-.7H488v.7Z" class="g1_52"/>
<path fill-rule="evenodd" d="M781.9 653.5h.7V581.4h-.7v72.1Z" class="g1_52"/>
<path fill-rule="evenodd" d="M781.9 654.2h.7v-.7h-.7v.7Z" class="g1_52"/>
<path fill-rule="evenodd" d="M781.9 654.2h.7v-.7h-.7v.7Z" class="g1_52"/>
</svg>