<?xml version="1.0" encoding="UTF-8" standalone="no"?>
<!DOCTYPE svg PUBLIC "-//W3C//DTD SVG 1.1//EN"
"http://www.w3.org/Graphics/SVG/1.1/DTD/svg11.dtd">
<svg viewBox="0 0 909 1286" version="1.1" xmlns="http://www.w3.org/2000/svg" xmlns:xlink="http://www.w3.org/1999/xlink">
<defs>
<clipPath id="c0_105"><path d="M426.2 1230v-33.3H479V1230Z"/></clipPath>
<style type="text/css"><![CDATA[
.g0_105{
fill: #4472C4;
}
.g1_105{
fill: #000;
}
]]></style>
</defs>
<path fill-rule="evenodd" d="M49.7 1181.5H855.4v-1.1H49.7v1.1Z" class="g0_105"/>
<image clip-path="url(#c0_105)" preserveAspectRatio="none" x="426" y="1197" width="53" height="33" xlink:href="img/1.png"/>
<path fill-rule="evenodd" d="M73.2 76.4h.7v-.7h-.7v.7Z" class="g1_105"/>
<path fill-rule="evenodd" d="M73.2 76.4h.7v-.7h-.7v.7Z" class="g1_105"/>
<path fill-rule="evenodd" d="M73.9 76.4H320.7v-.7H73.9v.7Z" class="g1_105"/>
<path fill-rule="evenodd" d="M320.7 76.4h.8v-.7h-.8v.7Z" class="g1_105"/>
<path fill-rule="evenodd" d="M321.5 76.4H582.2v-.7H321.5v.7Z" class="g1_105"/>
<path fill-rule="evenodd" d="M582.2 76.4h.7v-.7h-.7v.7Z" class="g1_105"/>
<path fill-rule="evenodd" d="M582.9 76.4H830.8v-.7H582.9v.7Z" class="g1_105"/>
<path fill-rule="evenodd" d="M830.8 76.4h.8v-.7h-.8v.7Z" class="g1_105"/>
<path fill-rule="evenodd" d="M830.8 76.4h.8v-.7h-.8v.7Z" class="g1_105"/>
<path fill-rule="evenodd" d="M73.2 145h.7V76.4h-.7V145Z" class="g1_105"/>
<path fill-rule="evenodd" d="M320.7 145h.8V76.4h-.8V145Z" class="g1_105"/>
<path fill-rule="evenodd" d="M582.2 145h.7V76.4h-.7V145Z" class="g1_105"/>
<path fill-rule="evenodd" d="M830.8 145h.8V76.4h-.8V145Z" class="g1_105"/>
<path fill-rule="evenodd" d="M73.2 145.8h.7V145h-.7v.8Z" class="g1_105"/>
<path fill-rule="evenodd" d="M73.9 145.8H320.7V145H73.9v.8Z" class="g1_105"/>
<path fill-rule="evenodd" d="M320.7 145.8h.8V145h-.8v.8Z" class="g1_105"/>
<path fill-rule="evenodd" d="M321.5 145.8H582.2V145H321.5v.8Z" class="g1_105"/>
<path fill-rule="evenodd" d="M582.2 145.8h.7V145h-.7v.8Z" class="g1_105"/>
<path fill-rule="evenodd" d="M582.9 145.8H830.8V145H582.9v.8Z" class="g1_105"/>
<path fill-rule="evenodd" d="M830.8 145.8h.8V145h-.8v.8Z" class="g1_105"/>
<path fill-rule="evenodd" d="M73.2 251.6h.7V145.8h-.7V251.6Z" class="g1_105"/>
<path fill-rule="evenodd" d="M320.7 251.6h.8V145.8h-.8V251.6Z" class="g1_105"/>
<path fill-rule="evenodd" d="M582.2 251.6h.7V145.8h-.7V251.6Z" class="g1_105"/>
<path fill-rule="evenodd" d="M830.8 251.6h.8V145.8h-.8V251.6Z" class="g1_105"/>
<path fill-rule="evenodd" d="M73.2 252.3h.7v-.7h-.7v.7Z" class="g1_105"/>
<path fill-rule="evenodd" d="M73.9 252.3H320.7v-.7H73.9v.7Z" class="g1_105"/>
<path fill-rule="evenodd" d="M320.7 252.3h.8v-.7h-.8v.7Z" class="g1_105"/>
<path fill-rule="evenodd" d="M321.5 252.3H582.2v-.7H321.5v.7Z" class="g1_105"/>
<path fill-rule="evenodd" d="M582.2 252.3h.7v-.7h-.7v.7Z" class="g1_105"/>
<path fill-rule="evenodd" d="M582.9 252.3H830.8v-.7H582.9v.7Z" class="g1_105"/>
<path fill-rule="evenodd" d="M830.8 252.3h.8v-.7h-.8v.7Z" class="g1_105"/>
<path fill-rule="evenodd" d="M73.2 305.5h.7V252.3h-.7v53.2Z" class="g1_105"/>
<path fill-rule="evenodd" d="M73.2 306.2h.7v-.7h-.7v.7Z" class="g1_105"/>
<path fill-rule="evenodd" d="M73.2 306.2h.7v-.7h-.7v.7Z" class="g1_105"/>
<path fill-rule="evenodd" d="M73.9 306.2H320.7v-.7H73.9v.7Z" class="g1_105"/>
<path fill-rule="evenodd" d="M320.7 305.5h.8V252.3h-.8v53.2Z" class="g1_105"/>
<path fill-rule="evenodd" d="M320.7 306.2h.8v-.7h-.8v.7Z" class="g1_105"/>
<path fill-rule="evenodd" d="M321.5 306.2H582.2v-.7H321.5v.7Z" class="g1_105"/>
<path fill-rule="evenodd" d="M582.2 305.5h.7V252.3h-.7v53.2Z" class="g1_105"/>
<path fill-rule="evenodd" d="M582.2 306.2h.7v-.7h-.7v.7Z" class="g1_105"/>
<path fill-rule="evenodd" d="M582.9 306.2H830.8v-.7H582.9v.7Z" class="g1_105"/>
<path fill-rule="evenodd" d="M830.8 305.5h.8V252.3h-.8v53.2Z" class="g1_105"/>
<path fill-rule="evenodd" d="M830.8 306.2h.8v-.7h-.8v.7Z" class="g1_105"/>
<path fill-rule="evenodd" d="M830.8 306.2h.8v-.7h-.8v.7Z" class="g1_105"/>
</svg>