<?xml version="1.0" encoding="UTF-8" standalone="no"?>
<!DOCTYPE svg PUBLIC "-//W3C//DTD SVG 1.1//EN"
"http://www.w3.org/Graphics/SVG/1.1/DTD/svg11.dtd">
<svg viewBox="0 0 909 1286" version="1.1" xmlns="http://www.w3.org/2000/svg" xmlns:xlink="http://www.w3.org/1999/xlink">
<defs>
<clipPath id="c0_101"><path d="M426.2 1230v-33.3H479V1230Z"/></clipPath>
<style type="text/css"><![CDATA[
.g0_101{
fill: #4472C4;
}
.g1_101{
fill: #000;
}
]]></style>
</defs>
<path fill-rule="evenodd" d="M49.7 1181.5H855.4v-1.1H49.7v1.1Z" class="g0_101"/>
<image clip-path="url(#c0_101)" preserveAspectRatio="none" x="426" y="1197" width="53" height="33" xlink:href="img/1.png"/>
<path fill-rule="evenodd" d="M70.4 82.3h.7v-.7h-.7v.7Z" class="g1_101"/>
<path fill-rule="evenodd" d="M70.4 82.3h.7v-.7h-.7v.7Z" class="g1_101"/>
<path fill-rule="evenodd" d="M71.1 82.3H861.5v-.7H71.1v.7Z" class="g1_101"/>
<path fill-rule="evenodd" d="M861.5 82.3h.7v-.7h-.7v.7Z" class="g1_101"/>
<path fill-rule="evenodd" d="M861.5 82.3h.7v-.7h-.7v.7Z" class="g1_101"/>
<path fill-rule="evenodd" d="M70.4 106.7h.7V82.3h-.7v24.4Z" class="g1_101"/>
<path fill-rule="evenodd" d="M861.5 106.7h.7V82.3h-.7v24.4Z" class="g1_101"/>
<path fill-rule="evenodd" d="M70.4 135.3h.7V106.7h-.7v28.6Z" class="g1_101"/>
<path fill-rule="evenodd" d="M861.5 135.3h.7V106.7h-.7v28.6Z" class="g1_101"/>
<path fill-rule="evenodd" d="M70.4 163.9h.7V135.3h-.7v28.6Z" class="g1_101"/>
<path fill-rule="evenodd" d="M861.5 163.9h.7V135.3h-.7v28.6Z" class="g1_101"/>
<path fill-rule="evenodd" d="M70.4 192.5h.7V163.9h-.7v28.6Z" class="g1_101"/>
<path fill-rule="evenodd" d="M861.5 192.5h.7V163.9h-.7v28.6Z" class="g1_101"/>
<path fill-rule="evenodd" d="M70.4 223.5h.7v-.7h-.7v.7Z" class="g1_101"/>
<path fill-rule="evenodd" d="M70.4 223.5h.7v-.7h-.7v.7Z" class="g1_101"/>
<path fill-rule="evenodd" d="M71.1 223.5H861.5v-.7H71.1v.7Z" class="g1_101"/>
<path fill-rule="evenodd" d="M861.5 223.5h.7v-.7h-.7v.7Z" class="g1_101"/>
<path fill-rule="evenodd" d="M861.5 223.5h.7v-.7h-.7v.7Z" class="g1_101"/>
<path fill-rule="evenodd" d="M70.4 222.8h.7V192.5h-.7v30.3Z" class="g1_101"/>
<path fill-rule="evenodd" d="M861.5 222.8h.7V192.5h-.7v30.3Z" class="g1_101"/>
<path fill-rule="evenodd" d="M181.5 616.8h.8v-.7h-.8v.7Z" class="g1_101"/>
<path fill-rule="evenodd" d="M181.5 616.8h.8v-.7h-.8v.7Z" class="g1_101"/>
<path fill-rule="evenodd" d="M182.3 616.8h430v-.7h-430v.7Z" class="g1_101"/>
<path fill-rule="evenodd" d="M612.3 616.8h.7v-.7h-.7v.7Z" class="g1_101"/>
<path fill-rule="evenodd" d="M612.3 616.8h.7v-.7h-.7v.7Z" class="g1_101"/>
<path fill-rule="evenodd" d="M181.5 802.6h.8V616.8h-.8V802.6Z" class="g1_101"/>
<path fill-rule="evenodd" d="M181.5 803.3h.8v-.7h-.8v.7Z" class="g1_101"/>
<path fill-rule="evenodd" d="M181.5 803.3h.8v-.7h-.8v.7Z" class="g1_101"/>
<path fill-rule="evenodd" d="M182.3 803.3h430v-.7h-430v.7Z" class="g1_101"/>
<path fill-rule="evenodd" d="M612.3 802.6h.7V616.8h-.7V802.6Z" class="g1_101"/>
<path fill-rule="evenodd" d="M612.3 803.3h.7v-.7h-.7v.7Z" class="g1_101"/>
<path fill-rule="evenodd" d="M612.3 803.3h.7v-.7h-.7v.7Z" class="g1_101"/>
</svg>