<?xml version="1.0" encoding="UTF-8" standalone="no"?>
<!DOCTYPE svg PUBLIC "-//W3C//DTD SVG 1.1//EN"
"http://www.w3.org/Graphics/SVG/1.1/DTD/svg11.dtd">
<svg viewBox="0 0 909 1286" version="1.1" xmlns="http://www.w3.org/2000/svg" xmlns:xlink="http://www.w3.org/1999/xlink">
<defs>
<clipPath id="c0_16"><path d="M421.9 1209.8v-33.3h52.7v33.3Z"/></clipPath>
<clipPath id="c1_16"><path d="M0 1286.4V0H909.9V1286.4Z"/></clipPath>
<clipPath id="c2_16"><path d="M51.9 155.7V132.4h858v23.3Z"/></clipPath>
<style type="text/css"><![CDATA[
.g0_16{
fill: #4472C4;
}
.g1_16{
fill: #EDEDED;
}
.g2_16{
fill: #FFF;
}
]]></style>
</defs>
<path fill-rule="evenodd" d="M49.7 88.9H855.8v-.7H49.7v.7Z" class="g0_16"/>
<path fill-rule="evenodd" d="M49.7 1161.4H855.8v-1.1H49.7v1.1Z" class="g0_16"/>
<image clip-path="url(#c0_16)" preserveAspectRatio="none" x="422" y="1176" width="53" height="34" xlink:href="img/1.png"/>
<path clip-path="url(#c1_16)" fill-rule="evenodd" d="M51.9 155.7h944V132.4H51.9v23.3Z" class="g1_16"/>
<path clip-path="url(#c2_16)" fill-rule="evenodd" d="M51.9 155.7h944V132.4H51.9v23.3Z" class="g1_16"/>
<path fill-rule="evenodd" d="M104.7 684.5H402.9V661.8H104.7v22.7Z" class="g2_16"/>
<path fill-rule="evenodd" d="M132.4 730.1H279.1V707.4H132.4v22.7Z" class="g2_16"/>
<path fill-rule="evenodd" d="M79.4 913.3H443.8V890H79.4v23.3Z" class="g2_16"/>
<path fill-rule="evenodd" d="M79.4 1028.8H834.3v-23.1H79.4v23.1Z" class="g2_16"/>
</svg>