<?xml version="1.0" encoding="UTF-8" standalone="no"?>
<!DOCTYPE svg PUBLIC "-//W3C//DTD SVG 1.1//EN"
"http://www.w3.org/Graphics/SVG/1.1/DTD/svg11.dtd">
<svg viewBox="0 0 909 1286" version="1.1" xmlns="http://www.w3.org/2000/svg" xmlns:xlink="http://www.w3.org/1999/xlink">
<defs>
<clipPath id="c0_13"><path d="M421.9 1209.8v-33.3h52.7v33.3Z"/></clipPath>
<style type="text/css"><![CDATA[
.g0_13{
fill: #4472C4;
}
.g1_13{
fill: #FFF;
}
]]></style>
</defs>
<path fill-rule="evenodd" d="M49.7 88.9H855.8v-.7H49.7v.7Z" class="g0_13"/>
<path fill-rule="evenodd" d="M49.7 1161.4H855.8v-1.1H49.7v1.1Z" class="g0_13"/>
<image clip-path="url(#c0_13)" preserveAspectRatio="none" x="422" y="1176" width="53" height="34" xlink:href="img/1.png"/>
<path fill-rule="evenodd" d="M161 179H549.2V156H161v23Z" class="g1_13"/>
<path fill-rule="evenodd" d="M161 202.1H655.4v-23H161v23Z" class="g1_13"/>
<path fill-rule="evenodd" d="M161 225.3H815.3V202.4H161v22.9Z" class="g1_13"/>
<path fill-rule="evenodd" d="M161 248.6H818.8V225.7H161v22.9Z" class="g1_13"/>
<path fill-rule="evenodd" d="M161 271.4H629.3V248.6H161v22.8Z" class="g1_13"/>
<path fill-rule="evenodd" d="M161 294.6H770.7V271.7H161v22.9Z" class="g1_13"/>
<path fill-rule="evenodd" d="M161 364.3H516.4V341.4H161v22.9Z" class="g1_13"/>
<path fill-rule="evenodd" d="M161 434H520V411.1H161V434Z" class="g1_13"/>
<path fill-rule="evenodd" d="M161 596.1H620.7V573.2H161v22.9Z" class="g1_13"/>
<path fill-rule="evenodd" d="M161 711.8H587.9V688.9H161v22.9Z" class="g1_13"/>
<path fill-rule="evenodd" d="M161 781.5H580.4V758.6H161v22.9Z" class="g1_13"/>
<path fill-rule="evenodd" d="M142.1 1079.8H504.5v-22.7H142.1v22.7Z" class="g1_13"/>
</svg>