<?xml version="1.0" encoding="UTF-8" standalone="no"?>
<!DOCTYPE svg PUBLIC "-//W3C//DTD SVG 1.1//EN"
"http://www.w3.org/Graphics/SVG/1.1/DTD/svg11.dtd">
<svg viewBox="0 0 909 1286" version="1.1" xmlns="http://www.w3.org/2000/svg" xmlns:xlink="http://www.w3.org/1999/xlink">
<defs>
<clipPath id="c0_44"><path d="M421.9 1209.8v-33.3h52.7v33.3Z"/></clipPath>
<style type="text/css"><![CDATA[
.g0_44{
fill: #4472C4;
}
.g1_44{
fill: #F00;
}
.g2_44{
fill: #000;
}
.g3_44{
fill: #FFF;
}
.g4_44{
fill: #F2F6FD;
}
]]></style>
</defs>
<path fill-rule="evenodd" d="M49.7 88.9H855.8v-.7H49.7v.7Z" class="g0_44"/>
<path fill-rule="evenodd" d="M49.7 1161.4H855.8v-1.1H49.7v1.1Z" class="g0_44"/>
<image clip-path="url(#c0_44)" preserveAspectRatio="none" x="422" y="1176" width="53" height="34" xlink:href="img/1.png"/>
<path fill-rule="evenodd" d="M138.5 155.1H619.8v-2H138.5v2Z" class="g1_44"/>
<path fill-rule="evenodd" d="M116.6 200.2h.8v-.7h-.8v.7Z" class="g2_44"/>
<path fill-rule="evenodd" d="M116.6 200.2h.8v-.7h-.8v.7Z" class="g2_44"/>
<path fill-rule="evenodd" d="M117.4 200.2H430.8v-.7H117.4v.7Z" class="g2_44"/>
<path fill-rule="evenodd" d="M430.8 200.2h.7v-.7h-.7v.7Z" class="g2_44"/>
<path fill-rule="evenodd" d="M431.5 200.2H754.2v-.7H431.5v.7Z" class="g2_44"/>
<path fill-rule="evenodd" d="M754.2 200.2h.7v-.7h-.7v.7Z" class="g2_44"/>
<path fill-rule="evenodd" d="M754.2 200.2h.7v-.7h-.7v.7Z" class="g2_44"/>
<path fill-rule="evenodd" d="M116.6 223.1h.8V200.2h-.8v22.9Z" class="g2_44"/>
<path fill-rule="evenodd" d="M430.8 223.1h.7V200.2h-.7v22.9Z" class="g2_44"/>
<path fill-rule="evenodd" d="M754.2 223.1h.7V200.2h-.7v22.9Z" class="g2_44"/>
<path fill-rule="evenodd" d="M117.4 292.4H430.8V223.9H117.4v68.5Z" class="g3_44"/>
<path fill-rule="evenodd" d="M125.3 246.8H422.8V223.9H125.3v22.9Z" class="g3_44"/>
<path fill-rule="evenodd" d="M125.3 246.8H417.7V223.9H125.3v22.9Z" class="g3_44"/>
<path fill-rule="evenodd" d="M125.3 269.5H422.8V246.8H125.3v22.7Z" class="g3_44"/>
<path fill-rule="evenodd" d="M125.3 269.5H404.9V246.8H125.3v22.7Z" class="g3_44"/>
<path fill-rule="evenodd" d="M125.3 292.4H422.8V269.5H125.3v22.9Z" class="g3_44"/>
<path fill-rule="evenodd" d="M125.3 292.4h158V269.5h-158v22.9Z" class="g3_44"/>
<path fill-rule="evenodd" d="M283.3 292.4H289V269.5h-5.7v22.9Z" class="g4_44"/>
<path fill-rule="evenodd" d="M439.4 246.8H709.1V223.9H439.4v22.9Z" class="g3_44"/>
<path fill-rule="evenodd" d="M439.4 269.5H638V246.8H439.4v22.7Z" class="g3_44"/>
<path fill-rule="evenodd" d="M638 269.5h5.7V246.8H638v22.7Z" class="g4_44"/>
<path fill-rule="evenodd" d="M116.6 223.9h.8v-.8h-.8v.8Z" class="g2_44"/>
<path fill-rule="evenodd" d="M117.4 223.9H430.8v-.8H117.4v.8Z" class="g2_44"/>
<path fill-rule="evenodd" d="M430.8 223.9h.7v-.8h-.7v.8Z" class="g2_44"/>
<path fill-rule="evenodd" d="M431.5 223.9H754.2v-.8H431.5v.8Z" class="g2_44"/>
<path fill-rule="evenodd" d="M754.2 223.9h.7v-.8h-.7v.8Z" class="g2_44"/>
<path fill-rule="evenodd" d="M116.6 292.4h.8V223.9h-.8v68.5Z" class="g2_44"/>
<path fill-rule="evenodd" d="M430.8 292.4h.7V223.9h-.7v68.5Z" class="g2_44"/>
<path fill-rule="evenodd" d="M754.2 292.4h.7V223.9h-.7v68.5Z" class="g2_44"/>
<path fill-rule="evenodd" d="M116.6 293.2h.8v-.8h-.8v.8Z" class="g2_44"/>
<path fill-rule="evenodd" d="M117.4 293.2H430.8v-.8H117.4v.8Z" class="g2_44"/>
<path fill-rule="evenodd" d="M430.8 293.2h.7v-.8h-.7v.8Z" class="g2_44"/>
<path fill-rule="evenodd" d="M431.5 293.2H754.2v-.8H431.5v.8Z" class="g2_44"/>
<path fill-rule="evenodd" d="M754.2 293.2h.7v-.8h-.7v.8Z" class="g2_44"/>
<path fill-rule="evenodd" d="M116.6 315.9h.8V293.2h-.8v22.7Z" class="g2_44"/>
<path fill-rule="evenodd" d="M430.8 315.9h.7V293.2h-.7v22.7Z" class="g2_44"/>
<path fill-rule="evenodd" d="M754.2 315.9h.7V293.2h-.7v22.7Z" class="g2_44"/>
<path fill-rule="evenodd" d="M116.6 316.6h.8v-.7h-.8v.7Z" class="g2_44"/>
<path fill-rule="evenodd" d="M117.4 316.6H430.8v-.7H117.4v.7Z" class="g2_44"/>
<path fill-rule="evenodd" d="M430.8 316.6h.7v-.7h-.7v.7Z" class="g2_44"/>
<path fill-rule="evenodd" d="M431.5 316.6H754.2v-.7H431.5v.7Z" class="g2_44"/>
<path fill-rule="evenodd" d="M754.2 316.6h.7v-.7h-.7v.7Z" class="g2_44"/>
<path fill-rule="evenodd" d="M116.6 380.1h.8V316.7h-.8v63.4Z" class="g2_44"/>
<path fill-rule="evenodd" d="M430.8 380.1h.7V316.7h-.7v63.4Z" class="g2_44"/>
<path fill-rule="evenodd" d="M754.2 380.1h.7V316.7h-.7v63.4Z" class="g2_44"/>
<path fill-rule="evenodd" d="M125.3 401.2H394.8V380.9H125.3v20.3Z" class="g3_44"/>
<path fill-rule="evenodd" d="M125.3 421.4H382.5V401.2H125.3v20.2Z" class="g3_44"/>
<path fill-rule="evenodd" d="M382.5 421.4h5.7V401.2h-5.7v20.2Z" class="g4_44"/>
<path fill-rule="evenodd" d="M431.5 421.4H754.2V380.9H431.5v40.5Z" class="g3_44"/>
<path fill-rule="evenodd" d="M439.4 401.2H746.3V380.9H439.4v20.3Z" class="g3_44"/>
<path fill-rule="evenodd" d="M439.4 401.2H742.8V380.9H439.4v20.3Z" class="g3_44"/>
<path fill-rule="evenodd" d="M439.4 421.4H746.3V401.2H439.4v20.2Z" class="g3_44"/>
<path fill-rule="evenodd" d="M439.4 421.4h79.7V401.2H439.4v20.2Z" class="g3_44"/>
<path fill-rule="evenodd" d="M519.1 421.4h5.7V401.2h-5.7v20.2Z" class="g4_44"/>
<path fill-rule="evenodd" d="M116.6 380.9h.8v-.8h-.8v.8Z" class="g2_44"/>
<path fill-rule="evenodd" d="M117.4 380.9H430.8v-.8H117.4v.8Z" class="g2_44"/>
<path fill-rule="evenodd" d="M430.8 380.9h.7v-.8h-.7v.8Z" class="g2_44"/>
<path fill-rule="evenodd" d="M431.5 380.9H754.2v-.8H431.5v.8Z" class="g2_44"/>
<path fill-rule="evenodd" d="M754.2 380.9h.7v-.8h-.7v.8Z" class="g2_44"/>
<path fill-rule="evenodd" d="M116.6 421.4h.8V380.9h-.8v40.5Z" class="g2_44"/>
<path fill-rule="evenodd" d="M430.8 421.4h.7V380.9h-.7v40.5Z" class="g2_44"/>
<path fill-rule="evenodd" d="M754.2 421.4h.7V380.9h-.7v40.5Z" class="g2_44"/>
<path fill-rule="evenodd" d="M125.3 442.5H352.4V422.1H125.3v20.4Z" class="g3_44"/>
<path fill-rule="evenodd" d="M125.3 462.6H393V442.5H125.3v20.1Z" class="g3_44"/>
<path fill-rule="evenodd" d="M393 462.6h5.6V442.5H393v20.1Z" class="g4_44"/>
<path fill-rule="evenodd" d="M116.6 422.1h.8v-.7h-.8v.7Z" class="g2_44"/>
<path fill-rule="evenodd" d="M117.4 422.1H430.8v-.7H117.4v.7Z" class="g2_44"/>
<path fill-rule="evenodd" d="M430.8 422.1h.7v-.7h-.7v.7Z" class="g2_44"/>
<path fill-rule="evenodd" d="M431.5 422.1H754.2v-.7H431.5v.7Z" class="g2_44"/>
<path fill-rule="evenodd" d="M754.2 422.1h.7v-.7h-.7v.7Z" class="g2_44"/>
<path fill-rule="evenodd" d="M116.6 462.6h.8V422.1h-.8v40.5Z" class="g2_44"/>
<path fill-rule="evenodd" d="M430.8 462.6h.7V422.1h-.7v40.5Z" class="g2_44"/>
<path fill-rule="evenodd" d="M754.2 462.6h.7V422.1h-.7v40.5Z" class="g2_44"/>
<path fill-rule="evenodd" d="M116.6 463.4h.8v-.8h-.8v.8Z" class="g2_44"/>
<path fill-rule="evenodd" d="M117.4 463.4H430.8v-.8H117.4v.8Z" class="g2_44"/>
<path fill-rule="evenodd" d="M430.8 463.4h.7v-.8h-.7v.8Z" class="g2_44"/>
<path fill-rule="evenodd" d="M431.5 463.4H754.2v-.8H431.5v.8Z" class="g2_44"/>
<path fill-rule="evenodd" d="M754.2 463.4h.7v-.8h-.7v.8Z" class="g2_44"/>
<path fill-rule="evenodd" d="M116.6 486.3h.8V463.4h-.8v22.9Z" class="g2_44"/>
<path fill-rule="evenodd" d="M430.8 486.3h.7V463.4h-.7v22.9Z" class="g2_44"/>
<path fill-rule="evenodd" d="M754.2 486.3h.7V463.4h-.7v22.9Z" class="g2_44"/>
<path fill-rule="evenodd" d="M125.3 509.9H356.7V487H125.3v22.9Z" class="g3_44"/>
<path fill-rule="evenodd" d="M356.7 509.9h5.6V487h-5.6v22.9Z" class="g4_44"/>
<path fill-rule="evenodd" d="M439.4 509.9H715.7V487H439.4v22.9Z" class="g3_44"/>
<path fill-rule="evenodd" d="M116.6 487h.8v-.7h-.8v.7Z" class="g2_44"/>
<path fill-rule="evenodd" d="M117.4 487H430.8v-.7H117.4v.7Z" class="g2_44"/>
<path fill-rule="evenodd" d="M430.8 487h.7v-.7h-.7v.7Z" class="g2_44"/>
<path fill-rule="evenodd" d="M431.5 487H754.2v-.7H431.5v.7Z" class="g2_44"/>
<path fill-rule="evenodd" d="M754.2 487h.7v-.7h-.7v.7Z" class="g2_44"/>
<path fill-rule="evenodd" d="M116.6 509.9h.8V487h-.8v22.9Z" class="g2_44"/>
<path fill-rule="evenodd" d="M430.8 509.9h.7V487h-.7v22.9Z" class="g2_44"/>
<path fill-rule="evenodd" d="M754.2 509.9h.7V487h-.7v22.9Z" class="g2_44"/>
<path fill-rule="evenodd" d="M116.6 510.7h.8v-.8h-.8v.8Z" class="g2_44"/>
<path fill-rule="evenodd" d="M117.4 510.7H430.8v-.8H117.4v.8Z" class="g2_44"/>
<path fill-rule="evenodd" d="M430.8 510.7h.7v-.8h-.7v.8Z" class="g2_44"/>
<path fill-rule="evenodd" d="M431.5 510.7H754.2v-.8H431.5v.8Z" class="g2_44"/>
<path fill-rule="evenodd" d="M754.2 510.7h.7v-.8h-.7v.8Z" class="g2_44"/>
<path fill-rule="evenodd" d="M116.6 556.3h.8V510.7h-.8v45.6Z" class="g2_44"/>
<path fill-rule="evenodd" d="M116.6 557h.8v-.7h-.8v.7Z" class="g2_44"/>
<path fill-rule="evenodd" d="M116.6 557h.8v-.7h-.8v.7Z" class="g2_44"/>
<path fill-rule="evenodd" d="M117.4 557H430.8v-.7H117.4v.7Z" class="g2_44"/>
<path fill-rule="evenodd" d="M430.8 556.3h.7V510.7h-.7v45.6Z" class="g2_44"/>
<path fill-rule="evenodd" d="M430.8 557h.7v-.7h-.7v.7Z" class="g2_44"/>
<path fill-rule="evenodd" d="M431.5 557H754.2v-.7H431.5v.7Z" class="g2_44"/>
<path fill-rule="evenodd" d="M754.2 556.3h.7V510.7h-.7v45.6Z" class="g2_44"/>
<path fill-rule="evenodd" d="M754.2 557h.7v-.7h-.7v.7Z" class="g2_44"/>
<path fill-rule="evenodd" d="M754.2 557h.7v-.7h-.7v.7Z" class="g2_44"/>
<path fill-rule="evenodd" d="M121 652.6h.8v-.7H121v.7Z" class="g2_44"/>
<path fill-rule="evenodd" d="M121 652.6h.8v-.7H121v.7Z" class="g2_44"/>
<path fill-rule="evenodd" d="M121.8 652.6H445.6v-.7H121.8v.7Z" class="g2_44"/>
<path fill-rule="evenodd" d="M445.6 652.6h.7v-.7h-.7v.7Z" class="g2_44"/>
<path fill-rule="evenodd" d="M446.3 652.6H783.8v-.7H446.3v.7Z" class="g2_44"/>
<path fill-rule="evenodd" d="M783.8 652.6h.7v-.7h-.7v.7Z" class="g2_44"/>
<path fill-rule="evenodd" d="M783.8 652.6h.7v-.7h-.7v.7Z" class="g2_44"/>
<path fill-rule="evenodd" d="M121 673.1h.8V652.6H121v20.5Z" class="g2_44"/>
<path fill-rule="evenodd" d="M445.6 673.1h.7V652.6h-.7v20.5Z" class="g2_44"/>
<path fill-rule="evenodd" d="M783.8 673.1h.7V652.6h-.7v20.5Z" class="g2_44"/>
<path fill-rule="evenodd" d="M121 673.9h.8v-.8H121v.8Z" class="g2_44"/>
<path fill-rule="evenodd" d="M121.8 673.9H445.6v-.8H121.8v.8Z" class="g2_44"/>
<path fill-rule="evenodd" d="M445.6 673.9h.7v-.8h-.7v.8Z" class="g2_44"/>
<path fill-rule="evenodd" d="M446.3 673.9H783.8v-.8H446.3v.8Z" class="g2_44"/>
<path fill-rule="evenodd" d="M783.8 673.9h.7v-.8h-.7v.8Z" class="g2_44"/>
<path fill-rule="evenodd" d="M121 708.7h.8V673.9H121v34.8Z" class="g2_44"/>
<path fill-rule="evenodd" d="M445.6 708.7h.7V673.9h-.7v34.8Z" class="g2_44"/>
<path fill-rule="evenodd" d="M783.8 708.7h.7V673.9h-.7v34.8Z" class="g2_44"/>
<path fill-rule="evenodd" d="M121 709.4h.8v-.7H121v.7Z" class="g2_44"/>
<path fill-rule="evenodd" d="M121.8 709.4H445.6v-.7H121.8v.7Z" class="g2_44"/>
<path fill-rule="evenodd" d="M445.6 709.4h.7v-.7h-.7v.7Z" class="g2_44"/>
<path fill-rule="evenodd" d="M446.3 709.4H783.8v-.7H446.3v.7Z" class="g2_44"/>
<path fill-rule="evenodd" d="M783.8 709.4h.7v-.7h-.7v.7Z" class="g2_44"/>
<path fill-rule="evenodd" d="M121 769.2h.8V709.4H121v59.8Z" class="g2_44"/>
<path fill-rule="evenodd" d="M445.6 769.2h.7V709.4h-.7v59.8Z" class="g2_44"/>
<path fill-rule="evenodd" d="M783.8 769.2h.7V709.4h-.7v59.8Z" class="g2_44"/>
<path fill-rule="evenodd" d="M121 769.9h.8v-.7H121v.7Z" class="g2_44"/>
<path fill-rule="evenodd" d="M121.8 769.9H445.6v-.7H121.8v.7Z" class="g2_44"/>
<path fill-rule="evenodd" d="M445.6 769.9h.7v-.7h-.7v.7Z" class="g2_44"/>
<path fill-rule="evenodd" d="M446.3 769.9H783.8v-.7H446.3v.7Z" class="g2_44"/>
<path fill-rule="evenodd" d="M783.8 769.9h.7v-.7h-.7v.7Z" class="g2_44"/>
<path fill-rule="evenodd" d="M121 816.9h.8v-47H121v47Z" class="g2_44"/>
<path fill-rule="evenodd" d="M445.6 816.9h.7v-47h-.7v47Z" class="g2_44"/>
<path fill-rule="evenodd" d="M783.8 816.9h.7v-47h-.7v47Z" class="g2_44"/>
<path fill-rule="evenodd" d="M121 817.6h.8v-.7H121v.7Z" class="g2_44"/>
<path fill-rule="evenodd" d="M121.8 817.6H445.6v-.7H121.8v.7Z" class="g2_44"/>
<path fill-rule="evenodd" d="M445.6 817.6h.7v-.7h-.7v.7Z" class="g2_44"/>
<path fill-rule="evenodd" d="M446.3 817.6H783.8v-.7H446.3v.7Z" class="g2_44"/>
<path fill-rule="evenodd" d="M783.8 817.6h.7v-.7h-.7v.7Z" class="g2_44"/>
<path fill-rule="evenodd" d="M121 878.1h.8V817.6H121v60.5Z" class="g2_44"/>
<path fill-rule="evenodd" d="M445.6 878.1h.7V817.6h-.7v60.5Z" class="g2_44"/>
<path fill-rule="evenodd" d="M783.8 878.1h.7V817.6h-.7v60.5Z" class="g2_44"/>
<path fill-rule="evenodd" d="M121 878.8h.8v-.7H121v.7Z" class="g2_44"/>
<path fill-rule="evenodd" d="M121.8 878.8H445.6v-.7H121.8v.7Z" class="g2_44"/>
<path fill-rule="evenodd" d="M445.6 878.8h.7v-.7h-.7v.7Z" class="g2_44"/>
<path fill-rule="evenodd" d="M446.3 878.8H783.8v-.7H446.3v.7Z" class="g2_44"/>
<path fill-rule="evenodd" d="M783.8 878.8h.7v-.7h-.7v.7Z" class="g2_44"/>
<path fill-rule="evenodd" d="M121 939.6h.8V878.8H121v60.8Z" class="g2_44"/>
<path fill-rule="evenodd" d="M445.6 939.6h.7V878.8h-.7v60.8Z" class="g2_44"/>
<path fill-rule="evenodd" d="M783.8 939.6h.7V878.8h-.7v60.8Z" class="g2_44"/>
<path fill-rule="evenodd" d="M121 940.3h.8v-.7H121v.7Z" class="g2_44"/>
<path fill-rule="evenodd" d="M121.8 940.3H445.6v-.7H121.8v.7Z" class="g2_44"/>
<path fill-rule="evenodd" d="M445.6 940.3h.7v-.7h-.7v.7Z" class="g2_44"/>
<path fill-rule="evenodd" d="M446.3 940.3H783.8v-.7H446.3v.7Z" class="g2_44"/>
<path fill-rule="evenodd" d="M783.8 940.3h.7v-.7h-.7v.7Z" class="g2_44"/>
<path fill-rule="evenodd" d="M121 1041.5h.8V940.3H121v101.2Z" class="g2_44"/>
<path fill-rule="evenodd" d="M445.6 1041.5h.7V940.3h-.7v101.2Z" class="g2_44"/>
<path fill-rule="evenodd" d="M783.8 1041.5h.7V940.3h-.7v101.2Z" class="g2_44"/>
<path fill-rule="evenodd" d="M121 1042.2h.8v-.7H121v.7Z" class="g2_44"/>
<path fill-rule="evenodd" d="M121.8 1042.2H445.6v-.7H121.8v.7Z" class="g2_44"/>
<path fill-rule="evenodd" d="M445.6 1042.2h.7v-.7h-.7v.7Z" class="g2_44"/>
<path fill-rule="evenodd" d="M446.3 1042.2H783.8v-.7H446.3v.7Z" class="g2_44"/>
<path fill-rule="evenodd" d="M783.8 1042.2h.7v-.7h-.7v.7Z" class="g2_44"/>
<path fill-rule="evenodd" d="M121 1077.1h.8v-34.9H121v34.9Z" class="g2_44"/>
<path fill-rule="evenodd" d="M121 1077.8h.8v-.7H121v.7Z" class="g2_44"/>
<path fill-rule="evenodd" d="M121 1077.8h.8v-.7H121v.7Z" class="g2_44"/>
<path fill-rule="evenodd" d="M121.8 1077.8H445.6v-.7H121.8v.7Z" class="g2_44"/>
<path fill-rule="evenodd" d="M445.6 1077.1h.7v-34.9h-.7v34.9Z" class="g2_44"/>
<path fill-rule="evenodd" d="M445.6 1077.8h.7v-.7h-.7v.7Z" class="g2_44"/>
<path fill-rule="evenodd" d="M446.3 1077.8H783.8v-.7H446.3v.7Z" class="g2_44"/>
<path fill-rule="evenodd" d="M783.8 1077.1h.7v-34.9h-.7v34.9Z" class="g2_44"/>
<path fill-rule="evenodd" d="M783.8 1077.8h.7v-.7h-.7v.7Z" class="g2_44"/>
<path fill-rule="evenodd" d="M783.8 1077.8h.7v-.7h-.7v.7Z" class="g2_44"/>
</svg>