<?xml version="1.0" encoding="UTF-8" standalone="no"?>
<!DOCTYPE svg PUBLIC "-//W3C//DTD SVG 1.1//EN"
"http://www.w3.org/Graphics/SVG/1.1/DTD/svg11.dtd">
<svg viewBox="0 0 909 1286" version="1.1" xmlns="http://www.w3.org/2000/svg" xmlns:xlink="http://www.w3.org/1999/xlink">
<defs>
<clipPath id="c0_15"><path d="M421.9 1209.8v-33.3h52.7v33.3Z"/></clipPath>
<clipPath id="c1_15"><path d="M161.9 718.1V507.8H602.6V718.1Z"/></clipPath>
<style type="text/css"><![CDATA[
.g0_15{
fill: #4472C4;
}
.g1_15{
fill: #FFF;
}
.g2_15{
fill: #F5F8FF;
}
]]></style>
</defs>
<path fill-rule="evenodd" d="M49.7 88.9H855.8v-.7H49.7v.7Z" class="g0_15"/>
<path fill-rule="evenodd" d="M49.7 1161.4H855.8v-1.1H49.7v1.1Z" class="g0_15"/>
<image clip-path="url(#c0_15)" preserveAspectRatio="none" x="422" y="1176" width="53" height="34" xlink:href="img/1.png"/>
<path fill-rule="evenodd" d="M106.9 341.9h713V319h-713v22.9Z" class="g1_15"/>
<path fill-rule="evenodd" d="M106.9 364.7H330.3V341.9H106.9v22.8Z" class="g1_15"/>
<path fill-rule="evenodd" d="M330.3 364.7H531.8V341.9H330.3v22.8Z" class="g2_15"/>
<path fill-rule="evenodd" d="M216.9 436.4H383.4V413.5H216.9v22.9Z" class="g2_15"/>
<path fill-rule="evenodd" d="M422.5 436.4H544.8V413.5H422.5v22.9Z" class="g2_15"/>
<path fill-rule="evenodd" d="M216.9 460.8H465.4V437.9H216.9v22.9Z" class="g2_15"/>
<path fill-rule="evenodd" d="M216.9 485H492.2V462.1H216.9V485Z" class="g2_15"/>
<image clip-path="url(#c1_15)" preserveAspectRatio="none" x="162" y="508" width="441" height="210" xlink:href="img/2.png"/>
</svg>