<?xml version="1.0" encoding="UTF-8" standalone="no"?>
<!DOCTYPE svg PUBLIC "-//W3C//DTD SVG 1.1//EN"
"http://www.w3.org/Graphics/SVG/1.1/DTD/svg11.dtd">
<svg viewBox="0 0 909 1286" version="1.1" xmlns="http://www.w3.org/2000/svg" xmlns:xlink="http://www.w3.org/1999/xlink">
<defs>
<clipPath id="c0_96"><path d="M426.2 1230v-33.3H479V1230Z"/></clipPath>
<style type="text/css"><![CDATA[
.g0_96{
fill: #4472C4;
}
.g1_96{
fill: #FFF;
}
.g2_96{
fill: #EFEBEB;
}
.g3_96{
fill: #CCC;
}
.g4_96{
fill: #F8F6F6;
}
.g5_96{
fill: #878787;
}
]]></style>
</defs>
<path fill-rule="evenodd" d="M49.7 1181.5H855.4v-1.1H49.7v1.1Z" class="g0_96"/>
<image clip-path="url(#c0_96)" preserveAspectRatio="none" x="426" y="1197" width="53" height="33" xlink:href="img/1.png"/>
<path fill-rule="evenodd" d="M149.5 148.2H844v-23H149.5v23Z" class="g1_96"/>
<path fill-rule="evenodd" d="M149.5 173.3h52.8V148.2H149.5v25.1Z" class="g1_96"/>
<path fill-rule="evenodd" d="M203.3 172.2h54.1V149.3H203.3v22.9Z" class="g2_96"/>
<path fill-rule="evenodd" d="M258.5 173.3h82V148.2h-82v25.1Z" class="g1_96"/>
<path fill-rule="evenodd" d="M202.2 149.4h1.1v-1.1h-1.1v1.1Z" class="g3_96"/>
<path fill-rule="evenodd" d="M202.2 149.4h1.1v-1.1h-1.1v1.1Z" class="g3_96"/>
<path fill-rule="evenodd" d="M203.3 149.4h54.1v-1.1H203.3v1.1Z" class="g3_96"/>
<path fill-rule="evenodd" d="M257.4 149.4h1.1v-1.1h-1.1v1.1Z" class="g3_96"/>
<path fill-rule="evenodd" d="M257.4 149.4h1.1v-1.1h-1.1v1.1Z" class="g3_96"/>
<path fill-rule="evenodd" d="M202.2 172.2h1.1V149.4h-1.1v22.8Z" class="g3_96"/>
<path fill-rule="evenodd" d="M257.4 172.2h1.1V149.4h-1.1v22.8Z" class="g3_96"/>
<path fill-rule="evenodd" d="M202.2 173.3h1.1v-1.1h-1.1v1.1Z" class="g3_96"/>
<path fill-rule="evenodd" d="M202.2 173.3h1.1v-1.1h-1.1v1.1Z" class="g3_96"/>
<path fill-rule="evenodd" d="M203.3 173.3h54.1v-1.1H203.3v1.1Z" class="g3_96"/>
<path fill-rule="evenodd" d="M257.4 173.3h1.1v-1.1h-1.1v1.1Z" class="g3_96"/>
<path fill-rule="evenodd" d="M257.4 173.3h1.1v-1.1h-1.1v1.1Z" class="g3_96"/>
<path fill-rule="evenodd" d="M149.5 197.5h359V174.6h-359v22.9Z" class="g1_96"/>
<path fill-rule="evenodd" d="M140.7 238.4H852.6v-29H140.7v29Z" class="g4_96"/>
<path fill-rule="evenodd" d="M140.3 209.4h.4V209h-.4v.4Z" class="g5_96"/>
<path fill-rule="evenodd" d="M140.3 209.4h.4V209h-.4v.4Z" class="g5_96"/>
<path fill-rule="evenodd" d="M140.7 209.4H852.6V209H140.7v.4Z" class="g5_96"/>
<path fill-rule="evenodd" d="M852.7 209.4h.3V209h-.3v.4Z" class="g5_96"/>
<path fill-rule="evenodd" d="M852.7 209.4h.3V209h-.3v.4Z" class="g5_96"/>
<path fill-rule="evenodd" d="M140.3 238.7h.4v-.3h-.4v.3Z" class="g5_96"/>
<path fill-rule="evenodd" d="M140.3 238.7h.4v-.3h-.4v.3Z" class="g5_96"/>
<path fill-rule="evenodd" d="M140.7 238.7H852.6v-.3H140.7v.3Z" class="g5_96"/>
<path fill-rule="evenodd" d="M852.7 238.7h.3v-.3h-.3v.3Z" class="g5_96"/>
<path fill-rule="evenodd" d="M852.7 238.7h.3v-.3h-.3v.3Z" class="g5_96"/>
<path fill-rule="evenodd" d="M140.3 238.4h.4v-29h-.4v29Z" class="g5_96"/>
<path fill-rule="evenodd" d="M852.7 238.4h.3v-29h-.3v29Z" class="g5_96"/>
<path fill-rule="evenodd" d="M149.5 273H531.6V250.3H149.5V273Z" class="g1_96"/>
<path fill-rule="evenodd" d="M140.7 313.7H852.6V284.9H140.7v28.8Z" class="g4_96"/>
<path fill-rule="evenodd" d="M140.3 284.9h.4v-.3h-.4v.3Z" class="g5_96"/>
<path fill-rule="evenodd" d="M140.3 284.9h.4v-.3h-.4v.3Z" class="g5_96"/>
<path fill-rule="evenodd" d="M140.7 284.9H852.6v-.3H140.7v.3Z" class="g5_96"/>
<path fill-rule="evenodd" d="M852.7 284.9h.3v-.3h-.3v.3Z" class="g5_96"/>
<path fill-rule="evenodd" d="M852.7 284.9h.3v-.3h-.3v.3Z" class="g5_96"/>
<path fill-rule="evenodd" d="M140.3 314.1h.4v-.4h-.4v.4Z" class="g5_96"/>
<path fill-rule="evenodd" d="M140.3 314.1h.4v-.4h-.4v.4Z" class="g5_96"/>
<path fill-rule="evenodd" d="M140.7 314.1H852.6v-.4H140.7v.4Z" class="g5_96"/>
<path fill-rule="evenodd" d="M852.7 314.1h.3v-.4h-.3v.4Z" class="g5_96"/>
<path fill-rule="evenodd" d="M852.7 314.1h.3v-.4h-.3v.4Z" class="g5_96"/>
<path fill-rule="evenodd" d="M140.3 313.7h.4V284.9h-.4v28.8Z" class="g5_96"/>
<path fill-rule="evenodd" d="M852.7 313.7h.3V284.9h-.3v28.8Z" class="g5_96"/>
</svg>