<?xml version="1.0" encoding="UTF-8" standalone="no"?>
<!DOCTYPE svg PUBLIC "-//W3C//DTD SVG 1.1//EN"
"http://www.w3.org/Graphics/SVG/1.1/DTD/svg11.dtd">
<svg viewBox="0 0 909 1286" version="1.1" xmlns="http://www.w3.org/2000/svg" xmlns:xlink="http://www.w3.org/1999/xlink">
<defs>
<clipPath id="c0_133"><path d="M426.2 1230v-33.3H479V1230Z"/></clipPath>
<clipPath id="c1_133"><path d="M0 1286.3V0H909.5V1286.3Z"/></clipPath>
<style type="text/css"><![CDATA[
.g0_133{
fill: #4472C4;
}
.g1_133{
fill: #DFDFDF;
}
.g2_133{
fill: #000;
}
]]></style>
</defs>
<path fill-rule="evenodd" d="M49.7 1181.5H855.4v-1.1H49.7v1.1Z" class="g0_133"/>
<image clip-path="url(#c0_133)" preserveAspectRatio="none" x="426" y="1197" width="53" height="33" xlink:href="img/1.png"/>
<path fill-rule="evenodd" d="M197.1 145H751.4V122.3H197.1V145Z" class="g1_133"/>
<path fill-rule="evenodd" d="M197.1 206.1H751.4V183.2H197.1v22.9Z" class="g1_133"/>
<path fill-rule="evenodd" d="M197.1 276.1H751.4V253.2H197.1v22.9Z" class="g1_133"/>
<path fill-rule="evenodd" d="M205.5 656h65.1v-1.4H205.5V656Z" class="g2_133"/>
<path fill-rule="evenodd" d="M212.1 726.7H324.8v-1.5H212.1v1.5Z" class="g2_133"/>
<path fill-rule="evenodd" d="M205.5 797.2h66.4v-1.4H205.5v1.4Z" class="g2_133"/>
<path fill-rule="evenodd" d="M210.9 892.4h77.4v-1.5H210.9v1.5Z" class="g2_133"/>
<path fill-rule="evenodd" d="M205.7 963h49.9v-1.4H205.7V963Z" class="g2_133"/>
<g clip-path="url(#c1_133)">
<image preserveAspectRatio="none" x="600" y="1037" width="29" height="22" xlink:href="img/2.png"/>
<image preserveAspectRatio="none" x="283" y="1063" width="30" height="22" xlink:href="img/3.png"/>
<image preserveAspectRatio="none" x="645" y="1089" width="30" height="22" xlink:href="img/4.png"/>
</g>
</svg>