<?xml version="1.0" encoding="UTF-8" standalone="no"?>
<!DOCTYPE svg PUBLIC "-//W3C//DTD SVG 1.1//EN"
"http://www.w3.org/Graphics/SVG/1.1/DTD/svg11.dtd">
<svg viewBox="0 0 909 1286" version="1.1" xmlns="http://www.w3.org/2000/svg" xmlns:xlink="http://www.w3.org/1999/xlink">
<defs>
<clipPath id="c0_14"><path d="M421.9 1209.8v-33.3h52.7v33.3Z"/></clipPath>
<style type="text/css"><![CDATA[
.g0_14{
fill: #4472C4;
}
.g1_14{
fill: #D9EDF7;
}
.g2_14{
fill: #000;
}
.g3_14{
fill: #FFF;
}
.g4_14{
fill: #F8F8F8;
}
]]></style>
</defs>
<path fill-rule="evenodd" d="M49.7 88.9H855.8v-.7H49.7v.7Z" class="g0_14"/>
<path fill-rule="evenodd" d="M49.7 1161.4H855.8v-1.1H49.7v1.1Z" class="g0_14"/>
<image clip-path="url(#c0_14)" preserveAspectRatio="none" x="422" y="1176" width="53" height="34" xlink:href="img/1.png"/>
<path fill-rule="evenodd" d="M84.9 336.1h335V294.5H84.9v41.6Z" class="g1_14"/>
<path fill-rule="evenodd" d="M93.7 326.9H411.1V303.6H93.7v23.3Z" class="g1_14"/>
<path fill-rule="evenodd" d="M420.6 336.1h400V294.5h-400v41.6Z" class="g1_14"/>
<path fill-rule="evenodd" d="M429.5 326.9H811.8V303.6H429.5v23.3Z" class="g1_14"/>
<path fill-rule="evenodd" d="M84.2 303.6h.7v-9.9h-.7v9.9Z" class="g2_14"/>
<path fill-rule="evenodd" d="M84.2 294.5h.7v-.8h-.7v.8Z" class="g2_14"/>
<path fill-rule="evenodd" d="M84.9 294.5h335v-.8H84.9v.8Z" class="g2_14"/>
<path fill-rule="evenodd" d="M84.9 303.6h335v-9.1H84.9v9.1Z" class="g1_14"/>
<path fill-rule="evenodd" d="M419.9 303.6h.7v-9.1h-.7v9.1Z" class="g2_14"/>
<path fill-rule="evenodd" d="M419.9 294.5h.7v-.8h-.7v.8Z" class="g2_14"/>
<path fill-rule="evenodd" d="M420.6 294.5h400v-.8h-400v.8Z" class="g2_14"/>
<path fill-rule="evenodd" d="M420.6 303.6h400v-9.1h-400v9.1Z" class="g1_14"/>
<path fill-rule="evenodd" d="M820.6 303.6h.7v-9.9h-.7v9.9Z" class="g2_14"/>
<path fill-rule="evenodd" d="M820.6 294.5h.7v-.8h-.7v.8Z" class="g2_14"/>
<path fill-rule="evenodd" d="M84.6 336.1H420.3v-9.2H84.6v9.2Z" class="g1_14"/>
<path fill-rule="evenodd" d="M84.2 336.1h.7V303.6h-.7v32.5Z" class="g2_14"/>
<path fill-rule="evenodd" d="M420.3 336.1H821v-9.2H420.3v9.2Z" class="g1_14"/>
<path fill-rule="evenodd" d="M419.9 336.1h.7V303.6h-.7v32.5Z" class="g2_14"/>
<path fill-rule="evenodd" d="M820.6 336.1h.7V303.6h-.7v32.5Z" class="g2_14"/>
<path fill-rule="evenodd" d="M84.9 378.5h335V336.8H84.9v41.7Z" class="g3_14"/>
<path fill-rule="evenodd" d="M93.7 369.3H411.1V346H93.7v23.3Z" class="g3_14"/>
<path fill-rule="evenodd" d="M420.6 378.5h400V336.8h-400v41.7Z" class="g3_14"/>
<path fill-rule="evenodd" d="M429.5 369.3H811.8V346H429.5v23.3Z" class="g3_14"/>
<path fill-rule="evenodd" d="M84.2 346h.7v-9.9h-.7V346Z" class="g2_14"/>
<path fill-rule="evenodd" d="M84.9 336.8h335v-.7H84.9v.7Z" class="g2_14"/>
<path fill-rule="evenodd" d="M84.9 346h335v-9.2H84.9V346Z" class="g3_14"/>
<path fill-rule="evenodd" d="M419.9 346h.7v-9.9h-.7V346Z" class="g2_14"/>
<path fill-rule="evenodd" d="M420.6 336.8h400v-.7h-400v.7Z" class="g2_14"/>
<path fill-rule="evenodd" d="M420.6 346h400v-9.2h-400V346Z" class="g3_14"/>
<path fill-rule="evenodd" d="M820.6 346h.7v-9.9h-.7V346Z" class="g2_14"/>
<path fill-rule="evenodd" d="M84.6 378.5H420.3v-9.2H84.6v9.2Z" class="g3_14"/>
<path fill-rule="evenodd" d="M84.2 378.5h.7V346h-.7v32.5Z" class="g2_14"/>
<path fill-rule="evenodd" d="M420.3 378.5H821v-9.2H420.3v9.2Z" class="g3_14"/>
<path fill-rule="evenodd" d="M419.9 378.5h.7V346h-.7v32.5Z" class="g2_14"/>
<path fill-rule="evenodd" d="M820.6 378.5h.7V346h-.7v32.5Z" class="g2_14"/>
<path fill-rule="evenodd" d="M84.9 443.6h335V379.2H84.9v64.4Z" class="g4_14"/>
<path fill-rule="evenodd" d="M93.7 411.7H411.1V388.4H93.7v23.3Z" class="g4_14"/>
<path fill-rule="evenodd" d="M93.7 434.4H411.1V411.7H93.7v22.7Z" class="g4_14"/>
<path fill-rule="evenodd" d="M420.6 443.6h400V379.2h-400v64.4Z" class="g4_14"/>
<path fill-rule="evenodd" d="M429.5 411.7H811.8V388.4H429.5v23.3Z" class="g4_14"/>
<path fill-rule="evenodd" d="M84.2 388.4h.7v-9.9h-.7v9.9Z" class="g2_14"/>
<path fill-rule="evenodd" d="M84.9 379.2h335v-.7H84.9v.7Z" class="g2_14"/>
<path fill-rule="evenodd" d="M84.9 388.4h335v-9.2H84.9v9.2Z" class="g4_14"/>
<path fill-rule="evenodd" d="M419.9 388.4h.7v-9.9h-.7v9.9Z" class="g2_14"/>
<path fill-rule="evenodd" d="M420.6 379.2h400v-.7h-400v.7Z" class="g2_14"/>
<path fill-rule="evenodd" d="M420.6 388.4h400v-9.2h-400v9.2Z" class="g4_14"/>
<path fill-rule="evenodd" d="M820.6 388.4h.7v-9.9h-.7v9.9Z" class="g2_14"/>
<path fill-rule="evenodd" d="M84.6 443.6H420.3v-9.2H84.6v9.2Z" class="g4_14"/>
<path fill-rule="evenodd" d="M84.2 443.6h.7V388.4h-.7v55.2Z" class="g2_14"/>
<path fill-rule="evenodd" d="M420.3 443.6H821v-9.2H420.3v9.2Z" class="g4_14"/>
<path fill-rule="evenodd" d="M419.9 443.6h.7V388.4h-.7v55.2Z" class="g2_14"/>
<path fill-rule="evenodd" d="M820.6 443.6h.7V388.4h-.7v55.2Z" class="g2_14"/>
<path fill-rule="evenodd" d="M84.9 531.6h335V444.3H84.9v87.3Z" class="g3_14"/>
<path fill-rule="evenodd" d="M93.7 476.7H411.1V453.5H93.7v23.2Z" class="g3_14"/>
<path fill-rule="evenodd" d="M93.7 499.7H411.1v-23H93.7v23Z" class="g3_14"/>
<path fill-rule="evenodd" d="M93.7 522.4H411.1V499.7H93.7v22.7Z" class="g3_14"/>
<path fill-rule="evenodd" d="M420.6 531.6h400V444.3h-400v87.3Z" class="g3_14"/>
<path fill-rule="evenodd" d="M429.5 476.7H811.8V453.5H429.5v23.2Z" class="g3_14"/>
<path fill-rule="evenodd" d="M429.5 499.7H811.8v-23H429.5v23Z" class="g3_14"/>
<path fill-rule="evenodd" d="M429.5 522.4H811.8V499.7H429.5v22.7Z" class="g3_14"/>
<path fill-rule="evenodd" d="M84.2 453.5h.7v-9.9h-.7v9.9Z" class="g2_14"/>
<path fill-rule="evenodd" d="M84.9 444.3h335v-.7H84.9v.7Z" class="g2_14"/>
<path fill-rule="evenodd" d="M84.9 453.5h335v-9.2H84.9v9.2Z" class="g3_14"/>
<path fill-rule="evenodd" d="M419.9 453.5h.7v-9.9h-.7v9.9Z" class="g2_14"/>
<path fill-rule="evenodd" d="M420.6 444.3h400v-.7h-400v.7Z" class="g2_14"/>
<path fill-rule="evenodd" d="M420.6 453.5h400v-9.2h-400v9.2Z" class="g3_14"/>
<path fill-rule="evenodd" d="M820.6 453.5h.7v-9.9h-.7v9.9Z" class="g2_14"/>
<path fill-rule="evenodd" d="M84.6 531.6H420.3v-9.2H84.6v9.2Z" class="g3_14"/>
<path fill-rule="evenodd" d="M84.2 531.6h.7V453.5h-.7v78.1Z" class="g2_14"/>
<path fill-rule="evenodd" d="M420.3 531.6H821v-9.2H420.3v9.2Z" class="g3_14"/>
<path fill-rule="evenodd" d="M419.9 531.6h.7V453.5h-.7v78.1Z" class="g2_14"/>
<path fill-rule="evenodd" d="M820.6 531.6h.7V453.5h-.7v78.1Z" class="g2_14"/>
<path fill-rule="evenodd" d="M84.9 597.2h335V532.3H84.9v64.9Z" class="g4_14"/>
<path fill-rule="evenodd" d="M93.7 564.7H411.1V541.5H93.7v23.2Z" class="g4_14"/>
<path fill-rule="evenodd" d="M93.7 587.5H411.1V564.7H93.7v22.8Z" class="g4_14"/>
<path fill-rule="evenodd" d="M420.6 597.2h400V532.3h-400v64.9Z" class="g4_14"/>
<path fill-rule="evenodd" d="M429.5 564.7H811.8V541.5H429.5v23.2Z" class="g4_14"/>
<path fill-rule="evenodd" d="M429.5 588H811.8V564.7H429.5V588Z" class="g4_14"/>
<path fill-rule="evenodd" d="M84.2 541.5h.7v-9.9h-.7v9.9Z" class="g2_14"/>
<path fill-rule="evenodd" d="M84.9 532.3h335v-.7H84.9v.7Z" class="g2_14"/>
<path fill-rule="evenodd" d="M84.9 541.5h335v-9.2H84.9v9.2Z" class="g4_14"/>
<path fill-rule="evenodd" d="M419.9 541.5h.7v-9.9h-.7v9.9Z" class="g2_14"/>
<path fill-rule="evenodd" d="M420.6 532.3h400v-.7h-400v.7Z" class="g2_14"/>
<path fill-rule="evenodd" d="M420.6 541.5h400v-9.2h-400v9.2Z" class="g4_14"/>
<path fill-rule="evenodd" d="M820.6 541.5h.7v-9.9h-.7v9.9Z" class="g2_14"/>
<path fill-rule="evenodd" d="M84.6 597.2H420.3V588H84.6v9.2Z" class="g4_14"/>
<path fill-rule="evenodd" d="M84.2 597.2h.7V541.5h-.7v55.7Z" class="g2_14"/>
<path fill-rule="evenodd" d="M420.3 597.2H821V588H420.3v9.2Z" class="g4_14"/>
<path fill-rule="evenodd" d="M419.9 597.2h.7V541.5h-.7v55.7Z" class="g2_14"/>
<path fill-rule="evenodd" d="M820.6 597.2h.7V541.5h-.7v55.7Z" class="g2_14"/>
<path fill-rule="evenodd" d="M84.9 662.3h335V597.9H84.9v64.4Z" class="g3_14"/>
<path fill-rule="evenodd" d="M93.7 630.2H411.1V607.1H93.7v23.1Z" class="g3_14"/>
<path fill-rule="evenodd" d="M93.7 653.1H411.1V630.2H93.7v22.9Z" class="g3_14"/>
<path fill-rule="evenodd" d="M420.6 662.3h400V597.9h-400v64.4Z" class="g3_14"/>
<path fill-rule="evenodd" d="M429.5 630.2H811.8V607.1H429.5v23.1Z" class="g3_14"/>
<path fill-rule="evenodd" d="M429.5 653.1H811.8V630.2H429.5v22.9Z" class="g3_14"/>
<path fill-rule="evenodd" d="M84.2 607.1h.7v-9.9h-.7v9.9Z" class="g2_14"/>
<path fill-rule="evenodd" d="M84.9 597.9h335v-.7H84.9v.7Z" class="g2_14"/>
<path fill-rule="evenodd" d="M84.9 607.1h335v-9.2H84.9v9.2Z" class="g3_14"/>
<path fill-rule="evenodd" d="M419.9 607.1h.7v-9.9h-.7v9.9Z" class="g2_14"/>
<path fill-rule="evenodd" d="M420.6 597.9h400v-.7h-400v.7Z" class="g2_14"/>
<path fill-rule="evenodd" d="M420.6 607.1h400v-9.2h-400v9.2Z" class="g3_14"/>
<path fill-rule="evenodd" d="M820.6 607.1h.7v-9.9h-.7v9.9Z" class="g2_14"/>
<path fill-rule="evenodd" d="M84.6 662.3H420.3v-9.2H84.6v9.2Z" class="g3_14"/>
<path fill-rule="evenodd" d="M84.2 662.3h.7V607.1h-.7v55.2Z" class="g2_14"/>
<path fill-rule="evenodd" d="M420.3 662.3H821v-9.2H420.3v9.2Z" class="g3_14"/>
<path fill-rule="evenodd" d="M419.9 662.3h.7V607.1h-.7v55.2Z" class="g2_14"/>
<path fill-rule="evenodd" d="M820.6 662.3h.7V607.1h-.7v55.2Z" class="g2_14"/>
<path fill-rule="evenodd" d="M84.9 750.3h335V663H84.9v87.3Z" class="g4_14"/>
<path fill-rule="evenodd" d="M93.7 695.5H411.1V672.2H93.7v23.3Z" class="g4_14"/>
<path fill-rule="evenodd" d="M93.7 718.2H411.1V695.5H93.7v22.7Z" class="g4_14"/>
<path fill-rule="evenodd" d="M420.6 750.3h400V663h-400v87.3Z" class="g4_14"/>
<path fill-rule="evenodd" d="M429.5 695.5H811.8V672.2H429.5v23.3Z" class="g4_14"/>
<path fill-rule="evenodd" d="M429.5 718.2H811.8V695.5H429.5v22.7Z" class="g4_14"/>
<path fill-rule="evenodd" d="M429.5 741.1H811.8V718.2H429.5v22.9Z" class="g4_14"/>
<path fill-rule="evenodd" d="M84.2 672.2h.7v-9.9h-.7v9.9Z" class="g2_14"/>
<path fill-rule="evenodd" d="M84.9 663h335v-.7H84.9v.7Z" class="g2_14"/>
<path fill-rule="evenodd" d="M84.9 672.2h335V663H84.9v9.2Z" class="g4_14"/>
<path fill-rule="evenodd" d="M419.9 672.2h.7v-9.9h-.7v9.9Z" class="g2_14"/>
<path fill-rule="evenodd" d="M420.6 663h400v-.7h-400v.7Z" class="g2_14"/>
<path fill-rule="evenodd" d="M420.6 672.2h400V663h-400v9.2Z" class="g4_14"/>
<path fill-rule="evenodd" d="M820.6 672.2h.7v-9.9h-.7v9.9Z" class="g2_14"/>
<path fill-rule="evenodd" d="M84.6 750.3H420.3v-9.2H84.6v9.2Z" class="g4_14"/>
<path fill-rule="evenodd" d="M84.2 750.3h.7V672.2h-.7v78.1Z" class="g2_14"/>
<path fill-rule="evenodd" d="M420.3 750.3H821v-9.2H420.3v9.2Z" class="g4_14"/>
<path fill-rule="evenodd" d="M419.9 750.3h.7V672.2h-.7v78.1Z" class="g2_14"/>
<path fill-rule="evenodd" d="M820.6 750.3h.7V672.2h-.7v78.1Z" class="g2_14"/>
<path fill-rule="evenodd" d="M84.9 884h335V751H84.9V884Z" class="g3_14"/>
<path fill-rule="evenodd" d="M93.7 783.5H411.1V760.2H93.7v23.3Z" class="g3_14"/>
<path fill-rule="evenodd" d="M93.7 806.2H411.1V783.5H93.7v22.7Z" class="g3_14"/>
<path fill-rule="evenodd" d="M93.7 829.1H411.1V806.2H93.7v22.9Z" class="g3_14"/>
<path fill-rule="evenodd" d="M93.7 851.9H411.1V829.1H93.7v22.8Z" class="g3_14"/>
<path fill-rule="evenodd" d="M93.7 874.8H411.1V851.9H93.7v22.9Z" class="g3_14"/>
<path fill-rule="evenodd" d="M420.6 884h400V751h-400V884Z" class="g3_14"/>
<path fill-rule="evenodd" d="M429.5 783.5H811.8V760.2H429.5v23.3Z" class="g3_14"/>
<path fill-rule="evenodd" d="M429.5 806.2H811.8V783.5H429.5v22.7Z" class="g3_14"/>
<path fill-rule="evenodd" d="M429.5 829.1H811.8V806.2H429.5v22.9Z" class="g3_14"/>
<path fill-rule="evenodd" d="M84.2 760.2h.7v-9.9h-.7v9.9Z" class="g2_14"/>
<path fill-rule="evenodd" d="M84.9 751h335v-.7H84.9v.7Z" class="g2_14"/>
<path fill-rule="evenodd" d="M84.9 760.2h335V751H84.9v9.2Z" class="g3_14"/>
<path fill-rule="evenodd" d="M419.9 760.2h.7v-9.9h-.7v9.9Z" class="g2_14"/>
<path fill-rule="evenodd" d="M420.6 751h400v-.7h-400v.7Z" class="g2_14"/>
<path fill-rule="evenodd" d="M420.6 760.2h400V751h-400v9.2Z" class="g3_14"/>
<path fill-rule="evenodd" d="M820.6 760.2h.7v-9.9h-.7v9.9Z" class="g2_14"/>
<path fill-rule="evenodd" d="M84.6 884H420.3v-9.2H84.6V884Z" class="g3_14"/>
<path fill-rule="evenodd" d="M84.2 884h.7V760.2h-.7V884Z" class="g2_14"/>
<path fill-rule="evenodd" d="M84.2 884.7h.7V884h-.7v.7Z" class="g2_14"/>
<path fill-rule="evenodd" d="M84.2 884.7h.7V884h-.7v.7Z" class="g2_14"/>
<path fill-rule="evenodd" d="M84.9 884.7h335V884H84.9v.7Z" class="g2_14"/>
<path fill-rule="evenodd" d="M420.3 884H821v-9.2H420.3V884Z" class="g3_14"/>
<path fill-rule="evenodd" d="M419.9 884h.7V760.2h-.7V884Z" class="g2_14"/>
<path fill-rule="evenodd" d="M419.9 884.7h.7V884h-.7v.7Z" class="g2_14"/>
<path fill-rule="evenodd" d="M420.6 884.7h400V884h-400v.7Z" class="g2_14"/>
<path fill-rule="evenodd" d="M820.6 884h.7V760.2h-.7V884Z" class="g2_14"/>
<path fill-rule="evenodd" d="M820.6 884.7h.7V884h-.7v.7Z" class="g2_14"/>
<path fill-rule="evenodd" d="M820.6 884.7h.7V884h-.7v.7Z" class="g2_14"/>
</svg>