<?xml version="1.0" encoding="UTF-8" standalone="no"?>
<!DOCTYPE svg PUBLIC "-//W3C//DTD SVG 1.1//EN"
"http://www.w3.org/Graphics/SVG/1.1/DTD/svg11.dtd">
<svg viewBox="0 0 909 1286" version="1.1" xmlns="http://www.w3.org/2000/svg" xmlns:xlink="http://www.w3.org/1999/xlink">
<defs>
<clipPath id="c0_50"><path d="M421.9 1209.8v-33.3h52.7v33.3Z"/></clipPath>
<style type="text/css"><![CDATA[
.g0_50{
fill: #4472C4;
}
.g1_50{
fill: #000;
}
]]></style>
</defs>
<path fill-rule="evenodd" d="M49.7 88.9H855.8v-.7H49.7v.7Z" class="g0_50"/>
<path fill-rule="evenodd" d="M49.7 1161.4H855.8v-1.1H49.7v1.1Z" class="g0_50"/>
<image clip-path="url(#c0_50)" preserveAspectRatio="none" x="422" y="1176" width="53" height="34" xlink:href="img/1.png"/>
<path fill-rule="evenodd" d="M116.6 110.4h.8v-.8h-.8v.8Z" class="g1_50"/>
<path fill-rule="evenodd" d="M116.6 110.4h.8v-.8h-.8v.8Z" class="g1_50"/>
<path fill-rule="evenodd" d="M117.4 110.4h324v-.8h-324v.8Z" class="g1_50"/>
<path fill-rule="evenodd" d="M441.4 110.4h.7v-.8h-.7v.8Z" class="g1_50"/>
<path fill-rule="evenodd" d="M442.1 110.4H766.3v-.8H442.1v.8Z" class="g1_50"/>
<path fill-rule="evenodd" d="M766.3 110.4h.7v-.8h-.7v.8Z" class="g1_50"/>
<path fill-rule="evenodd" d="M766.3 110.4h.7v-.8h-.7v.8Z" class="g1_50"/>
<path fill-rule="evenodd" d="M116.6 133.1h.8V110.4h-.8v22.7Z" class="g1_50"/>
<path fill-rule="evenodd" d="M441.4 133.1h.7V110.4h-.7v22.7Z" class="g1_50"/>
<path fill-rule="evenodd" d="M766.3 133.1h.7V110.4h-.7v22.7Z" class="g1_50"/>
<path fill-rule="evenodd" d="M116.6 133.9h.8v-.8h-.8v.8Z" class="g1_50"/>
<path fill-rule="evenodd" d="M117.4 133.9h324v-.8h-324v.8Z" class="g1_50"/>
<path fill-rule="evenodd" d="M441.4 133.9h.7v-.8h-.7v.8Z" class="g1_50"/>
<path fill-rule="evenodd" d="M442.1 133.9H766.3v-.8H442.1v.8Z" class="g1_50"/>
<path fill-rule="evenodd" d="M766.3 133.9h.7v-.8h-.7v.8Z" class="g1_50"/>
<path fill-rule="evenodd" d="M116.6 156.8h.8V133.9h-.8v22.9Z" class="g1_50"/>
<path fill-rule="evenodd" d="M441.4 156.8h.7V133.9h-.7v22.9Z" class="g1_50"/>
<path fill-rule="evenodd" d="M766.3 156.8h.7V133.9h-.7v22.9Z" class="g1_50"/>
<path fill-rule="evenodd" d="M116.6 157.5h.8v-.7h-.8v.7Z" class="g1_50"/>
<path fill-rule="evenodd" d="M117.4 157.5h324v-.7h-324v.7Z" class="g1_50"/>
<path fill-rule="evenodd" d="M441.4 157.5h.7v-.7h-.7v.7Z" class="g1_50"/>
<path fill-rule="evenodd" d="M442.1 157.5H766.3v-.7H442.1v.7Z" class="g1_50"/>
<path fill-rule="evenodd" d="M766.3 157.5h.7v-.7h-.7v.7Z" class="g1_50"/>
<path fill-rule="evenodd" d="M116.6 203.3h.8V157.5h-.8v45.8Z" class="g1_50"/>
<path fill-rule="evenodd" d="M441.4 203.3h.7V157.5h-.7v45.8Z" class="g1_50"/>
<path fill-rule="evenodd" d="M766.3 203.3h.7V157.5h-.7v45.8Z" class="g1_50"/>
<path fill-rule="evenodd" d="M116.6 204.1h.8v-.8h-.8v.8Z" class="g1_50"/>
<path fill-rule="evenodd" d="M117.4 204.1h324v-.8h-324v.8Z" class="g1_50"/>
<path fill-rule="evenodd" d="M441.4 204.1h.7v-.8h-.7v.8Z" class="g1_50"/>
<path fill-rule="evenodd" d="M442.1 204.1H766.3v-.8H442.1v.8Z" class="g1_50"/>
<path fill-rule="evenodd" d="M766.3 204.1h.7v-.8h-.7v.8Z" class="g1_50"/>
<path fill-rule="evenodd" d="M116.6 249.7h.8V204.1h-.8v45.6Z" class="g1_50"/>
<path fill-rule="evenodd" d="M441.4 249.7h.7V204.1h-.7v45.6Z" class="g1_50"/>
<path fill-rule="evenodd" d="M766.3 249.7h.7V204.1h-.7v45.6Z" class="g1_50"/>
<path fill-rule="evenodd" d="M116.6 250.5h.8v-.8h-.8v.8Z" class="g1_50"/>
<path fill-rule="evenodd" d="M117.4 250.5h324v-.8h-324v.8Z" class="g1_50"/>
<path fill-rule="evenodd" d="M441.4 250.5h.7v-.8h-.7v.8Z" class="g1_50"/>
<path fill-rule="evenodd" d="M442.1 250.5H766.3v-.8H442.1v.8Z" class="g1_50"/>
<path fill-rule="evenodd" d="M766.3 250.5h.7v-.8h-.7v.8Z" class="g1_50"/>
<path fill-rule="evenodd" d="M116.6 273.4h.8V250.5h-.8v22.9Z" class="g1_50"/>
<path fill-rule="evenodd" d="M441.4 273.4h.7V250.5h-.7v22.9Z" class="g1_50"/>
<path fill-rule="evenodd" d="M766.3 273.4h.7V250.5h-.7v22.9Z" class="g1_50"/>
<path fill-rule="evenodd" d="M116.6 274.1h.8v-.7h-.8v.7Z" class="g1_50"/>
<path fill-rule="evenodd" d="M117.4 274.1h324v-.7h-324v.7Z" class="g1_50"/>
<path fill-rule="evenodd" d="M441.4 274.1h.7v-.7h-.7v.7Z" class="g1_50"/>
<path fill-rule="evenodd" d="M442.1 274.1H766.3v-.7H442.1v.7Z" class="g1_50"/>
<path fill-rule="evenodd" d="M766.3 274.1h.7v-.7h-.7v.7Z" class="g1_50"/>
<path fill-rule="evenodd" d="M116.6 319.8h.8V274.1h-.8v45.7Z" class="g1_50"/>
<path fill-rule="evenodd" d="M116.6 320.5h.8v-.7h-.8v.7Z" class="g1_50"/>
<path fill-rule="evenodd" d="M116.6 320.5h.8v-.7h-.8v.7Z" class="g1_50"/>
<path fill-rule="evenodd" d="M117.4 320.5h324v-.7h-324v.7Z" class="g1_50"/>
<path fill-rule="evenodd" d="M441.4 319.8h.7V274.1h-.7v45.7Z" class="g1_50"/>
<path fill-rule="evenodd" d="M441.4 320.5h.7v-.7h-.7v.7Z" class="g1_50"/>
<path fill-rule="evenodd" d="M442.1 320.5H766.3v-.7H442.1v.7Z" class="g1_50"/>
<path fill-rule="evenodd" d="M766.3 319.8h.7V274.1h-.7v45.7Z" class="g1_50"/>
<path fill-rule="evenodd" d="M766.3 320.5h.7v-.7h-.7v.7Z" class="g1_50"/>
<path fill-rule="evenodd" d="M766.3 320.5h.7v-.7h-.7v.7Z" class="g1_50"/>
<path fill-rule="evenodd" d="M116.6 366.9h.8v-.8h-.8v.8Z" class="g1_50"/>
<path fill-rule="evenodd" d="M116.6 366.9h.8v-.8h-.8v.8Z" class="g1_50"/>
<path fill-rule="evenodd" d="M117.4 366.9h324v-.8h-324v.8Z" class="g1_50"/>
<path fill-rule="evenodd" d="M441.4 366.9h.7v-.8h-.7v.8Z" class="g1_50"/>
<path fill-rule="evenodd" d="M442.1 366.9H766.3v-.8H442.1v.8Z" class="g1_50"/>
<path fill-rule="evenodd" d="M766.3 366.9h.7v-.8h-.7v.8Z" class="g1_50"/>
<path fill-rule="evenodd" d="M766.3 366.9h.7v-.8h-.7v.8Z" class="g1_50"/>
<path fill-rule="evenodd" d="M116.6 389.8h.8V366.9h-.8v22.9Z" class="g1_50"/>
<path fill-rule="evenodd" d="M441.4 389.8h.7V366.9h-.7v22.9Z" class="g1_50"/>
<path fill-rule="evenodd" d="M766.3 389.8h.7V366.9h-.7v22.9Z" class="g1_50"/>
<path fill-rule="evenodd" d="M116.6 390.6h.8v-.8h-.8v.8Z" class="g1_50"/>
<path fill-rule="evenodd" d="M117.4 390.6h324v-.8h-324v.8Z" class="g1_50"/>
<path fill-rule="evenodd" d="M441.4 390.6h.7v-.8h-.7v.8Z" class="g1_50"/>
<path fill-rule="evenodd" d="M442.1 390.6H766.3v-.8H442.1v.8Z" class="g1_50"/>
<path fill-rule="evenodd" d="M766.3 390.6h.7v-.8h-.7v.8Z" class="g1_50"/>
<path fill-rule="evenodd" d="M116.6 413.5h.8V390.6h-.8v22.9Z" class="g1_50"/>
<path fill-rule="evenodd" d="M441.4 413.5h.7V390.6h-.7v22.9Z" class="g1_50"/>
<path fill-rule="evenodd" d="M766.3 413.5h.7V390.6h-.7v22.9Z" class="g1_50"/>
<path fill-rule="evenodd" d="M116.6 414.2h.8v-.7h-.8v.7Z" class="g1_50"/>
<path fill-rule="evenodd" d="M117.4 414.2h324v-.7h-324v.7Z" class="g1_50"/>
<path fill-rule="evenodd" d="M441.4 414.2h.7v-.7h-.7v.7Z" class="g1_50"/>
<path fill-rule="evenodd" d="M442.1 414.2H766.3v-.7H442.1v.7Z" class="g1_50"/>
<path fill-rule="evenodd" d="M766.3 414.2h.7v-.7h-.7v.7Z" class="g1_50"/>
<path fill-rule="evenodd" d="M116.6 459.9h.8V414.2h-.8v45.7Z" class="g1_50"/>
<path fill-rule="evenodd" d="M441.4 459.9h.7V414.2h-.7v45.7Z" class="g1_50"/>
<path fill-rule="evenodd" d="M766.3 459.9h.7V414.2h-.7v45.7Z" class="g1_50"/>
<path fill-rule="evenodd" d="M116.6 460.6h.8v-.7h-.8v.7Z" class="g1_50"/>
<path fill-rule="evenodd" d="M117.4 460.6h324v-.7h-324v.7Z" class="g1_50"/>
<path fill-rule="evenodd" d="M441.4 460.6h.7v-.7h-.7v.7Z" class="g1_50"/>
<path fill-rule="evenodd" d="M442.1 460.6H766.3v-.7H442.1v.7Z" class="g1_50"/>
<path fill-rule="evenodd" d="M766.3 460.6h.7v-.7h-.7v.7Z" class="g1_50"/>
<path fill-rule="evenodd" d="M116.6 483.5h.8V460.6h-.8v22.9Z" class="g1_50"/>
<path fill-rule="evenodd" d="M441.4 483.5h.7V460.6h-.7v22.9Z" class="g1_50"/>
<path fill-rule="evenodd" d="M766.3 483.5h.7V460.6h-.7v22.9Z" class="g1_50"/>
<path fill-rule="evenodd" d="M116.6 484.3h.8v-.8h-.8v.8Z" class="g1_50"/>
<path fill-rule="evenodd" d="M117.4 484.3h324v-.8h-324v.8Z" class="g1_50"/>
<path fill-rule="evenodd" d="M441.4 484.3h.7v-.8h-.7v.8Z" class="g1_50"/>
<path fill-rule="evenodd" d="M442.1 484.3H766.3v-.8H442.1v.8Z" class="g1_50"/>
<path fill-rule="evenodd" d="M766.3 484.3h.7v-.8h-.7v.8Z" class="g1_50"/>
<path fill-rule="evenodd" d="M116.6 507h.8V484.3h-.8V507Z" class="g1_50"/>
<path fill-rule="evenodd" d="M441.4 507h.7V484.3h-.7V507Z" class="g1_50"/>
<path fill-rule="evenodd" d="M766.3 507h.7V484.3h-.7V507Z" class="g1_50"/>
<path fill-rule="evenodd" d="M116.6 507.7h.8V507h-.8v.7Z" class="g1_50"/>
<path fill-rule="evenodd" d="M117.4 507.7h324V507h-324v.7Z" class="g1_50"/>
<path fill-rule="evenodd" d="M441.4 507.7h.7V507h-.7v.7Z" class="g1_50"/>
<path fill-rule="evenodd" d="M442.1 507.7H766.3V507H442.1v.7Z" class="g1_50"/>
<path fill-rule="evenodd" d="M766.3 507.7h.7V507h-.7v.7Z" class="g1_50"/>
<path fill-rule="evenodd" d="M116.6 530.6h.8V507.7h-.8v22.9Z" class="g1_50"/>
<path fill-rule="evenodd" d="M116.6 531.4h.8v-.8h-.8v.8Z" class="g1_50"/>
<path fill-rule="evenodd" d="M116.6 531.4h.8v-.8h-.8v.8Z" class="g1_50"/>
<path fill-rule="evenodd" d="M117.4 531.4h324v-.8h-324v.8Z" class="g1_50"/>
<path fill-rule="evenodd" d="M441.4 530.6h.7V507.7h-.7v22.9Z" class="g1_50"/>
<path fill-rule="evenodd" d="M441.4 531.4h.7v-.8h-.7v.8Z" class="g1_50"/>
<path fill-rule="evenodd" d="M442.1 531.4H766.3v-.8H442.1v.8Z" class="g1_50"/>
<path fill-rule="evenodd" d="M766.3 530.6h.7V507.7h-.7v22.9Z" class="g1_50"/>
<path fill-rule="evenodd" d="M766.3 531.4h.7v-.8h-.7v.8Z" class="g1_50"/>
<path fill-rule="evenodd" d="M766.3 531.4h.7v-.8h-.7v.8Z" class="g1_50"/>
<path fill-rule="evenodd" d="M116.6 577.9h.8v-.7h-.8v.7Z" class="g1_50"/>
<path fill-rule="evenodd" d="M116.6 577.9h.8v-.7h-.8v.7Z" class="g1_50"/>
<path fill-rule="evenodd" d="M117.4 577.9h324v-.7h-324v.7Z" class="g1_50"/>
<path fill-rule="evenodd" d="M441.4 577.9h.7v-.7h-.7v.7Z" class="g1_50"/>
<path fill-rule="evenodd" d="M442.1 577.9H766.3v-.7H442.1v.7Z" class="g1_50"/>
<path fill-rule="evenodd" d="M766.3 577.9h.7v-.7h-.7v.7Z" class="g1_50"/>
<path fill-rule="evenodd" d="M766.3 577.9h.7v-.7h-.7v.7Z" class="g1_50"/>
<path fill-rule="evenodd" d="M116.6 600.7h.8V577.9h-.8v22.8Z" class="g1_50"/>
<path fill-rule="evenodd" d="M441.4 600.7h.7V577.9h-.7v22.8Z" class="g1_50"/>
<path fill-rule="evenodd" d="M766.3 600.7h.7V577.9h-.7v22.8Z" class="g1_50"/>
<path fill-rule="evenodd" d="M116.6 601.4h.8v-.7h-.8v.7Z" class="g1_50"/>
<path fill-rule="evenodd" d="M117.4 601.4h324v-.7h-324v.7Z" class="g1_50"/>
<path fill-rule="evenodd" d="M441.4 601.4h.7v-.7h-.7v.7Z" class="g1_50"/>
<path fill-rule="evenodd" d="M442.1 601.4H766.3v-.7H442.1v.7Z" class="g1_50"/>
<path fill-rule="evenodd" d="M766.3 601.4h.7v-.7h-.7v.7Z" class="g1_50"/>
<path fill-rule="evenodd" d="M116.6 670h.8V601.4h-.8V670Z" class="g1_50"/>
<path fill-rule="evenodd" d="M441.4 670h.7V601.4h-.7V670Z" class="g1_50"/>
<path fill-rule="evenodd" d="M766.3 670h.7V601.4h-.7V670Z" class="g1_50"/>
<path fill-rule="evenodd" d="M116.6 670.7h.8V670h-.8v.7Z" class="g1_50"/>
<path fill-rule="evenodd" d="M117.4 670.7h324V670h-324v.7Z" class="g1_50"/>
<path fill-rule="evenodd" d="M441.4 670.7h.7V670h-.7v.7Z" class="g1_50"/>
<path fill-rule="evenodd" d="M442.1 670.7H766.3V670H442.1v.7Z" class="g1_50"/>
<path fill-rule="evenodd" d="M766.3 670.7h.7V670h-.7v.7Z" class="g1_50"/>
<path fill-rule="evenodd" d="M116.6 693.7h.8v-23h-.8v23Z" class="g1_50"/>
<path fill-rule="evenodd" d="M441.4 693.7h.7v-23h-.7v23Z" class="g1_50"/>
<path fill-rule="evenodd" d="M766.3 693.7h.7v-23h-.7v23Z" class="g1_50"/>
<path fill-rule="evenodd" d="M116.6 694.4h.8v-.7h-.8v.7Z" class="g1_50"/>
<path fill-rule="evenodd" d="M117.4 694.4h324v-.7h-324v.7Z" class="g1_50"/>
<path fill-rule="evenodd" d="M441.4 694.4h.7v-.7h-.7v.7Z" class="g1_50"/>
<path fill-rule="evenodd" d="M442.1 694.4H766.3v-.7H442.1v.7Z" class="g1_50"/>
<path fill-rule="evenodd" d="M766.3 694.4h.7v-.7h-.7v.7Z" class="g1_50"/>
<path fill-rule="evenodd" d="M116.6 740h.8V694.4h-.8V740Z" class="g1_50"/>
<path fill-rule="evenodd" d="M441.4 740h.7V694.4h-.7V740Z" class="g1_50"/>
<path fill-rule="evenodd" d="M766.3 740h.7V694.4h-.7V740Z" class="g1_50"/>
<path fill-rule="evenodd" d="M116.6 740.8h.8V740h-.8v.8Z" class="g1_50"/>
<path fill-rule="evenodd" d="M117.4 740.8h324V740h-324v.8Z" class="g1_50"/>
<path fill-rule="evenodd" d="M441.4 740.8h.7V740h-.7v.8Z" class="g1_50"/>
<path fill-rule="evenodd" d="M442.1 740.8H766.3V740H442.1v.8Z" class="g1_50"/>
<path fill-rule="evenodd" d="M766.3 740.8h.7V740h-.7v.8Z" class="g1_50"/>
<path fill-rule="evenodd" d="M116.6 786.4h.8V740.8h-.8v45.6Z" class="g1_50"/>
<path fill-rule="evenodd" d="M441.4 786.4h.7V740.8h-.7v45.6Z" class="g1_50"/>
<path fill-rule="evenodd" d="M766.3 786.4h.7V740.8h-.7v45.6Z" class="g1_50"/>
<path fill-rule="evenodd" d="M116.6 787.2h.8v-.8h-.8v.8Z" class="g1_50"/>
<path fill-rule="evenodd" d="M117.4 787.2h324v-.8h-324v.8Z" class="g1_50"/>
<path fill-rule="evenodd" d="M441.4 787.2h.7v-.8h-.7v.8Z" class="g1_50"/>
<path fill-rule="evenodd" d="M442.1 787.2H766.3v-.8H442.1v.8Z" class="g1_50"/>
<path fill-rule="evenodd" d="M766.3 787.2h.7v-.8h-.7v.8Z" class="g1_50"/>
<path fill-rule="evenodd" d="M116.6 855.9h.8V787.2h-.8v68.7Z" class="g1_50"/>
<path fill-rule="evenodd" d="M116.6 856.6h.8v-.7h-.8v.7Z" class="g1_50"/>
<path fill-rule="evenodd" d="M116.6 856.6h.8v-.7h-.8v.7Z" class="g1_50"/>
<path fill-rule="evenodd" d="M117.4 856.6h324v-.7h-324v.7Z" class="g1_50"/>
<path fill-rule="evenodd" d="M441.4 855.9h.7V787.2h-.7v68.7Z" class="g1_50"/>
<path fill-rule="evenodd" d="M441.4 856.6h.7v-.7h-.7v.7Z" class="g1_50"/>
<path fill-rule="evenodd" d="M442.1 856.6H766.3v-.7H442.1v.7Z" class="g1_50"/>
<path fill-rule="evenodd" d="M766.3 855.9h.7V787.2h-.7v68.7Z" class="g1_50"/>
<path fill-rule="evenodd" d="M766.3 856.6h.7v-.7h-.7v.7Z" class="g1_50"/>
<path fill-rule="evenodd" d="M766.3 856.6h.7v-.7h-.7v.7Z" class="g1_50"/>
<path fill-rule="evenodd" d="M116.6 903.1h.8v-.8h-.8v.8Z" class="g1_50"/>
<path fill-rule="evenodd" d="M116.6 903.1h.8v-.8h-.8v.8Z" class="g1_50"/>
<path fill-rule="evenodd" d="M117.4 903.1h324v-.8h-324v.8Z" class="g1_50"/>
<path fill-rule="evenodd" d="M441.4 903.1h.7v-.8h-.7v.8Z" class="g1_50"/>
<path fill-rule="evenodd" d="M442.1 903.1H766.3v-.8H442.1v.8Z" class="g1_50"/>
<path fill-rule="evenodd" d="M766.3 903.1h.7v-.8h-.7v.8Z" class="g1_50"/>
<path fill-rule="evenodd" d="M766.3 903.1h.7v-.8h-.7v.8Z" class="g1_50"/>
<path fill-rule="evenodd" d="M116.6 925.8h.8V903.1h-.8v22.7Z" class="g1_50"/>
<path fill-rule="evenodd" d="M441.4 925.8h.7V903.1h-.7v22.7Z" class="g1_50"/>
<path fill-rule="evenodd" d="M766.3 925.8h.7V903.1h-.7v22.7Z" class="g1_50"/>
<path fill-rule="evenodd" d="M116.6 926.5h.8v-.7h-.8v.7Z" class="g1_50"/>
<path fill-rule="evenodd" d="M117.4 926.5h324v-.7h-324v.7Z" class="g1_50"/>
<path fill-rule="evenodd" d="M441.4 926.5h.7v-.7h-.7v.7Z" class="g1_50"/>
<path fill-rule="evenodd" d="M442.1 926.5H766.3v-.7H442.1v.7Z" class="g1_50"/>
<path fill-rule="evenodd" d="M766.3 926.5h.7v-.7h-.7v.7Z" class="g1_50"/>
<path fill-rule="evenodd" d="M116.6 949.5h.8v-23h-.8v23Z" class="g1_50"/>
<path fill-rule="evenodd" d="M441.4 949.5h.7v-23h-.7v23Z" class="g1_50"/>
<path fill-rule="evenodd" d="M766.3 949.5h.7v-23h-.7v23Z" class="g1_50"/>
<path fill-rule="evenodd" d="M116.6 950.2h.8v-.7h-.8v.7Z" class="g1_50"/>
<path fill-rule="evenodd" d="M117.4 950.2h324v-.7h-324v.7Z" class="g1_50"/>
<path fill-rule="evenodd" d="M441.4 950.2h.7v-.7h-.7v.7Z" class="g1_50"/>
<path fill-rule="evenodd" d="M442.1 950.2H766.3v-.7H442.1v.7Z" class="g1_50"/>
<path fill-rule="evenodd" d="M766.3 950.2h.7v-.7h-.7v.7Z" class="g1_50"/>
<path fill-rule="evenodd" d="M116.6 995.8h.8V950.2h-.8v45.6Z" class="g1_50"/>
<path fill-rule="evenodd" d="M441.4 995.8h.7V950.2h-.7v45.6Z" class="g1_50"/>
<path fill-rule="evenodd" d="M766.3 995.8h.7V950.2h-.7v45.6Z" class="g1_50"/>
<path fill-rule="evenodd" d="M116.6 996.6h.8v-.8h-.8v.8Z" class="g1_50"/>
<path fill-rule="evenodd" d="M117.4 996.6h324v-.8h-324v.8Z" class="g1_50"/>
<path fill-rule="evenodd" d="M441.4 996.6h.7v-.8h-.7v.8Z" class="g1_50"/>
<path fill-rule="evenodd" d="M442.1 996.6H766.3v-.8H442.1v.8Z" class="g1_50"/>
<path fill-rule="evenodd" d="M766.3 996.6h.7v-.8h-.7v.8Z" class="g1_50"/>
<path fill-rule="evenodd" d="M116.6 1019.5h.8V996.6h-.8v22.9Z" class="g1_50"/>
<path fill-rule="evenodd" d="M441.4 1019.5h.7V996.6h-.7v22.9Z" class="g1_50"/>
<path fill-rule="evenodd" d="M766.3 1019.5h.7V996.6h-.7v22.9Z" class="g1_50"/>
<path fill-rule="evenodd" d="M116.6 1020.2h.8v-.7h-.8v.7Z" class="g1_50"/>
<path fill-rule="evenodd" d="M117.4 1020.2h324v-.7h-324v.7Z" class="g1_50"/>
<path fill-rule="evenodd" d="M441.4 1020.2h.7v-.7h-.7v.7Z" class="g1_50"/>
<path fill-rule="evenodd" d="M442.1 1020.2H766.3v-.7H442.1v.7Z" class="g1_50"/>
<path fill-rule="evenodd" d="M766.3 1020.2h.7v-.7h-.7v.7Z" class="g1_50"/>
<path fill-rule="evenodd" d="M116.6 1066.1h.8v-45.9h-.8v45.9Z" class="g1_50"/>
<path fill-rule="evenodd" d="M441.4 1066.1h.7v-45.9h-.7v45.9Z" class="g1_50"/>
<path fill-rule="evenodd" d="M766.3 1066.1h.7v-45.9h-.7v45.9Z" class="g1_50"/>
<path fill-rule="evenodd" d="M116.6 1066.8h.8v-.7h-.8v.7Z" class="g1_50"/>
<path fill-rule="evenodd" d="M117.4 1066.8h324v-.7h-324v.7Z" class="g1_50"/>
<path fill-rule="evenodd" d="M441.4 1066.8h.7v-.7h-.7v.7Z" class="g1_50"/>
<path fill-rule="evenodd" d="M442.1 1066.8H766.3v-.7H442.1v.7Z" class="g1_50"/>
<path fill-rule="evenodd" d="M766.3 1066.8h.7v-.7h-.7v.7Z" class="g1_50"/>
<path fill-rule="evenodd" d="M116.6 1112.4h.8v-45.6h-.8v45.6Z" class="g1_50"/>
<path fill-rule="evenodd" d="M441.4 1112.4h.7v-45.6h-.7v45.6Z" class="g1_50"/>
<path fill-rule="evenodd" d="M766.3 1112.4h.7v-45.6h-.7v45.6Z" class="g1_50"/>
<path fill-rule="evenodd" d="M116.6 1113.2h.8v-.8h-.8v.8Z" class="g1_50"/>
<path fill-rule="evenodd" d="M117.4 1113.2h324v-.8h-324v.8Z" class="g1_50"/>
<path fill-rule="evenodd" d="M441.4 1113.2h.7v-.8h-.7v.8Z" class="g1_50"/>
<path fill-rule="evenodd" d="M442.1 1113.2H766.3v-.8H442.1v.8Z" class="g1_50"/>
<path fill-rule="evenodd" d="M766.3 1113.2h.7v-.8h-.7v.8Z" class="g1_50"/>
<path fill-rule="evenodd" d="M116.6 1136.1h.8v-22.9h-.8v22.9Z" class="g1_50"/>
<path fill-rule="evenodd" d="M116.6 1136.8h.8v-.7h-.8v.7Z" class="g1_50"/>
<path fill-rule="evenodd" d="M116.6 1136.8h.8v-.7h-.8v.7Z" class="g1_50"/>
<path fill-rule="evenodd" d="M117.4 1136.8h324v-.7h-324v.7Z" class="g1_50"/>
<path fill-rule="evenodd" d="M441.4 1136.1h.7v-22.9h-.7v22.9Z" class="g1_50"/>
<path fill-rule="evenodd" d="M441.4 1136.8h.7v-.7h-.7v.7Z" class="g1_50"/>
<path fill-rule="evenodd" d="M442.1 1136.8H766.3v-.7H442.1v.7Z" class="g1_50"/>
<path fill-rule="evenodd" d="M766.3 1136.1h.7v-22.9h-.7v22.9Z" class="g1_50"/>
<path fill-rule="evenodd" d="M766.3 1136.8h.7v-.7h-.7v.7Z" class="g1_50"/>
<path fill-rule="evenodd" d="M766.3 1136.8h.7v-.7h-.7v.7Z" class="g1_50"/>
</svg>